<?xml version="1.0" standalone="no"?>
<!DOCTYPE svg PUBLIC "-//W3C//DTD SVG 1.1//EN" "http://www.w3.org/Graphics/SVG/1.1/DTD/svg11.dtd" >
<svg>
<metadata>
Created by FontForge 20090622 at Mon Nov 26 14:31:22 2018
 By deploy user
Copyright (c) 2014 by Fontfabric LLC. All rights reserved.
</metadata>
<defs>
<font id="Panton-Regular" horiz-adv-x="549" >
  <font-face 
    font-family="Panton"
    font-weight="400"
    font-stretch="normal"
    units-per-em="1000"
    panose-1="0 0 5 0 0 0 0 0 0 0"
    ascent="750"
    descent="-250"
    x-height="514"
    cap-height="710"
    bbox="-205.9 -254 1148 961.263"
    underline-thickness="50"
    underline-position="-50"
    unicode-range="U+0020-U+FB02"
  />
<missing-glyph horiz-adv-x="686" 
d="M605 690v-670q0 -11 -4.5 -15.5t-15.5 -4.5h-479q-11 0 -15.5 4.5t-4.5 15.5v670q0 11 4.5 15.5t15.5 4.5h479q11 0 15.5 -4.5t4.5 -15.5zM533 642h-375v-574h375v574z" />
    <glyph glyph-name="fi" unicode="fi" horiz-adv-x="568" 
d="M325 740h159q18 0 18 -18v-26q0 -18 -18 -18h-159q-81 0 -112 -30t-31 -108v-26h302q18 0 18 -18v-478q0 -18 -18 -18h-31q-11 0 -14.5 4t-3.5 14v434h-253v-434q0 -18 -18 -18h-31q-18 0 -18 18v434h-89q-18 0 -18 18v26q0 18 18 18h89v26q0 108 49 154t161 46z" />
    <glyph glyph-name="fl" unicode="fl" horiz-adv-x="538" 
d="M325 740h125q18 0 18 -18v-704q0 -18 -18 -18h-31q-11 0 -14.5 4t-3.5 14v660h-76q-81 0 -112 -30t-31 -108v-26h116q18 0 18 -18v-26q0 -18 -18 -18h-116v-434q0 -18 -18 -18h-31q-18 0 -18 18v434h-89q-18 0 -18 18v26q0 18 18 18h89v27q0 106 49 152.5t161 46.5z" />
    <glyph glyph-name=".notdef" horiz-adv-x="686" 
d="M605 690v-670q0 -11 -4.5 -15.5t-15.5 -4.5h-479q-11 0 -15.5 4.5t-4.5 15.5v670q0 11 4.5 15.5t15.5 4.5h479q11 0 15.5 -4.5t4.5 -15.5zM533 642h-375v-574h375v574z" />
    <glyph glyph-name=".null" horiz-adv-x="0" 
 />
    <glyph glyph-name="nonmarkingreturn" horiz-adv-x="333" 
 />
    <glyph glyph-name="space" unicode=" " horiz-adv-x="236" 
 />
    <glyph glyph-name="exclam" unicode="!" horiz-adv-x="207" 
d="M86 740h35q18 0 18 -18l-9 -536q0 -18 -18 -18h-18q-16 0 -18 18l-8 536q0 18 18 18zM100 80h6q23 0 31.5 -8.5t8.5 -31.5v-6q0 -22 -9 -31t-31 -9h-6q-23 0 -31 8.5t-8 31.5v6q0 23 8 31.5t31 8.5z" />
    <glyph glyph-name="quotedbl" unicode="&#x22;" horiz-adv-x="295" 
d="M126 694l-9 -204q-1 -10 -4 -13t-14 -3h-18q-11 0 -14 3t-3 13v204q0 10 3.5 13t13.5 3h28q11 0 14.5 -3t2.5 -13zM237 694l-10 -204q-1 -10 -4 -13t-13 -3h-19q-10 0 -13 3t-3 13v204q0 10 3 13t13 3h29q10 0 14 -3.5t3 -12.5z" />
    <glyph glyph-name="numbersign" unicode="#" horiz-adv-x="680" 
d="M532 480h104q20 0 14 -18l-8 -28q-4 -16 -24 -16h-105l-49 -165h105q20 0 14 -18l-9 -28q-4 -16 -23 -16h-105l-52 -173q-8 -18 -23 -18h-30q-19 0 -13 18l51 173h-157l-52 -173q-4 -18 -22 -18h-30q-19 0 -13 18l51 173h-103q-17 0 -13 18l8 27q5 17 25 17h102l49 165
h-103q-20 0 -14 18l9 27q5 17 24 17h102l47 156q6 18 23 18h30q19 0 13 -18l-47 -156h157l47 156q6 18 23 18h30q19 0 13 -18zM447 418h-157l-49 -165h157z" />
    <glyph glyph-name="dollar" unicode="$" horiz-adv-x="590" 
d="M285 783h31q18 0 18 -18v-63q77 -7 124.5 -43t83.5 -110q10 -19 -11 -28l-28 -13q-18 -7 -27 10q-32 63 -72 90t-110 27q-160 0 -160 -128q3 -43 21 -64.5t56 -33.5t102 -17q77 -7 132 -25q36 -12 57 -30q51 -46 51 -131q0 -88 -56 -138.5t-163 -57.5v-65q0 -18 -18 -18
h-31q-18 0 -18 18v64q-157 13 -217 167q-8 21 13 28l28 10q19 8 27 -12q28 -67 70 -97t113 -30q179 0 179 129q-5 45 -21.5 68t-55.5 34q-33 9 -47 11q-17 1 -56 6q-80 7 -132 26q-36 12 -57 30q-51 44 -51 127q0 88 52.5 138.5t154.5 57.5v63q0 18 18 18z" />
    <glyph glyph-name="percent" unicode="%" horiz-adv-x="812" 
d="M36 505v73q0 69 41.5 108t116.5 39q77 0 118 -38.5t41 -108.5v-73q0 -69 -41 -107.5t-118 -38.5q-75 0 -116.5 38.5t-41.5 107.5zM654 710h27q22 0 9 -19l-495 -673q-8 -12 -14.5 -15t-24.5 -3h-23q-11 0 -14 6t3 14l496 673q8 11 14 14t22 3zM296 508v68
q0 45 -26.5 69.5t-75.5 24.5q-48 0 -74.5 -24.5t-26.5 -69.5v-68q0 -45 26.5 -69.5t74.5 -24.5q49 0 75.5 24.5t26.5 69.5zM459 130v74q0 69 41.5 108t116.5 39q77 0 118 -38.5t41 -108.5v-74q0 -69 -41 -107t-118 -38q-75 0 -116.5 38t-41.5 107zM718 134v67q0 45 -26 70
t-75 25t-75 -25t-26 -70v-67q0 -45 26 -70t75 -25t75 25t26 70z" />
    <glyph glyph-name="ampersand" unicode="&#x26;" horiz-adv-x="661" 
d="M106 553q0 69 50 121q50 50 131 50q77 0 127 -49q50 -50 50 -118q0 -67 -36.5 -108.5t-122.5 -79.5l-9 -4l179 -175l69 67q12 12 24 0l23 -24q10 -10 -1 -21l-71 -69l126 -125q18 -18 -8 -18h-42q-17 0 -28 11l-92 90q-76 -70 -125 -92q-52 -23 -111 -23q-84 0 -140 56
q-57 56 -57 139q0 72 38 119t114 83q-88 88 -88 170zM401 557q0 43 -33 76q-34 32 -81 32q-52 0 -84.5 -33t-32.5 -80q0 -50 40 -96q14 -16 42 -45l25 13q70 30 97 57t27 76zM431 148l-193 189q-66 -30 -96.5 -66t-30.5 -91q0 -56 38 -93t93 -37q46 0 87 21q39 19 102 77z
" />
    <glyph glyph-name="quotesingle" unicode="'" horiz-adv-x="184" 
d="M126 694l-9 -204q-1 -10 -4 -13t-14 -3h-18q-11 0 -14 3t-3 13v204q0 10 3.5 13t13.5 3h28q11 0 14.5 -3t2.5 -13z" />
    <glyph glyph-name="parenleft" unicode="(" horiz-adv-x="256" 
d="M60 99v512q0 89 34 143t106 87q15 7 24 -10l13 -26q6 -14 -10 -24q-53 -25 -77 -63t-24 -103v-520q0 -65 24 -103t77 -63q17 -11 10 -24l-13 -26q-9 -17 -24 -10q-72 33 -106 87t-34 143z" />
    <glyph glyph-name="parenright" unicode=")" horiz-adv-x="256" 
d="M25 805l13 26q9 17 24 10q72 -33 106 -87t34 -143v-512q0 -89 -34 -143t-106 -87q-15 -7 -24 10l-13 26q-6 14 10 24q53 25 77 63t24 103v520q0 65 -24 103t-77 63q-16 10 -10 24z" />
    <glyph glyph-name="asterisk" unicode="*" horiz-adv-x="379" 
d="M184 673h21q14 0 11 -12l-8 -105l98 39q11 6 17 -6l6 -20q3 -12 -9 -15l-103 -24l68 -82q11 -8 -1 -16l-18 -12q-10 -9 -16 3l-55 89l-56 -88q-5 -13 -17 -5l-17 13q-11 8 -2 17l69 81l-101 25q-13 1 -9 14l6 21q6 10 16 6l97 -40l-7 105q-3 12 10 12z" />
    <glyph glyph-name="plus" unicode="+" horiz-adv-x="567" 
d="M315 359h185q19 0 19 -20v-24q0 -11 -4 -15t-15 -4h-185v-185q0 -11 -4.5 -15.5t-15.5 -4.5h-24q-11 0 -15.5 4.5t-4.5 15.5v185h-184q-11 0 -15.5 4t-4.5 15v24q0 11 4.5 15.5t15.5 4.5h184v184q0 11 4.5 15.5t15.5 4.5h24q11 0 15.5 -4.5t4.5 -15.5v-184z" />
    <glyph glyph-name="comma" unicode="," horiz-adv-x="181" 
d="M131 59l-57 -162q-4 -18 -22 -18h-13q-15 0 -12 14l34 166q1 22 25 22h26q28 0 19 -22z" />
    <glyph glyph-name="hyphen" unicode="-" horiz-adv-x="422" 
d="M81 298h259q11 0 15.5 -4.5t4.5 -15.5v-25q0 -11 -4.5 -15.5t-15.5 -4.5h-259q-19 0 -19 20v25q0 20 19 20z" />
    <glyph glyph-name="period" unicode="." horiz-adv-x="186" 
d="M90 80h6q23 0 31 -8.5t8 -31.5v-6q0 -23 -8.5 -31.5t-30.5 -8.5h-6q-23 0 -31.5 8.5t-8.5 31.5v6q0 23 8.5 31.5t31.5 8.5z" />
    <glyph glyph-name="slash" unicode="/" horiz-adv-x="408" 
d="M382 694l-274 -737q-8 -17 -24 -17h-33q-18 0 -12 17l273 737q6 16 25 16h33q18 0 12 -16z" />
    <glyph glyph-name="zero" unicode="0" horiz-adv-x="626" 
d="M58 218v274q0 108 67.5 170t187.5 62t187.5 -62t67.5 -170v-274q0 -108 -67.5 -170t-187.5 -62t-187.5 62t-67.5 170zM495 218v274q0 78 -47.5 121.5t-134.5 43.5t-135 -43.5t-48 -121.5v-274q0 -78 48 -121.5t135 -43.5t134.5 43.5t47.5 121.5z" />
    <glyph glyph-name="one" unicode="1" horiz-adv-x="444" 
d="M318 710h27q11 0 15.5 -4.5t4.5 -15.5v-670q0 -11 -4.5 -15.5t-15.5 -4.5h-32q-12 0 -16.5 4.5t-4.5 15.5v602l-211 -117q-19 -10 -29 7l-15 27q-9 16 9 26l244 137q14 8 28 8z" />
    <glyph glyph-name="two" unicode="2" horiz-adv-x="590" 
d="M58 562q69 162 257 162q101 0 166 -62q63 -62 63 -152q0 -110 -71 -166q-40 -32 -79 -51q-40 -19 -111 -48l-22 -8t-21 -8.5t-14 -5.5q-17 -8 -45 -26q-51 -33 -51 -90v-39h388q11 0 15.5 -4.5t4.5 -15.5v-28q0 -11 -4.5 -15.5t-15.5 -4.5h-443q-21 0 -21 20v73
q4 61 25 98t66 65q38 24 54 31q17 8 63 25q103 40 137 64q68 50 69 131q0 64 -43 107t-112 43q-70 0 -114.5 -29t-72.5 -91q-5 -11 -9.5 -13.5t-15.5 1.5l-31 12q-19 7 -12 25z" />
    <glyph glyph-name="three" unicode="3" horiz-adv-x="599" 
d="M535 526q0 -118 -90 -157q112 -40 112 -173q0 -101 -61.5 -155.5t-181.5 -54.5q-109 0 -170.5 42.5t-89.5 131.5q-6 19 12 26l31 11q18 7 26 -13q22 -70 64.5 -100.5t126.5 -30.5q168 0 168 144q0 63 -34.5 98t-99.5 35h-145q-20 0 -20 19v27q0 11 4.5 15.5t15.5 4.5h136
q59 0 91.5 34t32.5 89q0 67 -38 102.5t-113 35.5q-80 0 -121 -29.5t-62 -98.5q-6 -17 -26 -12l-31 11q-18 7 -12 25q27 88 87 129.5t167 41.5t164 -52t57 -146z" />
    <glyph glyph-name="four" unicode="4" horiz-adv-x="610" 
d="M470 258h92q11 0 15.5 -4.5t4.5 -15.5v-25q0 -11 -4.5 -15.5t-15.5 -4.5h-92v-173q0 -11 -4.5 -15.5t-15.5 -4.5h-29q-11 0 -15.5 4.5t-4.5 15.5v173h-356q-11 0 -15.5 4.5t-4.5 15.5v21q0 16 7 24l358 446q11 14 28 14h31q12 0 16.5 -4.5t4.5 -15.5v-440zM401 258v360
l-290 -360h290z" />
    <glyph glyph-name="five" unicode="5" horiz-adv-x="585" 
d="M141 710h363q11 0 15.5 -4.5t4.5 -15.5v-28q0 -11 -4.5 -15.5t-15.5 -4.5h-329l-21 -213h165q111 0 171.5 -59.5t60.5 -157.5q0 -96 -65 -161q-66 -66 -177 -66q-201 0 -260 158q-7 17 11 25l33 12q17 8 25 -13q42 -114 191 -114q74 0 119.5 44.5t45.5 114.5
q0 68 -42 109t-117 41h-216q-25 0 -22 24l30 293q1 18 8.5 24.5t25.5 6.5z" />
    <glyph glyph-name="six" unicode="6" horiz-adv-x="621" 
d="M129 472v-83q96 31 196 31q248 0 248 -217q0 -102 -68.5 -159.5t-189.5 -57.5q-124 0 -191 66t-67 186v234q0 122 66 187t192 65q189 0 248 -153q6 -18 -13 -25l-30 -11q-11 -3 -15.5 -1t-9.5 14q-45 109 -180 109q-91 0 -138.5 -47t-47.5 -138zM129 318v-80
q0 -90 47.5 -137.5t138.5 -47.5q89 0 137.5 39t48.5 111q0 76 -44 112.5t-137 36.5q-114 0 -191 -34z" />
    <glyph glyph-name="seven" unicode="7" horiz-adv-x="519" 
d="M46 710h441q19 0 19 -20v-20q0 -11 -5 -28l-277 -624q-5 -12 -11.5 -15t-25.5 -3h-32q-18 0 -10 20l278 622h-377q-11 0 -15 4.5t-4 15.5v28q0 11 4 15.5t15 4.5z" />
    <glyph glyph-name="eight" unicode="8" horiz-adv-x="616" 
d="M69 538q0 89 63 137.5t175 48.5q118 0 179 -46t61 -135q0 -125 -140 -178q82 -29 121.5 -70.5t39.5 -114.5q0 -93 -64.5 -143.5t-196.5 -50.5q-259 0 -259 183q0 133 162 192q-70 29 -105.5 70t-35.5 107zM476 537q0 61 -43 92.5t-125 31.5q-79 0 -122.5 -32t-43.5 -92
q0 -68 53 -98q40 -23 117 -44l23 -7q41 12 80 35q61 36 61 114zM492 179q6 59 -53 102q-10 8 -41 19l-16.5 6t-16 5t-9.5 3q-4 1 -11 3t-18.5 5t-21.5 6q-5 2 -13 4t-13 3q-158 -42 -158 -159q0 -127 187 -127q184 0 184 130z" />
    <glyph glyph-name="nine" unicode="9" horiz-adv-x="621" 
d="M491 238v83q-92 -31 -195 -31q-248 0 -248 217q0 102 68.5 159.5t189.5 57.5q124 0 191 -66t67 -186v-234q0 -122 -66 -187t-192 -65q-189 0 -248 153q-6 18 13 25l30 11q11 3 15.5 1t9.5 -14q45 -109 180 -109q91 0 138 47t47 138zM491 392v80q0 90 -47.5 137.5
t-137.5 47.5q-89 0 -137.5 -39t-48.5 -111q0 -76 44 -112.5t137 -36.5q118 0 190 34z" />
    <glyph glyph-name="colon" unicode=":" horiz-adv-x="209" 
d="M101 486h6q23 0 31.5 -8.5t8.5 -30.5v-7q0 -22 -8.5 -30.5t-31.5 -8.5h-6q-23 0 -31 8.5t-8 30.5v7q0 23 8 31t31 8zM101 80h6q23 0 31.5 -8.5t8.5 -31.5v-6q0 -22 -8.5 -31t-31.5 -9h-6q-23 0 -31 8.5t-8 31.5v6q0 23 8 31.5t31 8.5z" />
    <glyph glyph-name="semicolon" unicode=";" horiz-adv-x="237" 
d="M126 486h6q23 0 31.5 -8.5t8.5 -30.5v-7q0 -22 -8.5 -30.5t-31.5 -8.5h-6q-23 0 -31 8.5t-8 30.5v7q0 23 8 31t31 8zM159 59l-57 -162q-6 -18 -23 -18h-12q-9 0 -11.5 3t-1.5 11l34 166q2 13 7.5 17.5t18.5 4.5h26q26 0 19 -22z" />
    <glyph glyph-name="less" unicode="&#x3c;" horiz-adv-x="497" 
d="M52 361l362 196q22 10 22 -15v-26q0 -15 -3.5 -21t-16.5 -12l-294 -154v-3l294 -155q13 -6 16.5 -11.5t3.5 -21.5v-28q0 -25 -22 -15l-362 196q-16 9 -16 26v18q0 17 16 26z" />
    <glyph glyph-name="equal" unicode="=" horiz-adv-x="598" 
d="M82 458h433q20 0 20 -19v-26q0 -11 -4.5 -15.5t-15.5 -4.5h-433q-19 0 -19 20v26q0 19 19 19zM82 261h433q11 0 15.5 -4.5t4.5 -15.5v-26q0 -11 -4.5 -15.5t-15.5 -4.5h-433q-19 0 -19 20v26q0 20 19 20z" />
    <glyph glyph-name="greater" unicode="&#x3e;" horiz-adv-x="497" 
d="M61 514v28q0 27 22 15l361 -196q17 -9 17 -25v-19q0 -17 -17 -26l-361 -195q-22 -12 -22 14v26q0 15 3.5 21t15.5 12l295 155v3l-294 154q-13 6 -16.5 11.5t-3.5 21.5z" />
    <glyph glyph-name="question" unicode="?" horiz-adv-x="558" 
d="M39 575q65 165 254 165q109 0 174 -59q64 -58 64 -147q0 -94 -47 -147q-25 -27 -39 -38t-53 -36q-2 -2 -6 -4.5t-5 -2.5q-48 -31 -68.5 -60t-20.5 -72q0 -11 -4 -15t-15 -4h-23q-11 0 -15 4t-4 15q0 64 25.5 102.5t83.5 76.5q34 23 46 32q14 11 35 32q39 40 39 114
q0 64 -45.5 104t-123.5 40q-137 0 -186 -123q-5 -11 -9.5 -13.5t-15.5 1.5l-29 9q-19 7 -12 26zM259 80h6q23 0 31 -8.5t8 -31.5v-6q0 -23 -8.5 -31.5t-30.5 -8.5h-6q-23 0 -31.5 8.5t-8.5 31.5v6q0 23 8.5 31.5t31.5 8.5z" />
    <glyph glyph-name="at" unicode="@" horiz-adv-x="901" 
d="M48 256v72q0 184 106 290q105 106 294 106q193 0 297 -107t104 -289v-72q0 -100 -50 -156q-49 -55 -123 -55q-29 0 -44 9.5t-27 31.5q-85 -36 -183 -36q-86 0 -129.5 42.5t-43.5 122.5v153q0 80 43.5 122.5t129.5 42.5q108 0 178 -30q20 -8 27 -17.5t7 -29.5v-320
q0 -40 42 -40q53 0 86 41t33 118v73q0 160 -90 255q-90 93 -257 93q-162 0 -254 -92q-92 -94 -92 -256v-73q0 -162 90.5 -250t255.5 -88q87 0 215 27q11 3 11 -7v-27q0 -12 -11 -15q-94 -27 -215 -27q-191 0 -295.5 101.5t-104.5 286.5zM559 461q-54 19 -130 19
q-122 0 -122 -114v-150q0 -112 122 -112q86 0 147 31v302q0 16 -17 24z" />
    <glyph glyph-name="A" unicode="A" horiz-adv-x="641" 
d="M369 697l268 -678q7 -19 -14 -19h-29q-32 0 -36 18l-75 190h-313l-75 -190q-3 -11 -10 -14.5t-25 -3.5h-27q-20 0 -13 19l268 677q6 17 25 17h30q20 0 26 -16zM463 268l-120 307q-14 42 -14 69h-5q0 -32 -12 -69l-121 -307h272z" />
    <glyph glyph-name="B" unicode="B" horiz-adv-x="643" 
d="M98 710h282q92 0 142.5 -47t50.5 -135q0 -120 -94 -160v-2q119 -32 119 -175q0 -90 -55.5 -140.5t-151.5 -50.5h-293q-11 0 -15.5 4.5t-4.5 15.5v670q0 11 4.5 15.5t15.5 4.5zM499 519q0 123 -128 123h-221v-248h221q128 0 128 125zM488 101q34 33 34 97t-34 98
q-35 33 -100 33h-238v-261h238q66 0 100 33z" />
    <glyph glyph-name="C" unicode="C" horiz-adv-x="636" 
d="M57 237v236q0 119 71 185t203 66q111 0 175 -42t91 -129q7 -20 -12 -26l-31 -11q-19 -4 -26 12q-21 68 -67 98.5t-130 30.5q-98 0 -149.5 -47.5t-51.5 -135.5v-238q0 -87 52.5 -135t148.5 -48q85 0 131.5 31.5t67.5 100.5q7 18 26 13l31 -12q18 -7 12 -25
q-27 -88 -91.5 -131.5t-176.5 -43.5q-131 0 -202.5 66.5t-71.5 184.5z" />
    <glyph glyph-name="D" unicode="D" horiz-adv-x="653" 
d="M98 710h211q137 0 213.5 -70t76.5 -194v-182q0 -124 -76.5 -194t-213.5 -70h-211q-11 0 -15.5 4.5t-4.5 15.5v670q0 11 4.5 15.5t15.5 4.5zM526 264v182q0 94 -56 145t-161 51h-159v-574h159q105 0 161 51t56 145z" />
    <glyph glyph-name="E" unicode="E" horiz-adv-x="573" 
d="M98 710h405q19 0 19 -20v-28q0 -20 -19 -20h-353v-248h308q19 0 19 -20v-28q0 -20 -19 -20h-308v-258h366q19 0 19 -20v-28q0 -20 -19 -20h-418q-11 0 -15.5 4.5t-4.5 15.5v670q0 11 4.5 15.5t15.5 4.5z" />
    <glyph glyph-name="F" unicode="F" horiz-adv-x="555" 
d="M98 710h405q19 0 19 -20v-28q0 -20 -19 -20h-353v-259h304q11 0 15 -4t4 -15v-28q0 -20 -19 -20h-304v-296q0 -11 -4 -15.5t-15 -4.5h-33q-11 0 -15.5 4.5t-4.5 15.5v670q0 11 4.5 15.5t15.5 4.5z" />
    <glyph glyph-name="G" unicode="G" horiz-adv-x="655" 
d="M342 368h244q11 0 15.5 -4.5t4.5 -15.5v-123q0 -111 -72 -175t-202 -64q-132 0 -203.5 66.5t-71.5 185.5v235q0 119 71 185t203 66q111 0 175 -42t91 -129q7 -20 -12 -26l-31 -11q-19 -4 -26 12q-21 68 -67 98.5t-130 30.5q-98 0 -150 -47.5t-52 -135.5v-236
q0 -88 52.5 -136.5t150.5 -48.5q96 0 149.5 46t53.5 126v75h-193q-11 0 -15.5 4.5t-4.5 15.5v28q0 11 4.5 15.5t15.5 4.5z" />
    <glyph glyph-name="H" unicode="H" horiz-adv-x="681" 
d="M551 710h33q19 0 19 -20v-670q0 -20 -19 -20h-33q-11 0 -15.5 4.5t-4.5 15.5v306h-381v-306q0 -11 -4 -15.5t-15 -4.5h-33q-11 0 -15.5 4.5t-4.5 15.5v670q0 11 4.5 15.5t15.5 4.5h33q11 0 15 -4.5t4 -15.5v-296h381v296q0 11 4.5 15.5t15.5 4.5z" />
    <glyph glyph-name="I" unicode="I" horiz-adv-x="228" 
d="M78 20v670q0 11 4.5 15.5t15.5 4.5h33q11 0 15 -4.5t4 -15.5v-670q0 -11 -4 -15.5t-15 -4.5h-33q-11 0 -15.5 4.5t-4.5 15.5z" />
    <glyph glyph-name="J" unicode="J" horiz-adv-x="570" 
d="M451 710h34q20 0 20 -19v-468q0 -112 -63 -175t-179 -63q-191 0 -236 187q-7 19 12 26l32 11q17 7 25 -13q16 -72 56 -107.5t111 -35.5q81 0 125 44t44 125v469q0 11 4 15t15 4z" />
    <glyph glyph-name="K" unicode="K" horiz-adv-x="609" 
d="M462 267l127 -247q11 -20 -11 -20h-32q-19 0 -26.5 3.5t-13.5 14.5l-111 222q-24 49 -55 68t-88 19h-102v-307q0 -11 -4 -15.5t-15 -4.5h-33q-11 0 -15.5 4.5t-4.5 15.5v670q0 11 4.5 15.5t15.5 4.5h33q11 0 15 -4.5t4 -15.5v-297h96h22l224 300q14 17 40 17h36
q11 0 13.5 -6t-3.5 -13l-237 -312q75 -21 121 -112z" />
    <glyph glyph-name="L" unicode="L" horiz-adv-x="521" 
d="M98 710h33q11 0 15 -4.5t4 -15.5v-622h339q19 0 19 -20v-28q0 -20 -19 -20h-391q-11 0 -15.5 4.5t-4.5 15.5v670q0 11 4.5 15.5t15.5 4.5z" />
    <glyph glyph-name="M" unicode="M" horiz-adv-x="800" 
d="M674 710h29q11 0 15.5 -4.5t4.5 -15.5v-670q0 -11 -4.5 -15.5t-15.5 -4.5h-30q-11 0 -15.5 4.5t-4.5 15.5l1 408q0 92 12 177h-4q-30 -73 -77 -156l-152 -268q-7 -15 -23 -15h-20q-16 0 -24 15l-154 271q-37 61 -73 154h-4q11 -96 11 -179v-407q0 -11 -4.5 -15.5
t-15.5 -4.5h-28q-11 0 -15.5 4.5t-4.5 15.5v670q0 11 4.5 15.5t15.5 4.5h26q19 0 28 -16l248 -439l246 438q6 11 11 14t17 3z" />
    <glyph glyph-name="N" unicode="N" horiz-adv-x="691" 
d="M562 710h31q11 0 15.5 -4.5t4.5 -15.5v-670q0 -11 -4.5 -15.5t-15.5 -4.5h-32q-15 0 -21 11l-319 458q-21 31 -48 84q-20 40 -32 59h-4q0 -8 6 -71q5 -70 5 -106v-415q0 -20 -19 -20h-31q-11 0 -15.5 4.5t-4.5 15.5v670q0 11 4.5 15.5t15.5 4.5h32q14 0 21 -10l311 -449
q25 -37 53 -87q27 -52 36 -64h3q0 10 -6 76q-6 64 -6 110v405q0 19 20 19z" />
    <glyph glyph-name="O" unicode="O" horiz-adv-x="663" 
d="M57 237v236q0 119 71.5 185t203.5 66q131 0 202.5 -66t71.5 -185v-236q0 -119 -71.5 -185t-202.5 -66q-132 0 -203.5 66t-71.5 185zM534 237v236q0 88 -52 136t-150 48t-150.5 -48t-52.5 -136v-236q0 -88 52.5 -136t150.5 -48t150 48t52 136z" />
    <glyph glyph-name="P" unicode="P" horiz-adv-x="622" 
d="M98 710h267q105 0 165.5 -59t60.5 -163t-60.5 -162.5t-165.5 -58.5h-215v-247q0 -11 -4 -15.5t-15 -4.5h-33q-11 0 -15.5 4.5t-4.5 15.5v670q0 11 4.5 15.5t15.5 4.5zM150 334h209q73 0 115 41t42 113t-42 113t-115 41h-209v-308z" />
    <glyph glyph-name="Q" unicode="Q" horiz-adv-x="675" 
d="M548 66l69 -81q12 -14 -2 -28l-22 -18q-15 -14 -28 2l-72 85q-61 -40 -161 -40q-132 0 -203.5 66t-71.5 185v236q0 119 71.5 185t203.5 66q131 0 202.5 -66t71.5 -185v-236q0 -106 -58 -171zM129 473v-236q0 -88 52.5 -136t150.5 -48t150 48t52 136v236q0 88 -52 136
t-150 48t-150.5 -48t-52.5 -136z" />
    <glyph glyph-name="R" unicode="R" horiz-adv-x="644" 
d="M98 710h283q99 0 154.5 -54.5t55.5 -152.5q0 -81 -42.5 -132.5t-118.5 -63.5q40 -18 65 -69l112 -218q14 -20 -10 -20h-33q-32 0 -39 18l-97 193q-24 49 -55 68t-88 19h-135v-278q0 -11 -4 -15.5t-15 -4.5h-33q-11 0 -15.5 4.5t-4.5 15.5v670q0 11 4.5 15.5t15.5 4.5z
M516 503q0 67 -37 103t-105 36h-224v-276h224q67 0 104.5 35.5t37.5 101.5z" />
    <glyph glyph-name="S" unicode="S" horiz-adv-x="626" 
d="M58 519q0 95 68.5 150t189.5 55q101 0 162.5 -36.5t100.5 -117.5q9 -17 -11 -26l-31 -14q-17 -6 -26 9q-30 61 -76 88.5t-119 27.5q-89 0 -136.5 -34t-47.5 -98q3 -46 24.5 -71t65.5 -38q47 -15 117 -22q89 -11 139 -29q36 -13 59 -33q53 -48 53 -134q0 -100 -70.5 -155
t-201.5 -55q-106 0 -170.5 41.5t-100.5 130.5q-6 20 12 27l31 11q17 6 26 -12q55 -130 202 -130q199 0 199 140q-3 45 -22.5 70t-60.5 38q-40 13 -112 20q-33 3 -76 10q-23 4 -69 19q-41 13 -63 33q-56 47 -56 135z" />
    <glyph glyph-name="T" unicode="T" horiz-adv-x="543" 
d="M33 710h477q11 0 15.5 -4.5t4.5 -15.5v-28q0 -11 -4.5 -15.5t-15.5 -4.5h-202v-622q0 -11 -4.5 -15.5t-15.5 -4.5h-33q-11 0 -15.5 4.5t-4.5 15.5v622h-202q-11 0 -15.5 4.5t-4.5 15.5v28q0 11 4.5 15.5t15.5 4.5z" />
    <glyph glyph-name="U" unicode="U" horiz-adv-x="682" 
d="M145 690v-449q0 -90 50 -139t146 -49t146 49t50 139v449q0 11 4.5 15.5t15.5 4.5h33q11 0 15.5 -4.5t4.5 -15.5v-448q0 -121 -69.5 -189t-199.5 -68t-199.5 68t-69.5 189v448q0 11 4.5 15.5t15.5 4.5h33q11 0 15.5 -4.5t4.5 -15.5z" />
    <glyph glyph-name="V" unicode="V" horiz-adv-x="622" 
d="M576 710h29q19 0 13 -19l-258 -674q-8 -17 -26 -17h-30q-19 0 -26 16l-257 675q-7 19 13 19h29q30 0 36 -18l196 -525q8 -23 14 -47q4 -14 10 -33h3q6 19 10 33q10 38 13 47l196 525q5 18 35 18z" />
    <glyph glyph-name="W" unicode="W" horiz-adv-x="881" 
d="M813 710h35q19 0 13 -19l-178 -674q-5 -17 -26 -17h-31q-22 0 -26 16l-133 484q-12 47 -20 98h-4q-4 -39 -20 -97l-135 -484q-5 -17 -25 -17h-32q-21 0 -25 16l-179 675q-4 19 13 19h40q13 0 18.5 -3.5t8.5 -14.5l122 -483q1 -4 11 -60q6 -45 7 -47h4q14 84 21 107
l133 472q5 18 27 18h31q23 0 27 -18l131 -473q7 -21 22 -106h4q11 72 18 105l122 485q2 11 7.5 14.5t18.5 3.5z" />
    <glyph glyph-name="X" unicode="X" horiz-adv-x="617" 
d="M356 361l246 -340q6 -8 4 -14.5t-14 -6.5h-40q-18 0 -25 3t-13 15l-206 287l-203 -287q-7 -12 -13.5 -15t-24.5 -3h-38q-11 0 -13 6.5t4 14.5l244 340l-237 330q-5 7 -2.5 13t12.5 6h40q16 0 23 -3t15 -14l196 -275l197 275q7 11 13.5 14t22.5 3h40q10 0 12.5 -6
t-2.5 -13z" />
    <glyph glyph-name="Y" unicode="Y" horiz-adv-x="627" 
d="M566 710h38q10 0 13 -6t-3 -14l-261 -402v-268q0 -11 -4.5 -15.5t-15.5 -4.5h-33q-11 0 -15.5 4.5t-4.5 15.5v269l-261 401q-6 8 -3 14t13 6h41q18 0 25 -3t13 -15l209 -329l211 329q6 12 13 15t25 3z" />
    <glyph glyph-name="Z" unicode="Z" horiz-adv-x="566" 
d="M57 710h449q11 0 15.5 -4.5t4.5 -15.5v-27q0 -12 -7 -22l-396 -573h393q20 0 20 -19v-29q0 -11 -4.5 -15.5t-15.5 -4.5h-464q-19 0 -19 20v27q0 16 7 23l395 572h-378q-11 0 -15.5 4.5t-4.5 15.5v28q0 11 4.5 15.5t15.5 4.5z" />
    <glyph glyph-name="bracketleft" unicode="[" horiz-adv-x="272" 
d="M85 856h154q11 0 14 -3.5t3 -14.5v-25q0 -11 -3 -14.5t-14 -3.5h-107v-880h107q11 0 14 -3.5t3 -13.5v-26q0 -11 -3 -14.5t-14 -3.5h-154q-11 0 -14.5 3.5t-3.5 14.5v966q0 11 3.5 14.5t14.5 3.5z" />
    <glyph glyph-name="backslash" unicode="\" horiz-adv-x="408" 
d="M312 -43l-274 736q-6 17 12 17h34q16 0 24 -17l274 -736q6 -17 -12 -17h-34q-16 0 -24 17z" />
    <glyph glyph-name="bracketright" unicode="]" horiz-adv-x="272" 
d="M34 856h153q11 0 14.5 -3.5t3.5 -14.5v-966q0 -11 -3.5 -14.5t-14.5 -3.5h-153q-11 0 -14.5 3.5t-3.5 14.5v26q0 11 3.5 14t14.5 3h106v880h-106q-11 0 -14.5 3.5t-3.5 14.5v25q0 11 3.5 14.5t14.5 3.5z" />
    <glyph glyph-name="asciicircum" unicode="^" horiz-adv-x="592" 
d="M302 810h19q5 0 8.5 -1t5 -2.5t5 -5.5t6.5 -7l208 -252q19 -22 -10 -22h-30q-16 0 -22 2.5t-14 13.5l-165 205h-4l-164 -205q-8 -11 -14 -13.5t-22 -2.5h-28q-26 0 -10 22l206 252q13 16 25 16z" />
    <glyph glyph-name="underscore" unicode="_" horiz-adv-x="506" 
d="M46 0h413q11 0 15.5 -4.5t4.5 -15.5v-25q0 -11 -4.5 -15.5t-15.5 -4.5h-413q-19 0 -19 20v25q0 20 19 20z" />
    <glyph glyph-name="grave" unicode="`" horiz-adv-x="257" 
d="M26 706l15 18q11 14 33 1l162 -100q12 -7 2 -20l-10 -12q-8 -8 -23 -1l-176 93q-16 5 -3 21z" />
    <glyph glyph-name="a" unicode="a" horiz-adv-x="512" 
d="M54 424q56 105 201 105q106 0 153 -51t47 -147v-262q0 -26 -7.5 -37t-28.5 -20q-61 -26 -166 -26q-125 0 -170 38q-46 37 -46 117q0 85 50 120t170 35q45 0 131 -10v46q0 68 -31 102.5t-104 34.5q-100 0 -140 -73q-11 -16 -25 -8l-24 10q-19 7 -10 26zM388 87v144
q-90 9 -138 9q-78 0 -111 -23t-33 -75q0 -53 30.5 -76.5t111.5 -23.5q77 0 121 16q12 5 15.5 10t3.5 19z" />
    <glyph glyph-name="b" unicode="b" horiz-adv-x="537" 
d="M82 740h32q18 0 18 -18v-224q92 31 158 31q197 0 197 -196v-142q0 -205 -215 -205q-103 0 -169 30q-24 11 -31.5 21t-7.5 34v651q0 18 18 18zM420 192v139q0 136 -139 136q-71 0 -149 -32v-342q0 -12 3 -16.5t15 -9.5q51 -20 117 -20q153 0 153 145z" />
    <glyph glyph-name="c" unicode="c" horiz-adv-x="515" 
d="M49 183v149q0 94 55.5 145.5t162.5 51.5q169 0 209 -135q6 -19 -12 -26l-26 -9q-18 -6 -25 12q-16 51 -50.5 74.5t-97.5 23.5q-72 0 -110.5 -35.5t-38.5 -99.5v-153q0 -64 39 -100t110 -36q118 0 149 103q7 16 26 12l26 -8q19 -7 12 -26q-47 -140 -215 -140
q-104 0 -159 51.5t-55 145.5z" />
    <glyph glyph-name="d" unicode="d" horiz-adv-x="537" 
d="M50 186v143q0 97 49.5 148.5t147.5 51.5q73 0 158 -29v222q0 18 18 18h31q18 0 18 -18v-652q0 -24 -7.5 -34t-31.5 -20q-71 -30 -173 -30q-210 0 -210 200zM405 92v345q-76 30 -146 30q-142 0 -142 -140v-140q0 -140 149 -140q69 0 120 19q12 5 15.5 9.5t3.5 16.5z" />
    <glyph glyph-name="e" unicode="e" horiz-adv-x="530" 
d="M47 188v130q0 101 57 156t164 55t164.5 -55.5t57.5 -151.5v-55q0 -28 -30 -28h-346v-58q0 -66 39 -101.5t111 -35.5q110 0 157 83q12 16 29 7l21 -11q19 -10 7 -29q-60 -108 -214 -108q-107 0 -162 53t-55 149zM423 291v35q0 69 -40 107t-115 38q-74 0 -114 -38t-40 -107
v-35h309z" />
    <glyph glyph-name="f" unicode="f" horiz-adv-x="353" 
d="M317 740h8q11 0 14.5 -4t3.5 -14v-26q0 -19 -18 -19q-81 0 -112 -29q-31 -28 -31 -109v-25h145q11 0 14.5 -4t3.5 -14v-26q0 -18 -18 -18h-145v-434q0 -18 -18 -18h-31q-18 0 -18 18v434h-89q-18 0 -18 18v26q0 18 18 18h89v25q0 107 46.5 153t155.5 48z" />
    <glyph glyph-name="g" unicode="g" horiz-adv-x="536" 
d="M49 193v131q0 205 216 205q97 0 169 -30q24 -11 31 -21t7 -34v-475q0 -216 -211 -216q-139 0 -198 107q-13 19 7 30l22 11q18 10 29 -7q44 -80 138 -80q146 0 146 152v62q-81 -30 -158 -30q-198 0 -198 195zM386 448q-50 19 -117 19q-152 0 -152 -144v-128
q0 -135 138 -135q72 0 150 29v333q0 12 -3 16.5t-16 9.5z" />
    <glyph glyph-name="h" unicode="h" horiz-adv-x="551" 
d="M85 740h31q18 0 18 -18v-221q60 28 157 28q199 0 199 -196v-315q0 -18 -18 -18h-32q-18 0 -18 18v313q0 136 -140 136q-88 0 -148 -29v-420q0 -18 -18 -18h-31q-11 0 -14.5 4t-3.5 14v704q0 10 3.5 14t14.5 4z" />
    <glyph glyph-name="i" unicode="i" horiz-adv-x="200" 
d="M97 698h6q21 0 29 -8t8 -29v-7q0 -21 -8 -29t-29 -8h-6q-21 0 -29 8t-8 29v7q0 21 8 29t29 8zM84 514h32q18 0 18 -18v-478q0 -18 -18 -18h-32q-18 0 -18 18v478q0 18 18 18z" />
    <glyph glyph-name="j" unicode="j" horiz-adv-x="201" 
d="M98 698h5q22 0 30 -8t8 -29v-7q0 -21 -8 -29t-30 -8h-5q-22 0 -30 8t-8 29v7q0 21 8 29t30 8zM85 514h31q18 0 18 -18v-505q0 -111 -50 -166t-158 -55q-18 0 -18 18v26q0 19 18 19q76 0 108.5 38.5t32.5 120.5v504q0 10 3.5 14t14.5 4z" />
    <glyph glyph-name="k" unicode="k" horiz-adv-x="507" 
d="M393 201l90 -180q11 -21 -11 -21h-30q-15 0 -20.5 3t-10.5 13l-76 156q-28 61 -97 61h-104v-214q0 -11 -4 -15t-15 -4h-29q-11 0 -15 4t-4 15v703q0 11 4 14.5t15 3.5h29q11 0 15 -3.5t4 -14.5v-427h96h9l161 205q7 9 13 11.5t22 2.5h28q27 0 12 -21l-169 -211
q54 -14 87 -81z" />
    <glyph glyph-name="l" unicode="l" horiz-adv-x="207" 
d="M137 722v-704q0 -10 -3.5 -14t-14.5 -4h-31q-18 0 -18 18v704q0 18 18 18h31q11 0 14.5 -4t3.5 -14z" />
    <glyph glyph-name="m" unicode="m" horiz-adv-x="817" 
d="M391 486q93 43 181 43q183 0 183 -190v-321q0 -10 -3.5 -14t-14.5 -4h-31q-18 0 -18 18v318q0 131 -124 131q-72 0 -136 -34q19 -37 19 -94v-321q0 -10 -3.5 -14t-14.5 -4h-31q-18 0 -18 18v318q0 131 -127 131q-57 0 -105 -20q-16 -7 -16 -27v-402q0 -18 -18 -18h-32
q-18 0 -18 18v422q0 23 8 35t30 22q73 32 160 32q85 0 129 -43z" />
    <glyph glyph-name="n" unicode="n" 
d="M102 495q81 34 186 34q199 0 199 -196v-315q0 -18 -18 -18h-31q-18 0 -18 18v313q0 136 -140 136q-73 0 -133 -22q-15 -7 -15 -25v-402q0 -18 -18 -18h-32q-18 0 -18 18v422q0 23 7.5 34t30.5 21z" />
    <glyph glyph-name="o" unicode="o" horiz-adv-x="539" 
d="M50 169v176q0 86 58.5 135t160.5 49q103 0 162 -49t59 -135v-176q0 -86 -59 -134.5t-162 -48.5q-102 0 -160.5 49t-58.5 134zM422 169v176q0 57 -41 90t-112 33q-70 0 -111 -33t-41 -90v-176q0 -57 41.5 -89.5t110.5 -32.5q71 0 112 32.5t41 89.5z" />
    <glyph glyph-name="p" unicode="p" horiz-adv-x="537" 
d="M104 500q75 29 175 29q208 0 208 -200v-144q0 -199 -205 -199q-66 0 -150 34v-222q0 -18 -18 -18h-32q-18 0 -18 18v646q0 24 8 35t32 21zM420 187v140q0 140 -149 140q-69 0 -120 -19q-13 -5 -16 -10t-3 -17v-339q75 -35 145 -35q143 0 143 140z" />
    <glyph glyph-name="q" unicode="q" horiz-adv-x="537" 
d="M265 529q99 0 169 -30q24 -11 31 -21t7 -34v-646q0 -18 -18 -18h-31q-18 0 -18 18v223q-87 -35 -158 -35q-197 0 -197 195v143q0 205 215 205zM117 323v-141q0 -135 139 -135q71 0 149 35v339q0 12 -3.5 17t-16.5 10q-50 19 -116 19q-152 0 -152 -144z" />
    <glyph glyph-name="r" unicode="r" horiz-adv-x="342" 
d="M283 529h31q18 0 18 -18v-26q0 -18 -18 -18h-33q-75 0 -132 -21q-17 -8 -17 -26v-402q0 -18 -18 -18h-32q-18 0 -18 18v424q0 23 8 34.5t30 21.5q79 30 181 31z" />
    <glyph glyph-name="s" unicode="s" horiz-adv-x="496" 
d="M54 379q0 71 51 110.5t146 39.5q156 0 204 -109q11 -18 -9 -26l-25 -11q-16 -7 -25 9q-18 40 -51 58t-93 18q-131 0 -131 -87q3 -36 16.5 -54t44.5 -26q33 -9 90 -14q84 -7 137 -34q58 -31 58 -114q0 -73 -52.5 -113t-152.5 -40q-168 0 -216 124q-8 18 11 24l26 9
q17 5 24 -11q33 -87 153 -87q141 0 141 91q0 46 -32 64.5t-113 27.5q-69 7 -113 21q-32 11 -48 25q-41 36 -41 105z" />
    <glyph glyph-name="t" unicode="t" horiz-adv-x="359" 
d="M136 634h31q11 0 14.5 -4t3.5 -14v-102h145q18 0 18 -18v-26q0 -18 -18 -18h-145v-260q0 -87 30 -114q28 -28 113 -28q18 0 18 -19v-27q0 -18 -18 -18q-118 -2 -163 42q-47 44 -47 162v262h-95q-18 0 -18 18v26q0 18 18 18h95v102q0 18 18 18z" />
    <glyph glyph-name="u" unicode="u" 
d="M435 514h32q18 0 18 -18v-422q0 -23 -7.5 -34t-30.5 -21q-79 -33 -187 -33q-198 0 -198 195v315q0 18 18 18h31q11 0 14.5 -4t3.5 -14v-312q0 -137 140 -137q76 0 130 22q18 7 18 28v399q0 18 18 18z" />
    <glyph glyph-name="v" unicode="v" horiz-adv-x="504" 
d="M452 514h24q13 0 16 -4t-2 -16l-200 -480q-8 -17 -25 -17h-19q-18 0 -26 17l-200 479q-5 13 -2 17t17 4h23q16 0 21.5 -3.5t9.5 -14.5l137 -330l4.5 -13.5l6.5 -19t6 -18.5q6 -21 11 -36h3q5 15 11 36q11 38 16 50l136 331q4 11 10 14.5t22 3.5z" />
    <glyph glyph-name="w" unicode="w" horiz-adv-x="731" 
d="M675 514h20q13 0 16 -4.5t-1 -16.5l-148 -480q-4 -16 -24 -16h-21q-21 0 -25 16l-103 327q-6 21 -12 51l-4 16.5l-3 12.5t-1 5h-3q-2 -7 -8 -35q-6 -31 -12 -50l-103 -327q-4 -16 -24 -16h-21q-20 0 -24 16l-147 480q-4 12 -1 16.5t16 4.5h23q16 0 22.5 -3.5t8.5 -14.5
l91 -310l13 -58l9 -46h3q8 32 11 45q6 34 14 60l96 298q3 11 8 14.5t21 3.5h15q15 0 20 -3.5t9 -14.5l95 -295q6 -17 16 -62q2 -11 4.5 -21.5l4 -17t1.5 -7.5h3q1 4 9 44q10 48 14 62l90 308q3 12 8.5 15t23.5 3z" />
    <glyph glyph-name="x" unicode="x" horiz-adv-x="487" 
d="M430 514h30q26 0 12 -20l-171 -230l182 -244q14 -20 -13 -20h-30q-22 0 -32 15l-150 201l-149 -201q-9 -15 -32 -15h-28q-28 0 -13 20l182 244l-174 230q-14 20 14 20h28q22 0 33 -15l140 -186l140 186q7 10 12 12.5t19 2.5z" />
    <glyph glyph-name="y" unicode="y" horiz-adv-x="551" 
d="M436 514h32q18 0 18 -18v-527q0 -216 -213 -216q-140 0 -199 107q-12 20 7 30l22 11q18 10 29 -7q44 -80 140 -80q146 0 146 152v59q-90 -26 -157 -26q-198 0 -198 195v302q0 18 18 18h31q11 0 14.5 -4t3.5 -14v-299q0 -137 140 -137q64 0 148 27v409q0 18 18 18z" />
    <glyph glyph-name="z" unicode="z" horiz-adv-x="455" 
d="M116 61h291q18 0 18 -18v-25q0 -18 -18 -18h-358q-11 0 -14.5 4t-3.5 14v25q0 13 6 20l297 390h-282q-17 0 -17 18v25q0 18 17 18h350q18 0 18 -18v-25q0 -13 -7 -21z" />
    <glyph glyph-name="braceleft" unicode="{" horiz-adv-x="320" 
d="M241 856h47q18 0 18 -18v-26q0 -18 -18 -18h-45q-65 0 -65 -70v-249q0 -92 -68 -121q68 -26 68 -122v-247q0 -70 65 -70h45q18 0 18 -18v-26q0 -18 -18 -18h-46q-69 0 -99 30.5t-30 97.5v242q0 96 -82 96h-10q-15 0 -15 18v33q0 18 15 18h10q82 0 82 96v243q0 67 30 98
t98 31z" />
    <glyph glyph-name="bar" unicode="|" horiz-adv-x="199" 
d="M85 856h28q11 0 14.5 -4t3.5 -14v-967q0 -11 -3.5 -14.5t-14.5 -3.5h-28q-18 0 -18 18v967q0 18 18 18z" />
    <glyph glyph-name="braceright" unicode="}" horiz-adv-x="320" 
d="M32 856h47q68 0 98 -31t30 -98v-243q0 -96 82 -96h10q15 0 15 -18v-33q0 -18 -15 -18h-10q-82 0 -82 -96v-242q0 -67 -30 -97.5t-99 -30.5h-46q-18 0 -18 18v26q0 18 18 18h45q65 0 65 70v247q0 96 68 122q-68 29 -68 121v249q0 70 -65 70h-45q-18 0 -18 18v26
q0 18 18 18z" />
    <glyph glyph-name="asciitilde" unicode="~" horiz-adv-x="560" 
d="M83 325q53 49 119 49q40 0 95 -20q52 -21 83 -21q45 0 82 34q14 14 26 -1l19 -17q15 -15 0 -28q-55 -49 -120 -49q-41 0 -94 21q-54 20 -83 20q-44 0 -82 -34q-13 -12 -26 1l-19 17q-13 15 0 28z" />
    <glyph glyph-name="exclamdown" unicode="&#xa1;" horiz-adv-x="196" 
d="M101 432h-6q-22 0 -30.5 8.5t-8.5 31.5v6q0 23 8 31.5t31 8.5h6q23 0 31.5 -9t8.5 -31v-6q0 -22 -8.5 -31t-31.5 -9zM116 -228h-35q-18 0 -18 18l8 536q1 18 18 18h18q18 0 18 -18l9 -536q0 -18 -18 -18z" />
    <glyph glyph-name="cent" unicode="&#xa2;" horiz-adv-x="534" 
d="M445 160l27 -8q19 -7 12 -26q-41 -127 -179 -137v-55q0 -18 -18 -18h-32q-18 0 -18 18v54q-89 7 -136 57.5t-47 137.5v149q0 85 47 135.5t136 58.5v66q0 18 18 18h32q18 0 18 -18v-66q139 -10 177 -132q6 -19 -12 -26l-26 -9q-18 -6 -26 12q-15 51 -50 74.5t-98 23.5
q-72 0 -110 -35.5t-38 -99.5v-153q0 -64 38.5 -100t109.5 -36q119 0 150 103q6 16 25 12z" />
    <glyph glyph-name="sterling" unicode="&#xa3;" horiz-adv-x="635" 
d="M138 370v163q0 86 56.5 138.5t159.5 52.5q89 0 144.5 -37t84.5 -117q6 -18 -13 -25l-30 -11q-12 -3 -16 -1.5t-10 13.5q-23 60 -60 85.5t-98 25.5q-69 0 -105.5 -34t-36.5 -93v-160h257q11 0 15.5 -4.5t4.5 -15.5v-24q0 -19 -20 -19h-257v-136q0 -72 -50 -107v-3
q67 7 129 7h268q11 0 15.5 -4.5t4.5 -15.5v-28q0 -11 -4.5 -15.5t-15.5 -4.5h-503q-11 0 -15 4.5t-4 15.5v29q0 16 12 16h17q35 4 52.5 32.5t17.5 72.5v137h-71q-11 0 -15 4t-4 15v24q0 11 4 15.5t15 4.5h71z" />
    <glyph glyph-name="currency" unicode="&#xa4;" horiz-adv-x="601" 
d="M494 203l54 -53q12 -12 0 -26l-22 -21q-14 -14 -26 0l-54 53q-59 -47 -134 -47t-133 46l-53 -54q-14 -14 -26 0l-22 22q-12 13 0 25l54 55q-47 59 -47 133q0 77 46 133l-54 54q-12 14 0 26l22 22q13 13 25 0l54 -54q58 46 134 46t133 -45l53 54q14 12 26 0l22 -22
q12 -12 0 -25l-53 -54q46 -58 46 -135q0 -76 -45 -133zM312 501q-67 0 -116 -47q-47 -47 -49 -117q2 -70 49 -117q48 -49 116 -49q69 0 117 49q48 48 48 117q0 68 -47 117q-49 47 -118 47z" />
    <glyph glyph-name="yen" unicode="&#xa5;" horiz-adv-x="638" 
d="M566 710h34q21 0 10 -20l-224 -340h123q17 0 17 -18v-18q0 -18 -17 -18h-151v-91h151q17 0 17 -18v-18q0 -18 -17 -18h-151v-131q0 -20 -19 -20h-33q-11 0 -15.5 4.5t-4.5 15.5v131h-152q-17 0 -17 18v18q0 18 17 18h152v91h-152q-17 0 -17 18v18q0 18 17 18h126
l-225 340q-6 8 -3 14t13 6h36q18 0 25 -3t13 -15l205 -318l204 318q6 12 13 15t25 3z" />
    <glyph glyph-name="brokenbar" unicode="&#xa6;" horiz-adv-x="208" 
d="M90 856h28q18 0 18 -18v-389q0 -18 -18 -18h-28q-10 0 -14 3.5t-4 14.5v389q0 18 18 18zM90 279h28q18 0 18 -18v-389q0 -18 -18 -18h-28q-18 0 -18 18v389q0 11 4 14.5t14 3.5z" />
    <glyph glyph-name="section" unicode="&#xa7;" horiz-adv-x="596" 
d="M67 545q0 85 60.5 134.5t174.5 49.5q180 0 241 -160q9 -19 -11 -28l-28 -13q-19 -7 -28 11q-45 121 -174 121q-161 0 -161 -115q4 -42 20.5 -63.5t54.5 -32.5q37 -11 99 -18q81 -11 127 -27q33 -12 54 -29q49 -44 49 -118q0 -90 -89 -146q96 -37 96 -149
q0 -85 -63.5 -134.5t-181.5 -49.5q-192 0 -249 166q-7 18 13 26l29 10q19 7 26 -13q42 -121 181 -121q86 0 129.5 30t43.5 85q-3 42 -20.5 63.5t-55.5 32.5t-101 16q-63 7 -112 18q-33 7 -53 18q-36 18 -58.5 52.5t-19.5 83.5q0 100 104 151q-97 40 -97 149zM300 363
q-62 8 -70 10q-96 -36 -96 -119q0 -74 77 -96q38 -11 102 -17q70 -9 74 -9q85 40 85 119q0 61 -54 85q-37 16 -118 27z" />
    <glyph glyph-name="dieresis" unicode="&#xa8;" horiz-adv-x="439" 
d="M116 687h6q19 0 26 -7t7 -25v-8q0 -19 -7 -26t-26 -7h-6q-19 0 -25.5 7t-6.5 26v8q0 18 6.5 25t25.5 7zM310 687h6q19 0 26 -7t7 -25v-8q0 -19 -7 -26t-26 -7h-6q-19 0 -26 7t-7 26v8q0 18 7 25t26 7z" />
    <glyph glyph-name="copyright" unicode="&#xa9;" horiz-adv-x="807" 
d="M45 351q0 151 104 255t256 104q150 0 254 -104q103 -103 103 -255t-103 -255q-104 -104 -254 -104q-151 0 -255 105q-105 103 -105 254zM714 351q0 131 -89 222q-91 89 -220 89q-132 0 -221 -89q-90 -90 -90 -222q0 -131 90 -221q88 -90 221 -90q130 0 220 90
q89 91 89 221zM246 290v115q0 67 40.5 104.5t114.5 37.5q120 0 150 -98q4 -15 -8 -19l-18 -6q-13 -6 -18 9q-11 37 -35 53t-71 16q-107 0 -107 -97v-115q0 -46 27 -71.5t80 -25.5q86 0 107 73q5 14 20 9l15 -6q15 -4 10 -19q-33 -102 -152 -102q-74 0 -114.5 38t-40.5 104z
" />
    <glyph glyph-name="ordfeminine" unicode="&#xaa;" horiz-adv-x="368" 
d="M64 612q40 58 121 58q66 0 95.5 -31t29.5 -93v-125q0 -23 -6.5 -32.5t-25.5 -18.5q-33 -15 -97 -15q-68 0 -98 21.5t-30 66.5q0 47 30 69.5t100 22.5q53 0 74 -4v19q0 39 -17 57t-56 18q-48 0 -78 -40q-8 -8 -19 -3l-15 8q-18 9 -8 22zM257 430v61q-35 5 -77 5
q-75 0 -75 -51q0 -48 73 -48q44 0 63 9q16 6 16 24z" />
    <glyph glyph-name="guillemotleft" unicode="&#xab;" horiz-adv-x="564" 
d="M125 264l167 -167q11 -11 0 -23l-21 -21q-12 -11 -24 0l-198 198q-11 11 0 23l201 201q13 10 23 0l20 -20q11 -12 0 -23zM354 264l167 -167q11 -11 0 -23l-21 -21q-12 -11 -24 0l-198 198q-11 11 0 23l201 201q11 11 23 0l19 -20q11 -11 0 -23z" />
    <glyph glyph-name="logicalnot" unicode="&#xac;" horiz-adv-x="580" 
d="M81 389h417q18 0 18 -18v-213q0 -18 -18 -18h-32q-18 0 -18 18v168h-367q-18 0 -18 18v27q0 18 18 18z" />
    <glyph glyph-name="registered" unicode="&#xae;" horiz-adv-x="481" 
d="M105 379q-58 57 -58 137t58 137q57 57 137 57q79 0 136 -57t57 -137q0 -79 -56 -137q-57 -57 -137 -57t-137 57zM128 631q-48 -47 -48 -115t48 -115q46 -48 115 -48q67 0 113 48q47 49 47 115t-47 115q-47 47 -113 47q-68 0 -115 -47zM174 617h88q33 0 51.5 -17.5
t18.5 -48.5q0 -50 -45 -61l38 -64q8 -11 -7 -11h-14q-9 0 -13 7l-37 65h-61v-65q0 -7 -8 -7h-14q-8 0 -8 7v185q0 10 11 10zM193 588v-74h68q40 0 40 37t-40 37h-68z" />
    <glyph glyph-name="overscore" unicode="&#xaf;" horiz-adv-x="352" 
d="M57 676h236q10 0 13.5 -3.5t3.5 -13.5v-15q0 -10 -3.5 -13.5t-13.5 -3.5h-236q-10 0 -13.5 3.5t-3.5 13.5v15q0 17 17 17z" />
    <glyph glyph-name="degree" unicode="&#xb0;" horiz-adv-x="387" 
d="M345 555q0 -61 -44 -107q-45 -45 -107 -45q-64 0 -107 45q-45 44 -45 107t45 107q44 44 107 44q64 0 107 -43q44 -44 44 -108zM126 623q-28 -28 -28 -67.5t28 -68.5t68 -29t69 29t29 68.5t-29 67.5q-28 28 -68.5 28t-68.5 -28z" />
    <glyph glyph-name="plusminus" unicode="&#xb1;" horiz-adv-x="638" 
d="M350 425h185q11 0 15.5 -4.5t4.5 -15.5v-19q0 -11 -4.5 -15.5t-15.5 -4.5h-185v-112q0 -11 -4.5 -15.5t-15.5 -4.5h-22q-11 0 -15.5 4.5t-4.5 15.5v112h-185q-11 0 -15.5 4.5t-4.5 15.5v19q0 11 4.5 15.5t15.5 4.5h185v116q0 11 4.5 15.5t15.5 4.5h22q11 0 15.5 -4.5
t4.5 -15.5v-116zM103 181h432q11 0 15.5 -4.5t4.5 -15.5v-19q0 -11 -4.5 -15.5t-15.5 -4.5h-432q-11 0 -15.5 4.5t-4.5 15.5v19q0 11 4.5 15.5t15.5 4.5z" />
    <glyph glyph-name="twosuperior" unicode="&#xb2;" horiz-adv-x="355" 
d="M44 711q10 25 25 48q12 19 26 30q37 29 92 29q64 0 100 -33t36 -88q0 -50 -27 -76.5t-90 -47.5l-59 -19q-50 -20 -50 -62v-25h204q18 0 18 -18v-18q0 -17 -18 -17h-240q-19 0 -19 19v39q0 93 80 122l58 23q2 1 13 5t13 5l4 1l8 4q3 1 21 11q25 16 25 52q0 32 -20.5 50.5
t-57.5 18.5q-62 0 -83 -60l-4 -10q-5 -12 -9.5 -14t-15.5 1l-17 5q-21 8 -13 25z" />
    <glyph glyph-name="threesuperior" unicode="&#xb3;" horiz-adv-x="363" 
d="M42 712q31 106 152 106q60 0 94 -30.5t34 -81.5q0 -62 -48 -87q59 -27 59 -100q0 -53 -36 -83t-104 -30q-62 0 -99 25.5t-54 79.5q-6 19 10 25l18 6q18 4 25 -13q12 -39 34 -55t66 -16q40 0 61.5 18t21.5 49q0 28 -16.5 46t-43.5 18h-60q-11 0 -14 3.5t-3 14.5v15
q0 13 3 16t15 3h55q27 0 41.5 16t14.5 43q0 31 -19.5 49t-54.5 18q-78 0 -98 -71q-5 -13 -11 -16t-19 1l-12 5q-18 8 -12 26z" />
    <glyph glyph-name="acute" unicode="&#xb4;" horiz-adv-x="257" 
d="M39 625l161 100q23 13 34 -1l15 -18q13 -16 -3 -21l-176 -93q-16 -7 -24 1l-9 12q-10 13 2 20z" />
    <glyph glyph-name="mu" unicode="&#xb5;" horiz-adv-x="548" 
d="M437 514h31q18 0 18 -18v-422q0 -23 -8 -34.5t-30 -21.5q-82 -33 -172 -33q-105 0 -146 69v-256q0 -18 -18 -18h-31q-18 0 -18 18v698q0 18 18 18h31q18 0 18 -18v-313q0 -137 140 -137q72 0 131 22q18 8 18 28v400q0 10 3.5 14t14.5 4z" />
    <glyph glyph-name="paragraph" unicode="&#xb6;" horiz-adv-x="430" 
d="M182 710h157q11 0 14.5 -4t3.5 -14v-763q0 -11 -3.5 -14.5t-14.5 -3.5h-27q-10 0 -14 3.5t-4 14.5v713h-54v-713q0 -18 -18 -18h-27q-18 0 -18 18v508q-59 2 -96 39.5t-37 96.5q0 61 38 99t100 38z" />
    <glyph glyph-name="middot" unicode="&#xb7;" horiz-adv-x="212" 
d="M103 316h6q22 0 30.5 -8.5t8.5 -31.5v-7q0 -23 -8 -31t-31 -8h-6q-23 0 -31.5 8.5t-8.5 30.5v7q0 22 8.5 31t31.5 9z" />
    <glyph glyph-name="cedilla" unicode="&#xb8;" horiz-adv-x="251" 
d="M153 0l-26 -74q11 3 25 3q40 0 63.5 -22t21.5 -58q-3 -47 -34.5 -71t-84.5 -24q-49 0 -80 19q-12 7 -12 20v19q0 13 10 7q34 -23 74 -23q33 0 51 15t18 41q0 42 -60 42q-21 0 -33 -4q-9 -1 -12 3t1 14l36 93h42z" />
    <glyph glyph-name="onesuperior" unicode="&#xb9;" horiz-adv-x="281" 
d="M202 810h11q11 0 15.5 -4t4.5 -15v-357q0 -11 -4.5 -15.5t-15.5 -4.5h-18q-11 0 -15.5 4.5t-4.5 15.5v304l-110 -61q-18 -9 -28 7l-8 14q-9 18 9 27l140 80q10 5 24 5z" />
    <glyph glyph-name="ordmasculine" unicode="&#xba;" horiz-adv-x="373" 
d="M53 475v75q0 57 35 88.5t98 31.5q65 0 99.5 -31.5t34.5 -88.5v-75q0 -57 -34.5 -88t-99.5 -31q-64 0 -98.5 31.5t-34.5 87.5zM265 473v80q0 32 -20.5 50t-58.5 18q-78 0 -78 -68v-80q0 -68 78 -68q38 0 58.5 18t20.5 50z" />
    <glyph glyph-name="guillemotright" unicode="&#xbb;" horiz-adv-x="564" 
d="M460 264l-168 168q-11 11 0 23l20 20q11 14 23 0l201 -201q11 -12 0 -23l-198 -198q-12 -11 -24 0l-21 21q-12 12 0 23zM231 264l-168 168q-11 12 0 23l20 20q12 11 23 0l201 -201q11 -12 0 -23l-198 -198q-12 -11 -24 0l-21 21q-11 12 0 23z" />
    <glyph glyph-name="onequarter" unicode="&#xbc;" horiz-adv-x="786" 
d="M216 714h11q11 0 15.5 -4.5t4.5 -15.5v-357q0 -19 -20 -19h-18q-20 0 -20 19v305l-110 -61q-18 -11 -27 6l-8 15q-10 16 8 27l140 79q12 6 24 6zM657 710h26q10 0 13 -5.5t-3 -13.5l-494 -673q-9 -12 -15.5 -15t-24.5 -3h-23q-11 0 -14 6t4 14l495 673q7 11 13.5 14
t22.5 3zM663 396h25q11 0 14 -3.5t3 -14.5v-227h40q11 0 14 -3t3 -13v-17q0 -10 -3 -13t-14 -3h-40v-85q0 -10 -3 -13.5t-13 -3.5h-23q-9 0 -12 3.5t-3 13.5v85h-191q-17 0 -17 18v13q0 13 6 21l189 231q8 11 25 11zM651 324l-142 -173h142v173z" />
    <glyph glyph-name="onehalf" unicode="&#xbd;" horiz-adv-x="841" 
d="M214 717h11q20 0 20 -19v-357q0 -11 -4.5 -15.5t-15.5 -4.5h-18q-11 0 -15.5 4.5t-4.5 15.5v304l-110 -61q-17 -10 -28 7l-8 14q-8 17 8 27l141 79q8 6 24 6zM652 710h26q10 0 13 -5.5t-3 -13.5l-494 -673q-9 -12 -15.5 -15t-24.5 -3h-24q-11 0 -13.5 6t4.5 14l494 673
q8 11 14.5 14t22.5 3zM528 297q39 107 143 107q64 0 100 -33.5t36 -87.5q0 -51 -26.5 -76.5t-90.5 -47.5l-59 -20q-50 -17 -50 -62v-24h204q18 0 18 -18v-18q0 -17 -18 -17h-240q-20 0 -20 19v39q0 93 80 122l59 23q2 1 13 5t13 5l4 1l8 4q3 1 21 11q25 16 25 52
q0 32 -20.5 50.5t-57.5 18.5q-22 0 -38.5 -7t-26.5 -20.5t-13 -20t-8 -18.5l-1 -5q-9 -19 -25 -13l-18 6q-19 6 -12 25z" />
    <glyph glyph-name="threequarters" unicode="&#xbe;" horiz-adv-x="823" 
d="M50 619q17 55 53 81t98 26q60 0 94.5 -30.5t34.5 -82.5q0 -61 -48 -86q59 -29 59 -101q0 -53 -36 -82.5t-104 -29.5q-63 0 -99.5 25t-53.5 79q-7 19 10 25l18 6q18 4 25 -13q12 -38 34.5 -54.5t65.5 -16.5q40 0 61.5 18t21.5 49q0 28 -16.5 46.5t-43.5 18.5h-60
q-11 0 -14.5 3t-3.5 14v16q0 12 3.5 15t15.5 3h55q26 0 40.5 16t14.5 44q0 30 -19 48t-54 18q-41 0 -64.5 -17t-34.5 -54q-8 -23 -29 -14l-13 4q-18 8 -11 26zM694 710h26q10 0 13 -5.5t-3 -13.5l-494 -673q-9 -12 -15.5 -15t-24.5 -3h-23q-11 0 -14 6t4 14l495 673
q7 11 13.5 14t22.5 3zM699 396h24q12 0 15 -3.5t3 -14.5v-227h40q11 0 14 -3t3 -13v-17q0 -10 -3 -13t-14 -3h-40v-85q0 -10 -3 -13.5t-13 -3.5h-23q-10 0 -13 3.5t-3 13.5v85h-190q-17 0 -17 18v13q0 13 6 21l188 231q9 11 26 11zM545 151h141v173z" />
    <glyph glyph-name="questiondown" unicode="&#xbf;" horiz-adv-x="553" 
d="M304 432h-6q-22 0 -30.5 8.5t-8.5 31.5v6q0 23 8.5 31.5t30.5 8.5h6q23 0 31.5 -8.5t8.5 -31.5v-6q0 -22 -9 -31t-31 -9zM524 -62q-65 -165 -254 -165q-109 0 -174 59t-65 147q0 68 30 122q9 17 34 42q8 8 14.5 13.5l10.5 9t11 8.5t10 6.5t13.5 8.5t16.5 10q2 1 5.5 3.5
t5.5 3.5q48 31 68.5 60t20.5 72q0 11 4 15t15 4h23q11 0 15 -4t4 -15q0 -64 -25.5 -102.5t-83.5 -76.5q-36 -24 -45 -31q-19 -15 -35 -32q-40 -41 -40 -114q0 -64 45 -104.5t124 -40.5q135 0 186 123q7 19 25 13l28 -10q19 -7 13 -25z" />
    <glyph glyph-name="Agrave" unicode="&#xc0;" horiz-adv-x="641" 
d="M222 873l15 18q12 14 34 1l164 -97q13 -7 1 -20l-9 -11q-6 -9 -23 -1l-179 89q-15 6 -3 21zM369 697l268 -678q7 -19 -14 -19h-29q-32 0 -36 18l-75 190h-313l-75 -190q-3 -11 -10 -14.5t-25 -3.5h-27q-20 0 -13 19l268 677q6 17 25 17h30q20 0 26 -16zM463 268l-120 307
q-14 42 -14 69h-5q0 -32 -12 -69l-121 -307h272z" />
    <glyph glyph-name="Aacute" unicode="&#xc1;" horiz-adv-x="641" 
d="M224 797l162 101q24 11 34 -2l15 -18q12 -15 -3 -21l-176 -93q-18 -6 -24 2l-9 11q-12 13 1 20zM369 697l268 -678q7 -19 -14 -19h-29q-32 0 -36 18l-75 190h-313l-75 -190q-3 -11 -10 -14.5t-25 -3.5h-27q-20 0 -13 19l268 677q6 17 25 17h30q20 0 26 -16zM463 268
l-120 307q-14 42 -14 69h-5q0 -32 -12 -69l-121 -307h272z" />
    <glyph glyph-name="Acircumflex" unicode="&#xc2;" horiz-adv-x="641" 
d="M326 901h8q18 0 34 -16l122 -108q14 -14 -9 -14h-27q-21 0 -30 10l-96 82l-97 -82q-10 -10 -29 -10h-26q-23 0 -9 14l123 108q12 11 17.5 13.5t18.5 2.5zM369 697l268 -678q7 -19 -14 -19h-29q-32 0 -36 18l-75 190h-313l-75 -190q-3 -11 -10 -14.5t-25 -3.5h-27
q-20 0 -13 19l268 677q6 17 25 17h30q20 0 26 -16zM463 268l-120 307q-14 42 -14 69h-5q0 -32 -12 -69l-121 -307h272z" />
    <glyph glyph-name="Atilde" unicode="&#xc3;" horiz-adv-x="641" 
d="M448 882h20q12 0 12 -12q0 -100 -78 -100q-36 0 -79 34q-44 33 -68 33q-40 0 -40 -55q0 -12 -12 -12h-20q-12 0 -12 12q0 100 78 100q33 0 81 -33.5t67 -33.5q40 0 40 55q0 12 11 12zM369 697l268 -678q7 -19 -14 -19h-29q-32 0 -36 18l-75 190h-313l-75 -190
q-3 -11 -10 -14.5t-25 -3.5h-27q-20 0 -13 19l268 677q6 17 25 17h30q20 0 26 -16zM463 268l-120 307q-14 42 -14 69h-5q0 -32 -12 -69l-121 -307h272z" />
    <glyph glyph-name="Adieresis" unicode="&#xc4;" horiz-adv-x="641" 
d="M228 864h6q19 0 26 -7t7 -25v-8q0 -19 -7 -25.5t-26 -6.5h-6q-19 0 -26 6.5t-7 25.5v8q0 18 7 25t26 7zM422 864h6q19 0 26 -7t7 -25v-8q0 -19 -7 -25.5t-26 -6.5h-6q-19 0 -26 6.5t-7 25.5v8q0 18 7 25t26 7zM369 697l268 -678q7 -19 -14 -19h-29q-32 0 -36 18l-75 190
h-313l-75 -190q-3 -11 -10 -14.5t-25 -3.5h-27q-20 0 -13 19l268 677q6 17 25 17h30q20 0 26 -16zM463 268l-120 307q-14 42 -14 69h-5q0 -32 -12 -69l-121 -307h272z" />
    <glyph glyph-name="Aring" unicode="&#xc5;" horiz-adv-x="641" 
d="M220 779q0 48 30 77t80 29q48 0 77.5 -29t29.5 -77q0 -35 -17 -59.5t-47 -33.5l264 -667q7 -19 -14 -19h-29q-32 0 -36 18l-75 190h-313l-75 -190q-3 -11 -10 -14.5t-25 -3.5h-27q-20 0 -13 19l264 668q-64 21 -64 92zM377 732q17 21 18 47t-18 47t-47 18
q-31 0 -49.5 -18t-18.5 -47t18.5 -47t49.5 -18q29 0 47 18zM463 268l-120 307q-14 42 -14 69h-5q0 -32 -12 -69l-121 -307h272z" />
    <glyph glyph-name="AE" unicode="&#xc6;" horiz-adv-x="831" 
d="M501 68h281q19 0 19 -20v-28q0 -20 -19 -20h-332q-11 0 -15.5 4.5t-4.5 15.5v155h-249l-95 -157q-6 -11 -12.5 -14.5t-23.5 -3.5h-31q-20 0 -13 19l414 674q10 17 26 17h323q11 0 15.5 -4.5t4.5 -15.5v-28q0 -11 -4.5 -15.5t-15.5 -4.5h-268v-249h223q11 0 15 -4.5
t4 -15.5v-28q0 -11 -4 -15.5t-15 -4.5h-223v-257zM430 235v354l-213 -354h213z" />
    <glyph glyph-name="Ccedilla" unicode="&#xc7;" horiz-adv-x="636" 
d="M556 198l31 -12q18 -7 12 -25q-28 -87 -88 -129.5t-166 -45.5l-22 -60q11 3 25 3q40 0 63.5 -22t21.5 -58q-3 -47 -34.5 -71t-84.5 -24q-49 0 -80 19q-12 7 -12 20v19q0 13 10 7q34 -23 74 -23q33 0 51 15t18 41q0 42 -60 42q-21 0 -33 -4q-9 -1 -12 3t1 14l32 79
q-117 7 -181.5 73t-64.5 178v236q0 119 71 185t203 66q111 0 175 -42t91 -129q7 -20 -12 -26l-31 -11q-19 -4 -26 12q-21 68 -67 98.5t-130 30.5q-98 0 -149.5 -47.5t-51.5 -135.5v-238q0 -87 52.5 -135t148.5 -48q85 0 131.5 31.5t67.5 100.5q7 18 26 13z" />
    <glyph glyph-name="Egrave" unicode="&#xc8;" horiz-adv-x="573" 
d="M195 873l14 18q12 14 34 1l164 -97q13 -6 2 -20l-9 -11q-8 -8 -24 -1l-179 89q-14 6 -2 21zM98 710h405q19 0 19 -20v-28q0 -20 -19 -20h-353v-248h308q19 0 19 -20v-28q0 -20 -19 -20h-308v-258h366q19 0 19 -20v-28q0 -20 -19 -20h-418q-11 0 -15.5 4.5t-4.5 15.5v670
q0 11 4.5 15.5t15.5 4.5z" />
    <glyph glyph-name="Eacute" unicode="&#xc9;" horiz-adv-x="573" 
d="M197 797l161 101q24 11 34 -2l15 -18q13 -16 -3 -21l-176 -93q-16 -6 -24 2l-9 11q-11 14 2 20zM98 710h405q19 0 19 -20v-28q0 -20 -19 -20h-353v-248h308q19 0 19 -20v-28q0 -20 -19 -20h-308v-258h366q19 0 19 -20v-28q0 -20 -19 -20h-418q-11 0 -15.5 4.5t-4.5 15.5
v670q0 11 4.5 15.5t15.5 4.5z" />
    <glyph glyph-name="Ecircumflex" unicode="&#xca;" horiz-adv-x="573" 
d="M298 901h8q12 0 17.5 -2.5t16.5 -13.5l122 -108q7 -5 4.5 -9.5t-13.5 -4.5h-27q-20 0 -30 10l-95 82l-98 -82q-10 -10 -28 -10h-26q-11 0 -13.5 4.5t4.5 9.5l122 108q12 11 17.5 13.5t18.5 2.5zM98 710h405q19 0 19 -20v-28q0 -20 -19 -20h-353v-248h308q19 0 19 -20v-28
q0 -20 -19 -20h-308v-258h366q19 0 19 -20v-28q0 -20 -19 -20h-418q-11 0 -15.5 4.5t-4.5 15.5v670q0 11 4.5 15.5t15.5 4.5z" />
    <glyph glyph-name="Edieresis" unicode="&#xcb;" horiz-adv-x="573" 
d="M200 864h7q19 0 25.5 -7t6.5 -25v-8q0 -19 -6.5 -25.5t-25.5 -6.5h-7q-18 0 -25 6.5t-7 25.5v8q0 18 7 25t25 7zM395 864h6q18 0 25 -7t7 -25v-8q0 -19 -7 -25.5t-25 -6.5h-6q-20 0 -27 6.5t-7 25.5v8q0 18 7.5 25t26.5 7zM98 710h405q19 0 19 -20v-28q0 -20 -19 -20
h-353v-248h308q19 0 19 -20v-28q0 -20 -19 -20h-308v-258h366q19 0 19 -20v-28q0 -20 -19 -20h-418q-11 0 -15.5 4.5t-4.5 15.5v670q0 11 4.5 15.5t15.5 4.5z" />
    <glyph glyph-name="Igrave" unicode="&#xcc;" horiz-adv-x="228" 
d="M21 873l14 18q12 14 34 1l164 -97q13 -6 2 -20l-9 -11q-8 -8 -24 -1l-179 89q-14 6 -2 21zM90 20v670q0 11 4.5 15.5t15.5 4.5h33q11 0 15.5 -4.5t4.5 -15.5v-670q0 -11 -4.5 -15.5t-15.5 -4.5h-33q-11 0 -15.5 4.5t-4.5 15.5z" />
    <glyph glyph-name="Iacute" unicode="&#xcd;" horiz-adv-x="228" 
d="M22 797l162 101q24 11 34 -2l15 -18q12 -15 -3 -21l-177 -93q-17 -6 -23 2l-9 11q-12 13 1 20zM90 20v670q0 11 4.5 15.5t15.5 4.5h33q11 0 15 -4.5t4 -15.5v-670q0 -11 -4 -15.5t-15 -4.5h-33q-11 0 -15.5 4.5t-4.5 15.5z" />
    <glyph glyph-name="Icircumflex" unicode="&#xce;" horiz-adv-x="228" 
d="M126 901h7q19 0 35 -16l122 -108q14 -14 -9 -14h-27q-21 0 -30 10l-96 82l-97 -82q-10 -10 -29 -10h-26q-23 0 -9 14l123 108q11 11 17 13.5t19 2.5zM92 20v670q0 11 4.5 15.5t15.5 4.5h33q11 0 15 -4.5t4 -15.5v-670q0 -11 -4 -15.5t-15 -4.5h-33q-11 0 -15.5 4.5
t-4.5 15.5z" />
    <glyph glyph-name="Idieresis" unicode="&#xcf;" horiz-adv-x="228" 
d="M14 864h6q19 0 26 -7t7 -25v-8q0 -19 -7 -25.5t-26 -6.5h-6q-19 0 -26 6.5t-7 25.5v8q0 18 7 25t26 7zM208 864h6q19 0 26 -7t7 -25v-8q0 -19 -7 -25.5t-26 -6.5h-6q-19 0 -26 6.5t-7 25.5v8q0 18 7 25t26 7zM78 20v670q0 11 4.5 15.5t15.5 4.5h33q11 0 15 -4.5t4 -15.5
v-670q0 -11 -4 -15.5t-15 -4.5h-33q-11 0 -15.5 4.5t-4.5 15.5z" />
    <glyph glyph-name="Eth" unicode="&#xd0;" horiz-adv-x="664" 
d="M109 710h211q137 0 213.5 -70t76.5 -194v-182q0 -124 -76.5 -194t-213.5 -70h-211q-11 0 -15.5 4.5t-4.5 15.5v316h-73q-14 0 -14 14v21q0 14 14 14h73v305q0 11 4.5 15.5t15.5 4.5zM538 264v182q0 94 -56 145t-161 51h-159v-257h172q13 0 13 -14v-21q0 -14 -13 -14h-172
v-268h159q104 0 160.5 51t56.5 145z" />
    <glyph glyph-name="Ntilde" unicode="&#xd1;" horiz-adv-x="691" 
d="M466 882h20q11 0 11 -12q0 -100 -78 -100q-37 0 -78 34q-43 33 -68 33q-40 0 -40 -55q0 -12 -12 -12h-20q-12 0 -12 12q0 100 78 100q33 0 81 -33.5t67 -33.5q40 0 40 55q0 12 11 12zM562 710h31q11 0 15.5 -4.5t4.5 -15.5v-670q0 -11 -4.5 -15.5t-15.5 -4.5h-32
q-15 0 -21 11l-319 458q-21 31 -48 84q-20 40 -32 59h-4q0 -8 6 -71q5 -70 5 -106v-415q0 -20 -19 -20h-31q-11 0 -15.5 4.5t-4.5 15.5v670q0 11 4.5 15.5t15.5 4.5h32q14 0 21 -10l311 -449q25 -37 53 -87q27 -52 36 -64h3q0 10 -6 76q-6 64 -6 110v405q0 19 20 19z" />
    <glyph glyph-name="Ograve" unicode="&#xd2;" horiz-adv-x="663" 
d="M226 883l15 18q11 14 34 1l164 -97q13 -7 1 -20l-9 -11q-7 -8 -24 -1l-178 89q-15 6 -3 21zM57 237v236q0 119 71.5 185t203.5 66q131 0 202.5 -66t71.5 -185v-236q0 -119 -71.5 -185t-202.5 -66q-132 0 -203.5 66t-71.5 185zM534 237v236q0 88 -52 136t-150 48
t-150.5 -48t-52.5 -136v-236q0 -88 52.5 -136t150.5 -48t150 48t52 136z" />
    <glyph glyph-name="Oacute" unicode="&#xd3;" horiz-adv-x="663" 
d="M228 807l162 101q24 11 34 -2l15 -18q12 -15 -3 -21l-177 -93q-17 -6 -23 2l-9 11q-12 13 1 20zM57 237v236q0 119 71.5 185t203.5 66q131 0 202.5 -66t71.5 -185v-236q0 -119 -71.5 -185t-202.5 -66q-132 0 -203.5 66t-71.5 185zM534 237v236q0 88 -52 136t-150 48
t-150.5 -48t-52.5 -136v-236q0 -88 52.5 -136t150.5 -48t150 48t52 136z" />
    <glyph glyph-name="Ocircumflex" unicode="&#xd4;" horiz-adv-x="663" 
d="M330 911h7q19 0 35 -16l122 -108q14 -14 -9 -14h-27q-21 0 -30 10l-96 82l-97 -82q-10 -10 -29 -10h-26q-23 0 -9 14l123 108q11 11 17 13.5t19 2.5zM57 237v236q0 119 71.5 185t203.5 66q131 0 202.5 -66t71.5 -185v-236q0 -119 -71.5 -185t-202.5 -66q-132 0 -203.5 66
t-71.5 185zM534 237v236q0 88 -52 136t-150 48t-150.5 -48t-52.5 -136v-236q0 -88 52.5 -136t150.5 -48t150 48t52 136z" />
    <glyph glyph-name="Otilde" unicode="&#xd5;" horiz-adv-x="663" 
d="M452 892h20q11 0 11 -12q0 -100 -78 -100q-37 0 -78 34q-43 33 -68 33q-40 0 -40 -55q0 -12 -12 -12h-20q-12 0 -12 12q0 100 78 100q33 0 81 -33.5t67 -33.5q40 0 40 55q0 12 11 12zM57 237v236q0 119 71.5 185t203.5 66q131 0 202.5 -66t71.5 -185v-236
q0 -119 -71.5 -185t-202.5 -66q-132 0 -203.5 66t-71.5 185zM534 237v236q0 88 -52 136t-150 48t-150.5 -48t-52.5 -136v-236q0 -88 52.5 -136t150.5 -48t150 48t52 136z" />
    <glyph glyph-name="Odieresis" unicode="&#xd6;" horiz-adv-x="663" 
d="M232 874h6q19 0 26 -7t7 -25v-8q0 -19 -7 -25.5t-26 -6.5h-6q-19 0 -26 6.5t-7 25.5v8q0 18 7 25t26 7zM426 874h6q19 0 26 -7t7 -25v-8q0 -19 -7 -25.5t-26 -6.5h-6q-19 0 -26 6.5t-7 25.5v8q0 18 7 25t26 7zM57 237v236q0 119 71.5 185t203.5 66q131 0 202.5 -66
t71.5 -185v-236q0 -119 -71.5 -185t-202.5 -66q-132 0 -203.5 66t-71.5 185zM534 237v236q0 88 -52 136t-150 48t-150.5 -48t-52.5 -136v-236q0 -88 52.5 -136t150.5 -48t150 48t52 136z" />
    <glyph glyph-name="multiply" unicode="&#xd7;" horiz-adv-x="507" 
d="M311 324l146 -144q14 -14 0 -28l-16 -16q-13 -13 -28 0l-145 145l-144 -144q-14 -14 -28 0l-15 16q-13 13 0 27l144 144l-144 145q-15 15 0 28l15 16q14 14 28 0l144 -145l145 145q15 13 28 0l16 -16q13 -13 0 -27z" />
    <glyph glyph-name="Oslash" unicode="&#xd8;" horiz-adv-x="663" 
d="M573 751h40q8 0 4 -7l-65 -101q57 -63 57 -170v-236q0 -118 -71.5 -184t-202.5 -67q-104 -1 -174 44l-42 -65q-4 -7 -15 -7h-38q-8 0 -4 7l60 96q-62 65 -62 176v236q0 119 71.5 185t203.5 66q112 0 180 -50l44 70q6 7 14 7zM168 131l308 483q-50 43 -141 43
q-98 0 -150.5 -48t-52.5 -136v-236q0 -65 36 -106zM507 571l-307 -480q50 -38 135 -38q98 0 150 48t52 136v236q0 62 -30 98z" />
    <glyph glyph-name="Ugrave" unicode="&#xd9;" horiz-adv-x="682" 
d="M235 873l15 18q11 14 34 1l164 -97q13 -7 1 -20l-9 -11q-7 -8 -24 -1l-178 89q-15 6 -3 21zM145 690v-449q0 -90 50 -139t146 -49t146 49t50 139v449q0 11 4.5 15.5t15.5 4.5h33q11 0 15.5 -4.5t4.5 -15.5v-448q0 -121 -69.5 -189t-199.5 -68t-199.5 68t-69.5 189v448
q0 11 4.5 15.5t15.5 4.5h33q11 0 15.5 -4.5t4.5 -15.5z" />
    <glyph glyph-name="Uacute" unicode="&#xda;" horiz-adv-x="682" 
d="M237 797l162 101q24 11 34 -2l15 -18q12 -15 -3 -21l-177 -93q-17 -6 -23 2l-9 11q-12 13 1 20zM145 690v-449q0 -90 50 -139t146 -49t146 49t50 139v449q0 11 4.5 15.5t15.5 4.5h33q11 0 15.5 -4.5t4.5 -15.5v-448q0 -121 -69.5 -189t-199.5 -68t-199.5 68t-69.5 189
v448q0 11 4.5 15.5t15.5 4.5h33q11 0 15.5 -4.5t4.5 -15.5z" />
    <glyph glyph-name="Ucircumflex" unicode="&#xdb;" horiz-adv-x="682" 
d="M339 901h7q19 0 35 -16l122 -108q14 -14 -9 -14h-27q-21 0 -30 10l-96 82l-97 -82q-10 -10 -29 -10h-26q-23 0 -9 14l123 108q11 11 17 13.5t19 2.5zM145 690v-449q0 -90 50 -139t146 -49t146 49t50 139v449q0 11 4.5 15.5t15.5 4.5h33q11 0 15.5 -4.5t4.5 -15.5v-448
q0 -121 -69.5 -189t-199.5 -68t-199.5 68t-69.5 189v448q0 11 4.5 15.5t15.5 4.5h33q11 0 15.5 -4.5t4.5 -15.5z" />
    <glyph glyph-name="Udieresis" unicode="&#xdc;" horiz-adv-x="682" 
d="M241 864h6q19 0 26 -7t7 -25v-8q0 -19 -7 -25.5t-26 -6.5h-6q-19 0 -26 6.5t-7 25.5v8q0 18 7 25t26 7zM435 864h6q19 0 26 -7t7 -25v-8q0 -19 -7 -25.5t-26 -6.5h-6q-19 0 -26 6.5t-7 25.5v8q0 18 7 25t26 7zM145 690v-449q0 -90 50 -139t146 -49t146 49t50 139v449
q0 11 4.5 15.5t15.5 4.5h33q11 0 15.5 -4.5t4.5 -15.5v-448q0 -121 -69.5 -189t-199.5 -68t-199.5 68t-69.5 189v448q0 11 4.5 15.5t15.5 4.5h33q11 0 15.5 -4.5t4.5 -15.5z" />
    <glyph glyph-name="Yacute" unicode="&#xdd;" horiz-adv-x="627" 
d="M214 797l162 101q24 11 34 -2l15 -18q12 -15 -3 -21l-177 -93q-17 -6 -23 2l-9 11q-12 13 1 20zM566 710h38q10 0 13 -6t-3 -14l-261 -402v-268q0 -11 -4.5 -15.5t-15.5 -4.5h-33q-11 0 -15.5 4.5t-4.5 15.5v269l-261 401q-6 8 -3 14t13 6h41q18 0 25 -3t13 -15l209 -329
l211 329q6 12 13 15t25 3z" />
    <glyph glyph-name="Thorn" unicode="&#xde;" horiz-adv-x="620" 
d="M150 591h205q108 0 172 -62t64 -170q0 -107 -63.5 -169t-172.5 -62h-205v-108q0 -11 -4 -15.5t-15 -4.5h-33q-11 0 -15.5 4.5t-4.5 15.5v670q0 11 4.5 15.5t15.5 4.5h33q11 0 15 -4.5t4 -15.5v-99zM150 196h199q77 0 122 44t45 119t-45.5 120t-121.5 45h-199v-328z" />
    <glyph glyph-name="germandbls" unicode="&#xdf;" 
d="M67 20v508q0 103 54 162.5t151 59.5q103 0 156.5 -51.5t53.5 -149.5q0 -54 -23 -97t-68 -62v-3q117 -36 117 -182q0 -99 -53.5 -152t-152.5 -53h-81q-11 0 -15.5 4.5t-4.5 15.5v27q0 11 4.5 15.5t15.5 4.5h74q68 0 104 37t36 108q0 64 -35.5 101t-98.5 37h-78
q-19 0 -19 20v26q0 20 19 20h73q55 0 85 36.5t30 90.5q0 140 -139 140q-66 0 -102 -41t-36 -114v-508q0 -11 -4.5 -15.5t-15.5 -4.5h-27q-11 0 -15.5 4.5t-4.5 15.5z" />
    <glyph glyph-name="agrave" unicode="&#xe0;" horiz-adv-x="512" 
d="M148 700l14 18q10 13 34 2l162 -101q13 -6 2 -20l-10 -11q-6 -8 -23 -2l-177 93q-14 6 -2 21zM54 424q56 105 201 105q106 0 153 -51t47 -147v-262q0 -26 -7.5 -37t-28.5 -20q-61 -26 -166 -26q-125 0 -170 38q-46 37 -46 117q0 85 50 120t170 35q45 0 131 -10v46
q0 68 -31 102.5t-104 34.5q-100 0 -140 -73q-11 -16 -25 -8l-24 10q-19 7 -10 26zM388 87v144q-90 9 -138 9q-78 0 -111 -23t-33 -75q0 -53 30.5 -76.5t111.5 -23.5q77 0 121 16q12 5 15.5 10t3.5 19z" />
    <glyph glyph-name="aacute" unicode="&#xe1;" horiz-adv-x="512" 
d="M148 619l162 101q24 11 34 -2l15 -18q13 -16 -3 -21l-176 -93q-16 -6 -24 2l-9 11q-10 13 1 20zM54 424q56 105 201 105q106 0 153 -51t47 -147v-262q0 -26 -7.5 -37t-28.5 -20q-61 -26 -166 -26q-125 0 -170 38q-46 37 -46 117q0 85 50 120t170 35q45 0 131 -10v46
q0 68 -31 102.5t-104 34.5q-100 0 -140 -73q-11 -16 -25 -8l-24 10q-19 7 -10 26zM388 87v144q-90 9 -138 9q-78 0 -111 -23t-33 -75q0 -53 30.5 -76.5t111.5 -23.5q77 0 121 16q12 5 15.5 10t3.5 19z" />
    <glyph glyph-name="acircumflex" unicode="&#xe2;" horiz-adv-x="512" 
d="M250 719h8q17 0 34 -17l122 -107q15 -15 -9 -15h-27q-20 0 -30 10l-96 83l-97 -83q-10 -10 -28 -10h-26q-23 0 -10 15l123 107q12 12 17.5 14.5t18.5 2.5zM54 424q56 105 201 105q106 0 153 -51t47 -147v-262q0 -26 -7.5 -37t-28.5 -20q-61 -26 -166 -26q-125 0 -170 38
q-46 37 -46 117q0 85 50 120t170 35q45 0 131 -10v46q0 68 -31 102.5t-104 34.5q-100 0 -140 -73q-11 -16 -25 -8l-24 10q-19 7 -10 26zM388 87v144q-90 9 -138 9q-78 0 -111 -23t-33 -75q0 -53 30.5 -76.5t111.5 -23.5q77 0 121 16q12 5 15.5 10t3.5 19z" />
    <glyph glyph-name="atilde" unicode="&#xe3;" horiz-adv-x="512" 
d="M372 706h20q12 0 12 -12q0 -100 -78 -100q-36 0 -79 34q-44 33 -68 33q-40 0 -40 -55q0 -12 -11 -12h-20q-12 0 -12 12q0 100 77 100q39 0 82 -33q43 -34 67 -34q39 0 39 55q0 12 11 12zM54 424q56 105 201 105q106 0 153 -51t47 -147v-262q0 -26 -7.5 -37t-28.5 -20
q-61 -26 -166 -26q-125 0 -170 38q-46 37 -46 117q0 85 50 120t170 35q45 0 131 -10v46q0 68 -31 102.5t-104 34.5q-100 0 -140 -73q-11 -16 -25 -8l-24 10q-19 7 -10 26zM388 87v144q-90 9 -138 9q-78 0 -111 -23t-33 -75q0 -53 30.5 -76.5t111.5 -23.5q77 0 121 16
q12 5 15.5 10t3.5 19z" />
    <glyph glyph-name="adieresis" unicode="&#xe4;" horiz-adv-x="512" 
d="M152 687h6q19 0 26 -7t7 -25v-8q0 -19 -7 -26t-26 -7h-6q-19 0 -25.5 7t-6.5 26v8q0 18 6.5 25t25.5 7zM347 687h5q19 0 26 -7t7 -25v-8q0 -19 -7 -26t-26 -7h-5q-19 0 -26.5 7t-7.5 26v8q0 18 7.5 25t26.5 7zM54 424q56 105 201 105q106 0 153 -51t47 -147v-262
q0 -26 -7.5 -37t-28.5 -20q-61 -26 -166 -26q-125 0 -170 38q-46 37 -46 117q0 85 50 120t170 35q45 0 131 -10v46q0 68 -31 102.5t-104 34.5q-100 0 -140 -73q-11 -16 -25 -8l-24 10q-19 7 -10 26zM388 87v144q-90 9 -138 9q-78 0 -111 -23t-33 -75q0 -53 30.5 -76.5
t111.5 -23.5q77 0 121 16q12 5 15.5 10t3.5 19z" />
    <glyph glyph-name="aring" unicode="&#xe5;" horiz-adv-x="512" 
d="M182 610q-28 27 -28 71t28 71t74 27q45 0 72 -27t27 -71t-27 -71t-72 -27q-46 0 -74 27zM302 635q17 17 17 46t-17 46q-19 17 -46 17q-31 0 -48.5 -17t-17.5 -46t17.5 -46t48.5 -17q27 0 46 17zM54 424q56 105 201 105q106 0 153 -51t47 -147v-262q0 -26 -7.5 -37
t-28.5 -20q-61 -26 -166 -26q-125 0 -170 38q-46 37 -46 117q0 85 50 120t170 35q45 0 131 -10v46q0 68 -31 102.5t-104 34.5q-100 0 -140 -73q-11 -16 -25 -8l-24 10q-19 7 -10 26zM388 87v144q-90 9 -138 9q-78 0 -111 -23t-33 -75q0 -53 30.5 -76.5t111.5 -23.5
q77 0 121 16q12 5 15.5 10t3.5 19z" />
    <glyph glyph-name="ae" unicode="&#xe6;" horiz-adv-x="788" 
d="M55 424q55 105 182 105q115 0 151 -87q44 87 161 87q99 0 148.5 -54t49.5 -152v-56q0 -28 -30 -28h-299v-59q0 -136 128 -136q50 0 78.5 19t53.5 63q12 16 30 7l20 -12q20 -9 7 -28q-30 -56 -73.5 -81.5t-115.5 -25.5q-100 0 -144 60q-52 -60 -166 -60t-155 37
q-43 36 -43 116q0 86 45.5 120.5t156.5 34.5q56 0 110 -9v55q0 66 -25 97.5t-90 31.5q-80 0 -121 -72q-10 -15 -25 -9l-24 10q-19 9 -10 26zM680 291v36q0 144 -131 144t-131 -144v-36h262zM350 163v66q-64 10 -118 10q-70 0 -98 -22.5t-28 -76.5q0 -53 27 -75.5t97 -22.5
q102 0 127 55q-7 27 -7 66z" />
    <glyph glyph-name="ccedilla" unicode="&#xe7;" horiz-adv-x="514" 
d="M440 160l26 -8q19 -7 12 -26q-40 -130 -190 -139l-23 -61q11 3 26 3q40 0 63.5 -22t21.5 -58q-3 -47 -34.5 -71t-84.5 -24q-49 0 -80 19q-12 7 -12 20v19q0 13 10 7q34 -23 74 -23q33 0 51 15t18 41q0 42 -60 42q-21 0 -33 -4q-10 -1 -12.5 3t1.5 14l32 79
q-96 4 -146.5 55.5t-50.5 141.5v149q0 94 55.5 145.5t162.5 51.5q169 0 209 -135q6 -19 -12 -26l-26 -9q-18 -6 -25 12q-16 51 -50.5 74.5t-97.5 23.5q-72 0 -110.5 -35.5t-38.5 -99.5v-153q0 -64 39 -100t110 -36q118 0 149 103q7 16 26 12z" />
    <glyph glyph-name="egrave" unicode="&#xe8;" horiz-adv-x="530" 
d="M164 701l14 18q12 14 34 1l162 -100q12 -7 2 -20l-10 -12q-8 -8 -23 -1l-177 92q-14 8 -2 22zM47 188v130q0 101 57 156t164 55t164.5 -55.5t57.5 -151.5v-55q0 -28 -30 -28h-346v-58q0 -66 39 -101.5t111 -35.5q110 0 157 83q12 16 29 7l21 -11q19 -10 7 -29
q-60 -108 -214 -108q-107 0 -162 53t-55 149zM423 291v35q0 69 -40 107t-115 38q-74 0 -114 -38t-40 -107v-35h309z" />
    <glyph glyph-name="eacute" unicode="&#xe9;" horiz-adv-x="530" 
d="M164 620l162 100q22 12 34 -1l15 -18q5 -6 6.5 -9.5t-0.5 -6.5t-9 -6l-176 -92q-16 -7 -24 1l-9 12q-10 12 1 20zM47 188v130q0 101 57 156t164 55t164.5 -55.5t57.5 -151.5v-55q0 -28 -30 -28h-346v-58q0 -66 39 -101.5t111 -35.5q110 0 157 83q12 16 29 7l21 -11
q19 -10 7 -29q-60 -108 -214 -108q-107 0 -162 53t-55 149zM423 291v35q0 69 -40 107t-115 38q-74 0 -114 -38t-40 -107v-35h309z" />
    <glyph glyph-name="ecircumflex" unicode="&#xea;" horiz-adv-x="530" 
d="M266 715h8q17 0 33 -16l120 -105q13 -15 -9 -15h-27q-19 0 -29 10l-94 81l-95 -81q-10 -10 -28 -10h-25q-22 0 -9 15l120 105q11 11 16.5 13.5t18.5 2.5zM47 188v130q0 101 57 156t164 55t164.5 -55.5t57.5 -151.5v-55q0 -28 -30 -28h-346v-58q0 -66 39 -101.5t111 -35.5
q110 0 157 83q12 16 29 7l21 -11q19 -10 7 -29q-60 -108 -214 -108q-107 0 -162 53t-55 149zM423 291v35q0 69 -40 107t-115 38q-74 0 -114 -38t-40 -107v-35h309z" />
    <glyph glyph-name="edieresis" unicode="&#xeb;" horiz-adv-x="530" 
d="M168 688h6q19 0 26 -7.5t7 -25.5v-8q0 -18 -7 -25t-26 -7h-6q-19 0 -25.5 7t-6.5 25v8q0 18 7 25.5t25 7.5zM363 688h5q19 0 26 -7.5t7 -25.5v-8q0 -18 -7 -25t-26 -7h-5q-19 0 -26.5 7t-7.5 25v8q0 18 7.5 25.5t26.5 7.5zM47 188v130q0 101 57 156t164 55t164.5 -55.5
t57.5 -151.5v-55q0 -28 -30 -28h-346v-58q0 -66 39 -101.5t111 -35.5q110 0 157 83q12 16 29 7l21 -11q19 -10 7 -29q-60 -108 -214 -108q-107 0 -162 53t-55 149zM423 291v35q0 69 -40 107t-115 38q-74 0 -114 -38t-40 -107v-35h309z" />
    <glyph glyph-name="igrave" unicode="&#xec;" horiz-adv-x="199" 
d="M25 697l15 18q11 15 33 2l130 -98q13 -8 2 -20l-9 -11q-4 -9 -23 -1l-145 89q-15 6 -3 21zM96 514h32q18 0 18 -18v-478q0 -18 -18 -18h-32q-18 0 -18 18v478q0 18 18 18z" />
    <glyph glyph-name="iacute" unicode="&#xed;" horiz-adv-x="199" 
d="M21 619l130 98q22 13 33 -2l15 -18q12 -15 -4 -21l-144 -90q-18 -8 -24 1l-8 11q-10 13 2 21zM94 514h31q11 0 14.5 -4t3.5 -14v-478q0 -10 -3.5 -14t-14.5 -4h-31q-18 0 -18 18v478q0 18 18 18z" />
    <glyph glyph-name="icircumflex" unicode="&#xee;" horiz-adv-x="199" 
d="M148 700l92 -101q12 -14 -9 -14h-24q-23 0 -30 10l-67 77l-69 -77q-6 -10 -28 -10h-23q-21 0 -10 14l93 101q10 11 15.5 13.5t19.5 2.5h7q12 0 18 -2.5t15 -13.5zM95 514h31q11 0 14.5 -4t3.5 -14v-478q0 -10 -3.5 -14t-14.5 -4h-31q-18 0 -18 18v478q0 18 18 18z" />
    <glyph glyph-name="idieresis" unicode="&#xef;" horiz-adv-x="199" 
d="M21 698h6q19 0 26 -7t7 -25v-8q0 -19 -7 -25.5t-26 -6.5h-6q-19 0 -26 6.5t-7 25.5v8q0 18 7 25t26 7zM172 698h6q18 0 25.5 -7t7.5 -25v-8q0 -18 -7.5 -25t-25.5 -7h-6q-20 0 -27 6.5t-7 25.5v8q0 18 7.5 25t26.5 7zM84 514h31q11 0 14.5 -4t3.5 -14v-478
q0 -10 -3.5 -14t-14.5 -4h-31q-18 0 -18 18v478q0 18 18 18z" />
    <glyph glyph-name="eth" unicode="&#xf0;" horiz-adv-x="551" 
d="M365 693l51 54q6 7 15 0l18 -13q8 -8 1 -15l-48 -51q88 -79 88 -269v-220q0 -93 -56.5 -143t-163.5 -50q-108 0 -165 50t-57 143v131q0 91 55 143t154 52q129 0 169 -79q-3 134 -68 193l-66 -70q-7 -7 -15 -1l-17 13q-8 8 -1 15l62 66q-62 38 -175 38q-11 0 -15 3.5
t-4 13.5l-1 26q0 19 18 19q141 0 221 -49zM423 180v131q0 64 -39.5 98.5t-113.5 34.5q-75 0 -114.5 -35t-39.5 -99v-130q0 -64 39.5 -98.5t114.5 -34.5q74 0 113.5 34.5t39.5 98.5z" />
    <glyph glyph-name="ntilde" unicode="&#xf1;" 
d="M394 706h19q12 0 12 -12q0 -99 -78 -99q-36 0 -79 34q-43 33 -68 33q-40 0 -40 -55q0 -12 -11 -12h-20q-12 0 -12 12q0 99 78 99q33 0 81 -33.5t67 -33.5q39 0 39 55q0 12 12 12zM102 495q81 34 186 34q199 0 199 -196v-315q0 -18 -18 -18h-31q-18 0 -18 18v313
q0 136 -140 136q-73 0 -133 -22q-15 -7 -15 -25v-402q0 -18 -18 -18h-32q-18 0 -18 18v422q0 23 7.5 34t30.5 21z" />
    <glyph glyph-name="ograve" unicode="&#xf2;" horiz-adv-x="539" 
d="M164 700l15 18q10 13 34 2l162 -101q13 -7 1 -20l-9 -11q-6 -8 -24 -2l-176 93q-15 6 -3 21zM50 169v176q0 86 58.5 135t160.5 49q103 0 162 -49t59 -135v-176q0 -86 -59 -134.5t-162 -48.5q-102 0 -160.5 49t-58.5 134zM422 169v176q0 57 -41 90t-112 33q-70 0 -111 -33
t-41 -90v-176q0 -57 41.5 -89.5t110.5 -32.5q71 0 112 32.5t41 89.5z" />
    <glyph glyph-name="oacute" unicode="&#xf3;" horiz-adv-x="539" 
d="M165 619l162 101q24 11 34 -2l15 -18q12 -15 -3 -21l-176 -93q-18 -6 -24 2l-9 11q-12 13 1 20zM50 169v176q0 86 58.5 135t160.5 49q103 0 162 -49t59 -135v-176q0 -86 -59 -134.5t-162 -48.5q-102 0 -160.5 49t-58.5 134zM422 169v176q0 57 -41 90t-112 33
q-70 0 -111 -33t-41 -90v-176q0 -57 41.5 -89.5t110.5 -32.5q71 0 112 32.5t41 89.5z" />
    <glyph glyph-name="ocircumflex" unicode="&#xf4;" horiz-adv-x="539" 
d="M267 714h7q12 0 17.5 -2.5t16.5 -13.5l119 -105q14 -14 -9 -14h-26q-20 0 -29 10l-94 80l-95 -80q-10 -10 -28 -10h-26q-11 0 -12.5 4.5t4.5 9.5l120 105q11 11 16.5 13.5t18.5 2.5zM50 169v176q0 86 58.5 135t160.5 49q103 0 162 -49t59 -135v-176q0 -86 -59 -134.5
t-162 -48.5q-102 0 -160.5 49t-58.5 134zM422 169v176q0 57 -41 90t-112 33q-70 0 -111 -33t-41 -90v-176q0 -57 41.5 -89.5t110.5 -32.5q71 0 112 32.5t41 89.5z" />
    <glyph glyph-name="otilde" unicode="&#xf5;" horiz-adv-x="539" 
d="M389 706h20q12 0 12 -12q0 -100 -78 -100q-36 0 -79 34q-43 33 -68 33q-40 0 -40 -55q0 -12 -12 -12h-20q-12 0 -12 12q0 100 78 100q33 0 81 -33.5t67 -33.5q40 0 40 55q0 12 11 12zM50 169v176q0 86 58.5 135t160.5 49q103 0 162 -49t59 -135v-176q0 -86 -59 -134.5
t-162 -48.5q-102 0 -160.5 49t-58.5 134zM422 169v176q0 57 -41 90t-112 33q-70 0 -111 -33t-41 -90v-176q0 -57 41.5 -89.5t110.5 -32.5q71 0 112 32.5t41 89.5z" />
    <glyph glyph-name="odieresis" unicode="&#xf6;" horiz-adv-x="539" 
d="M169 687h6q19 0 26 -7t7 -25v-8q0 -19 -7 -26t-26 -7h-6q-19 0 -26 7t-7 26v8q0 18 7 25t26 7zM363 687h6q19 0 26 -7t7 -25v-8q0 -19 -7 -26t-26 -7h-6q-19 0 -26 7t-7 26v8q0 18 7 25t26 7zM50 169v176q0 86 58.5 135t160.5 49q103 0 162 -49t59 -135v-176
q0 -86 -59 -134.5t-162 -48.5q-102 0 -160.5 49t-58.5 134zM422 169v176q0 57 -41 90t-112 33q-70 0 -111 -33t-41 -90v-176q0 -57 41.5 -89.5t110.5 -32.5q71 0 112 32.5t41 89.5z" />
    <glyph glyph-name="divide" unicode="&#xf7;" horiz-adv-x="578" 
d="M286 564h6q22 0 31 -9t9 -31v-7q0 -22 -8.5 -30.5t-31.5 -8.5h-6q-22 0 -30.5 8t-8.5 31v7q0 23 8.5 31.5t30.5 8.5zM73 357h432q11 0 15 -4.5t4 -15.5v-25q0 -11 -4 -15.5t-15 -4.5h-432q-19 0 -19 20v25q0 20 19 20zM286 173h6q23 0 31.5 -8.5t8.5 -30.5v-7
q0 -23 -9 -31.5t-31 -8.5h-6q-23 0 -31 8.5t-8 31.5v7q0 22 8.5 30.5t30.5 8.5z" />
    <glyph glyph-name="oslash" unicode="&#xf8;" horiz-adv-x="539" 
d="M443 552h29q7 0 3 -7l-42 -67q57 -49 57 -133v-176q0 -86 -59 -134.5t-162 -48.5q-77 0 -130 29l-27 -44q-4 -6 -14 -6h-28q-4 0 -4.5 2.5t1.5 4.5l40 64q-57 50 -57 133v176q0 86 58.5 135t160.5 49q77 0 131 -30l30 47q5 6 13 6zM147 99l219 346q-41 23 -97 23
q-70 0 -111 -33t-41 -90v-176q0 -43 30 -70zM393 415l-219 -345q38 -23 95 -23q71 0 112 32.5t41 89.5v176q0 43 -29 70z" />
    <glyph glyph-name="ugrave" unicode="&#xf9;" 
d="M168 700l15 18q10 13 34 2l162 -101q13 -7 1 -20l-9 -11q-6 -8 -24 -2l-176 93q-15 6 -3 21zM435 514h32q18 0 18 -18v-422q0 -23 -7.5 -34t-30.5 -21q-79 -33 -187 -33q-198 0 -198 195v315q0 18 18 18h31q11 0 14.5 -4t3.5 -14v-312q0 -137 140 -137q76 0 130 22
q18 7 18 28v399q0 18 18 18z" />
    <glyph glyph-name="uacute" unicode="&#xfa;" 
d="M169 619l162 101q24 11 34 -2l15 -18q12 -15 -3 -21l-176 -93q-18 -6 -24 2l-9 11q-12 13 1 20zM435 514h32q18 0 18 -18v-422q0 -23 -7.5 -34t-30.5 -21q-79 -33 -187 -33q-198 0 -198 195v315q0 18 18 18h31q11 0 14.5 -4t3.5 -14v-312q0 -137 140 -137q76 0 130 22
q18 7 18 28v399q0 18 18 18z" />
    <glyph glyph-name="ucircumflex" unicode="&#xfb;" 
d="M271 719h8q17 0 34 -17l122 -107q13 -15 -9 -15h-27q-21 0 -30 10l-96 83l-97 -83q-10 -10 -29 -10h-26q-23 0 -9 15l123 107q12 12 17.5 14.5t18.5 2.5zM435 514h32q18 0 18 -18v-422q0 -23 -7.5 -34t-30.5 -21q-79 -33 -187 -33q-198 0 -198 195v315q0 18 18 18h31
q11 0 14.5 -4t3.5 -14v-312q0 -137 140 -137q76 0 130 22q18 7 18 28v399q0 18 18 18z" />
    <glyph glyph-name="udieresis" unicode="&#xfc;" 
d="M173 687h6q19 0 26 -7t7 -25v-8q0 -19 -7 -26t-26 -7h-6q-19 0 -26 7t-7 26v8q0 18 7 25t26 7zM367 687h6q19 0 26 -7t7 -25v-8q0 -19 -7 -26t-26 -7h-6q-19 0 -26 7t-7 26v8q0 18 7 25t26 7zM435 514h32q18 0 18 -18v-422q0 -23 -7.5 -34t-30.5 -21q-79 -33 -187 -33
q-198 0 -198 195v315q0 18 18 18h31q11 0 14.5 -4t3.5 -14v-312q0 -137 140 -137q76 0 130 22q18 7 18 28v399q0 18 18 18z" />
    <glyph glyph-name="yacute" unicode="&#xfd;" horiz-adv-x="551" 
d="M170 619l162 101q24 11 34 -2l15 -18q12 -15 -3 -21l-176 -93q-18 -6 -24 2l-9 11q-12 13 1 20zM436 514h32q18 0 18 -18v-527q0 -216 -213 -216q-140 0 -199 107q-12 20 7 30l22 11q18 10 29 -7q44 -80 140 -80q146 0 146 152v59q-90 -26 -157 -26q-198 0 -198 195v302
q0 18 18 18h31q11 0 14.5 -4t3.5 -14v-299q0 -137 140 -137q64 0 148 27v409q0 18 18 18z" />
    <glyph glyph-name="thorn" unicode="&#xfe;" horiz-adv-x="539" 
d="M67 -202v924q0 18 18 18h31q18 0 18 -18v-226q77 28 148 28q208 0 208 -200v-140q0 -199 -206 -199q-69 0 -150 35v-222q0 -18 -18 -18h-31q-11 0 -14.5 4t-3.5 14zM422 186v136q0 140 -149 140q-63 0 -139 -30v-351q85 -35 146 -35q142 0 142 140z" />
    <glyph glyph-name="ydieresis" unicode="&#xff;" horiz-adv-x="551" 
d="M174 687h6q19 0 26 -7t7 -25v-8q0 -19 -7 -26t-26 -7h-6q-19 0 -26 7t-7 26v8q0 18 7 25t26 7zM368 687h6q19 0 26 -7t7 -25v-8q0 -19 -7 -26t-26 -7h-6q-19 0 -26 7t-7 26v8q0 18 7 25t26 7zM436 514h32q18 0 18 -18v-527q0 -216 -213 -216q-140 0 -199 107q-12 20 7 30
l22 11q18 10 29 -7q44 -80 140 -80q146 0 146 152v59q-90 -26 -157 -26q-198 0 -198 195v302q0 18 18 18h31q11 0 14.5 -4t3.5 -14v-299q0 -137 140 -137q64 0 148 27v409q0 18 18 18z" />
    <glyph glyph-name="Amacron" unicode="&#x100;" horiz-adv-x="641" 
d="M210 850h236q10 0 13.5 -3.5t3.5 -13.5v-16q0 -10 -3.5 -13.5t-13.5 -3.5h-236q-10 0 -13.5 3.5t-3.5 13.5v16q0 17 17 17zM369 697l268 -678q7 -19 -14 -19h-29q-32 0 -36 18l-75 190h-313l-75 -190q-3 -11 -10 -14.5t-25 -3.5h-27q-20 0 -13 19l268 677q6 17 25 17h30
q20 0 26 -16zM463 268l-120 307q-14 42 -14 69h-5q0 -32 -12 -69l-121 -307h272z" />
    <glyph glyph-name="amacron" unicode="&#x101;" horiz-adv-x="512" 
d="M135 671h235q10 0 13.5 -3.5t3.5 -13.5v-16q0 -10 -3.5 -13.5t-13.5 -3.5h-235q-10 0 -13.5 3.5t-3.5 13.5v16q0 17 17 17zM54 424q56 105 201 105q106 0 153 -51t47 -147v-262q0 -26 -7.5 -37t-28.5 -20q-61 -26 -166 -26q-125 0 -170 38q-46 37 -46 117q0 85 50 120
t170 35q45 0 131 -10v46q0 68 -31 102.5t-104 34.5q-100 0 -140 -73q-11 -16 -25 -8l-24 10q-19 7 -10 26zM388 87v144q-90 9 -138 9q-78 0 -111 -23t-33 -75q0 -53 30.5 -76.5t111.5 -23.5q77 0 121 16q12 5 15.5 10t3.5 19z" />
    <glyph glyph-name="Abreve" unicode="&#x102;" horiz-adv-x="641" 
d="M480 871q-33 -108 -152 -108q-118 0 -151 108q-4 13 8 18l24 9q14 5 19 -7q21 -78 100 -78t101 78q5 12 16 7l27 -9q12 -5 8 -18zM369 697l268 -678q7 -19 -14 -19h-29q-32 0 -36 18l-75 190h-313l-75 -190q-3 -11 -10 -14.5t-25 -3.5h-27q-20 0 -13 19l268 677
q6 17 25 17h30q20 0 26 -16zM463 268l-120 307q-14 42 -14 69h-5q0 -32 -12 -69l-121 -307h272z" />
    <glyph glyph-name="abreve" unicode="&#x103;" horiz-adv-x="512" 
d="M404 692q-31 -109 -152 -109q-118 0 -151 109q-5 11 9 17l24 9q13 4 18 -7q23 -77 100 -77q78 0 101 77q5 11 16 8l27 -10q13 -6 8 -17zM54 424q56 105 201 105q106 0 153 -51t47 -147v-262q0 -26 -7.5 -37t-28.5 -20q-61 -26 -166 -26q-125 0 -170 38q-46 37 -46 117
q0 85 50 120t170 35q45 0 131 -10v46q0 68 -31 102.5t-104 34.5q-100 0 -140 -73q-11 -16 -25 -8l-24 10q-19 7 -10 26zM388 87v144q-90 9 -138 9q-78 0 -111 -23t-33 -75q0 -53 30.5 -76.5t111.5 -23.5q77 0 121 16q12 5 15.5 10t3.5 19z" />
    <glyph glyph-name="Aogonek" unicode="&#x104;" horiz-adv-x="640" 
d="M313 713h31q21 0 25 -16l267 -677q6 -12 -1 -19q-53 -45 -77 -92q-26 -50 -17 -76q11 -29 38 -29q30 0 52 22q9 8 12 -3l8 -20q5 -9 -2 -14q-36 -36 -90 -36q-63 0 -76 52q-12 42 14.5 95t85.5 103q-21 1 -26 18l-75 192h-309l-77 -195q-6 -18 -36 -18h-26q-21 0 -14 19
l268 677q6 17 25 17zM460 274l-75 198q-10 28 -31 96q-18 58 -24 75h-5q-7 -17 -24 -75q-14 -50 -31 -95l-76 -199h266z" />
    <glyph glyph-name="aogonek" unicode="&#x105;" horiz-adv-x="515" 
d="M54 424q56 105 201 105q106 0 153 -51t47 -147v-262q0 -32 -12 -44q-53 -50 -80 -109q-26 -56 -16 -83q9 -28 39 -28q29 0 51 22q7 6 12 -3l8 -21q5 -7 -2 -14q-37 -36 -89 -36q-65 0 -77 52q-12 38 10.5 92t71.5 101q-48 -12 -118 -12q-125 0 -170 38q-46 37 -46 117
q0 85 50 120t170 35q45 0 131 -10v46q0 68 -31 102.5t-104 34.5q-100 0 -140 -73q-11 -16 -25 -8l-24 10q-19 7 -10 26zM388 87v144q-90 9 -138 9q-78 0 -111 -23t-33 -75q0 -53 30.5 -76.5t111.5 -23.5q77 0 121 16q12 5 15.5 10t3.5 19z" />
    <glyph glyph-name="Cacute" unicode="&#x106;" horiz-adv-x="636" 
d="M230 797l162 101q24 11 34 -2l15 -18q12 -15 -3 -21l-177 -93q-17 -6 -23 2l-9 11q-12 13 1 20zM57 237v236q0 119 71 185t203 66q111 0 175 -42t91 -129q7 -20 -12 -26l-31 -11q-19 -4 -26 12q-21 68 -67 98.5t-130 30.5q-98 0 -149.5 -47.5t-51.5 -135.5v-238
q0 -87 52.5 -135t148.5 -48q85 0 131.5 31.5t67.5 100.5q7 18 26 13l31 -12q18 -7 12 -25q-27 -88 -91.5 -131.5t-176.5 -43.5q-131 0 -202.5 66.5t-71.5 184.5z" />
    <glyph glyph-name="cacute" unicode="&#x107;" horiz-adv-x="515" 
d="M163 619l162 101q24 11 34 -2l15 -18q13 -16 -3 -21l-176 -93q-16 -6 -24 2l-9 11q-10 13 1 20zM49 183v149q0 94 55.5 145.5t162.5 51.5q169 0 209 -135q6 -19 -12 -26l-26 -9q-18 -6 -25 12q-16 51 -50.5 74.5t-97.5 23.5q-72 0 -110.5 -35.5t-38.5 -99.5v-153
q0 -64 39 -100t110 -36q118 0 149 103q7 16 26 12l26 -8q19 -7 12 -26q-47 -140 -215 -140q-104 0 -159 51.5t-55 145.5z" />
    <glyph glyph-name="Ccircumflex" unicode="&#x108;" horiz-adv-x="636" 
d="M332 901h7q19 0 35 -16l122 -108q14 -14 -9 -14h-27q-21 0 -30 10l-96 82l-97 -82q-10 -10 -29 -10h-26q-23 0 -9 14l123 108q12 11 17.5 13.5t18.5 2.5zM57 237v236q0 119 71 185t203 66q111 0 175 -42t91 -129q7 -20 -12 -26l-31 -11q-19 -4 -26 12q-21 68 -67 98.5
t-130 30.5q-98 0 -149.5 -47.5t-51.5 -135.5v-238q0 -87 52.5 -135t148.5 -48q85 0 131.5 31.5t67.5 100.5q7 18 26 13l31 -12q18 -7 12 -25q-27 -88 -91.5 -131.5t-176.5 -43.5q-131 0 -202.5 66.5t-71.5 184.5z" />
    <glyph glyph-name="ccircumflex" unicode="&#x109;" horiz-adv-x="515" 
d="M265 714h8q11 0 16.5 -2.5t16.5 -13.5l120 -105q6 -5 4 -9.5t-13 -4.5h-27q-20 0 -29 10l-94 80l-95 -80q-10 -10 -28 -10h-25q-23 0 -9 14l120 105q11 11 16.5 13.5t18.5 2.5zM49 183v149q0 94 55.5 145.5t162.5 51.5q169 0 209 -135q6 -19 -12 -26l-26 -9
q-18 -6 -25 12q-16 51 -50.5 74.5t-97.5 23.5q-72 0 -110.5 -35.5t-38.5 -99.5v-153q0 -64 39 -100t110 -36q118 0 149 103q7 16 26 12l26 -8q19 -7 12 -26q-47 -140 -215 -140q-104 0 -159 51.5t-55 145.5z" />
    <glyph glyph-name="Cdotaccent" unicode="&#x10a;" horiz-adv-x="636" 
d="M332 862h5q19 0 26 -7t7 -27v-6q0 -20 -7 -26.5t-26 -6.5h-5q-20 0 -27 7t-7 26v6q0 20 7 27t27 7zM57 237v236q0 119 71 185t203 66q111 0 175 -42t91 -129q7 -20 -12 -26l-31 -11q-19 -4 -26 12q-21 68 -67 98.5t-130 30.5q-98 0 -149.5 -47.5t-51.5 -135.5v-238
q0 -87 52.5 -135t148.5 -48q85 0 131.5 31.5t67.5 100.5q7 18 26 13l31 -12q18 -7 12 -25q-27 -88 -91.5 -131.5t-176.5 -43.5q-131 0 -202.5 66.5t-71.5 184.5z" />
    <glyph glyph-name="cdotaccent" unicode="&#x10b;" horiz-adv-x="515" 
d="M265 683h5q20 0 27 -7.5t7 -26.5v-5q0 -20 -7 -27t-27 -7h-5q-20 0 -27 7t-7 27v5q0 19 7.5 26.5t26.5 7.5zM49 183v149q0 94 55.5 145.5t162.5 51.5q169 0 209 -135q6 -19 -12 -26l-26 -9q-18 -6 -25 12q-16 51 -50.5 74.5t-97.5 23.5q-72 0 -110.5 -35.5t-38.5 -99.5
v-153q0 -64 39 -100t110 -36q118 0 149 103q7 16 26 12l26 -8q19 -7 12 -26q-47 -140 -215 -140q-104 0 -159 51.5t-55 145.5z" />
    <glyph glyph-name="Ccaron" unicode="&#x10c;" horiz-adv-x="636" 
d="M458 901h27q11 0 13 -5t-4 -10l-122 -107q-17 -17 -34 -17h-8q-13 0 -18.5 2.5t-17.5 14.5l-122 107q-7 5 -5 10t13 5h26q19 0 29 -10l97 -83l96 83q10 10 30 10zM57 237v236q0 119 71 185t203 66q111 0 175 -42t91 -129q7 -20 -12 -26l-31 -11q-19 -4 -26 12
q-21 68 -67 98.5t-130 30.5q-98 0 -149.5 -47.5t-51.5 -135.5v-238q0 -87 52.5 -135t148.5 -48q85 0 131.5 31.5t67.5 100.5q7 18 26 13l31 -12q18 -7 12 -25q-27 -88 -91.5 -131.5t-176.5 -43.5q-131 0 -202.5 66.5t-71.5 184.5z" />
    <glyph glyph-name="ccaron" unicode="&#x10d;" horiz-adv-x="515" 
d="M381 703h25q9 0 11.5 -5t-3.5 -10l-112 -99q-16 -15 -31 -15h-7q-18 0 -33 15l-113 100q-12 14 8 14h25q16 0 26 -10l89 -76l87 76q10 10 28 10zM49 183v149q0 94 55.5 145.5t162.5 51.5q169 0 209 -135q6 -19 -12 -26l-26 -9q-18 -6 -25 12q-16 51 -50.5 74.5
t-97.5 23.5q-72 0 -110.5 -35.5t-38.5 -99.5v-153q0 -64 39 -100t110 -36q118 0 149 103q7 16 26 12l26 -8q19 -7 12 -26q-47 -140 -215 -140q-104 0 -159 51.5t-55 145.5z" />
    <glyph glyph-name="Dcaron" unicode="&#x10e;" horiz-adv-x="653" 
d="M434 901h27q11 0 13 -5t-4 -10l-122 -107q-12 -12 -17.5 -14.5t-16.5 -2.5h-8q-13 0 -18.5 2.5t-17.5 14.5l-122 107q-6 5 -4 10t13 5h26q18 0 28 -10l98 -83l95 83q10 10 30 10zM98 710h211q137 0 213.5 -70t76.5 -194v-182q0 -124 -76.5 -194t-213.5 -70h-211
q-11 0 -15.5 4.5t-4.5 15.5v670q0 11 4.5 15.5t15.5 4.5zM526 264v182q0 94 -56 145t-161 51h-159v-574h159q105 0 161 51t56 145z" />
    <glyph glyph-name="dcaron" unicode="&#x10f;" horiz-adv-x="575" 
d="M50 186v143q0 97 49.5 148.5t147.5 51.5q73 0 158 -29v222q0 18 18 18h31q18 0 18 -18v-652q0 -24 -7.5 -34t-31.5 -20q-71 -30 -173 -30q-210 0 -210 200zM647 722l-52 -196q-5 -17 -19 -17h-18q-8 0 -10.5 2.5t-1.5 10.5l38 200q2 18 21 18h26q22 0 16 -18zM405 92v345
q-76 30 -146 30q-142 0 -142 -140v-140q0 -140 149 -140q69 0 120 19q12 5 15.5 9.5t3.5 16.5z" />
    <glyph glyph-name="Dcroat" unicode="&#x110;" horiz-adv-x="664" 
d="M109 710h211q137 0 213.5 -70t76.5 -194v-182q0 -124 -76.5 -194t-213.5 -70h-211q-11 0 -15.5 4.5t-4.5 15.5v316h-73q-14 0 -14 14v21q0 14 14 14h73v305q0 11 4.5 15.5t15.5 4.5zM538 264v182q0 94 -56 145t-161 51h-159v-257h172q13 0 13 -14v-21q0 -14 -13 -14h-172
v-268h159q104 0 160.5 51t56.5 145z" />
    <glyph glyph-name="dslash" unicode="&#x111;" horiz-adv-x="538" 
d="M474 654h67q13 0 13 -14v-16q0 -14 -13 -14h-67v-540q0 -24 -8 -34t-32 -20q-70 -30 -173 -30q-210 0 -210 200v143q0 97 50 148t148 51q80 0 157 -28v110h-152q-13 0 -13 14v16q0 14 13 14h152v68q0 18 18 18h32q18 0 18 -18v-68zM406 92v345q-76 30 -146 30
q-142 0 -142 -140v-140q0 -140 149 -140q70 0 121 19q12 5 15 9.5t3 16.5z" />
    <glyph glyph-name="Emacron" unicode="&#x112;" horiz-adv-x="573" 
d="M183 850h235q18 0 18 -17v-16q0 -17 -18 -17h-235q-10 0 -13.5 3.5t-3.5 13.5v16q0 17 17 17zM98 710h405q19 0 19 -20v-28q0 -20 -19 -20h-353v-248h308q19 0 19 -20v-28q0 -20 -19 -20h-308v-258h366q19 0 19 -20v-28q0 -20 -19 -20h-418q-11 0 -15.5 4.5t-4.5 15.5
v670q0 11 4.5 15.5t15.5 4.5z" />
    <glyph glyph-name="emacron" unicode="&#x113;" horiz-adv-x="530" 
d="M160 665h216q10 0 13 -3.5t3 -13.5v-14q0 -10 -3 -13.5t-13 -3.5h-216q-9 0 -12 3.5t-3 13.5v14q0 17 15 17zM47 188v130q0 101 57 156t164 55t164.5 -55.5t57.5 -151.5v-55q0 -28 -30 -28h-346v-58q0 -66 39 -101.5t111 -35.5q110 0 157 83q12 16 29 7l21 -11
q19 -10 7 -29q-60 -108 -214 -108q-107 0 -162 53t-55 149zM423 291v35q0 69 -40 107t-115 38q-74 0 -114 -38t-40 -107v-35h309z" />
    <glyph glyph-name="Ebreve" unicode="&#x114;" horiz-adv-x="573" 
d="M453 871q-33 -108 -152 -108t-151 108q-5 12 8 18l24 9q13 4 18 -7q22 -78 101 -78q77 0 100 78q5 12 16 7l27 -9q14 -6 9 -18zM98 710h405q19 0 19 -20v-28q0 -20 -19 -20h-353v-248h308q19 0 19 -20v-28q0 -20 -19 -20h-308v-258h366q19 0 19 -20v-28q0 -20 -19 -20
h-418q-11 0 -15.5 4.5t-4.5 15.5v670q0 11 4.5 15.5t15.5 4.5z" />
    <glyph glyph-name="ebreve" unicode="&#x115;" horiz-adv-x="530" 
d="M420 692q-32 -108 -152 -108q-118 0 -151 108q-5 12 9 18l24 9q13 4 18 -7q22 -78 100 -78t101 78q5 12 16 7l27 -9q13 -6 8 -18zM47 188v130q0 101 57 156t164 55t164.5 -55.5t57.5 -151.5v-55q0 -28 -30 -28h-346v-58q0 -66 39 -101.5t111 -35.5q110 0 157 83
q12 16 29 7l21 -11q19 -10 7 -29q-60 -108 -214 -108q-107 0 -162 53t-55 149zM423 291v35q0 69 -40 107t-115 38q-74 0 -114 -38t-40 -107v-35h309z" />
    <glyph glyph-name="Edotaccent" unicode="&#x116;" horiz-adv-x="573" 
d="M298 862h5q19 0 26.5 -7t7.5 -27v-6q0 -19 -7 -26t-27 -7h-5q-20 0 -27 7t-7 26v6q0 20 7 27t27 7zM98 710h405q19 0 19 -20v-28q0 -20 -19 -20h-353v-248h308q19 0 19 -20v-28q0 -20 -19 -20h-308v-258h366q19 0 19 -20v-28q0 -20 -19 -20h-418q-11 0 -15.5 4.5
t-4.5 15.5v670q0 11 4.5 15.5t15.5 4.5z" />
    <glyph glyph-name="edotaccent" unicode="&#x117;" horiz-adv-x="530" 
d="M266 684h5q19 0 26.5 -7t7.5 -27v-6q0 -20 -7.5 -27t-26.5 -7h-5q-20 0 -27 7t-7 27v6q0 20 7 27t27 7zM47 188v130q0 101 57 156t164 55t164.5 -55.5t57.5 -151.5v-55q0 -28 -30 -28h-346v-58q0 -66 39 -101.5t111 -35.5q110 0 157 83q12 16 29 7l21 -11q19 -10 7 -29
q-60 -108 -214 -108q-107 0 -162 53t-55 149zM423 291v35q0 69 -40 107t-115 38q-74 0 -114 -38t-40 -107v-35h309z" />
    <glyph glyph-name="Eogonek" unicode="&#x118;" horiz-adv-x="573" 
d="M98 710h405q19 0 19 -20v-28q0 -20 -19 -20h-353v-249h308q19 0 19 -20v-28q0 -20 -19 -20h-308v-257h366q19 0 19 -20v-28q0 -11 -6 -17q-58 -47 -84.5 -93.5t-16.5 -75.5q10 -27 39 -27t49 21q9 6 12 -3l8 -21q4 -8 -1 -13q-36 -36 -89 -36q-28 0 -49 13.5t-28 37.5
q-13 40 15.5 93.5t89.5 100.5h-376q-11 0 -15.5 4.5t-4.5 15.5v670q0 11 4.5 15.5t15.5 4.5z" />
    <glyph glyph-name="eogonek" unicode="&#x119;" horiz-adv-x="530" 
d="M47 188v130q0 101 57 156t164 55t164.5 -55.5t57.5 -151.5v-55q0 -28 -30 -28h-346v-58q0 -66 39 -101.5t111 -35.5q110 0 157 83q12 16 29 7l21 -11q19 -10 7 -29q-15 -28 -39 -51q-53 -59 -81 -120t-18 -90q9 -29 40 -29q28 0 51 23q8 6 11 -3l8 -21q4 -9 -1 -14
q-39 -36 -90 -36q-64 0 -77 52q-11 37 11 90.5t70 106.5q-42 -16 -99 -16q-107 0 -162 53t-55 149zM423 291v35q0 69 -40 107t-115 38q-74 0 -114 -38t-40 -107v-35h309z" />
    <glyph glyph-name="Ecaron" unicode="&#x11a;" horiz-adv-x="573" 
d="M424 901h28q11 0 13 -5t-5 -10l-122 -107q-12 -12 -17.5 -14.5t-16.5 -2.5h-8q-13 0 -18.5 2.5t-16.5 14.5l-123 107q-6 5 -4 10t13 5h26q18 0 28 -10l98 -83l95 83q10 10 30 10zM98 710h405q19 0 19 -20v-28q0 -20 -19 -20h-353v-248h308q19 0 19 -20v-28q0 -20 -19 -20
h-308v-258h366q19 0 19 -20v-28q0 -20 -19 -20h-418q-11 0 -15.5 4.5t-4.5 15.5v670q0 11 4.5 15.5t15.5 4.5z" />
    <glyph glyph-name="ecaron" unicode="&#x11b;" horiz-adv-x="530" 
d="M382 703h25q20 0 8 -14l-112 -99q-15 -15 -31 -15h-7q-18 0 -33 15l-113 99q-11 14 8 14h25q16 0 26 -9l89 -77l87 77q9 9 28 9zM47 188v130q0 101 57 156t164 55t164.5 -55.5t57.5 -151.5v-55q0 -28 -30 -28h-346v-58q0 -66 39 -101.5t111 -35.5q110 0 157 83
q12 16 29 7l21 -11q19 -10 7 -29q-60 -108 -214 -108q-107 0 -162 53t-55 149zM423 291v35q0 69 -40 107t-115 38q-74 0 -114 -38t-40 -107v-35h309z" />
    <glyph glyph-name="Gcircumflex" unicode="&#x11c;" horiz-adv-x="655" 
d="M329 911h8q18 0 34 -16l122 -108q7 -5 4.5 -9.5t-13.5 -4.5h-27q-20 0 -30 10l-96 82l-97 -82q-10 -10 -28 -10h-26q-11 0 -13.5 4.5t3.5 9.5l123 108q12 11 17.5 13.5t18.5 2.5zM342 368h244q11 0 15.5 -4.5t4.5 -15.5v-123q0 -111 -72 -175t-202 -64
q-132 0 -203.5 66.5t-71.5 185.5v235q0 119 71 185t203 66q111 0 175 -42t91 -129q7 -20 -12 -26l-31 -11q-19 -4 -26 12q-21 68 -67 98.5t-130 30.5q-98 0 -150 -47.5t-52 -135.5v-236q0 -88 52.5 -136.5t150.5 -48.5q96 0 149.5 46t53.5 126v75h-193q-11 0 -15.5 4.5
t-4.5 15.5v28q0 11 4.5 15.5t15.5 4.5z" />
    <glyph glyph-name="gcircumflex" unicode="&#x11d;" horiz-adv-x="536" 
d="M272 714h8q11 0 16.5 -2.5t16.5 -13.5l120 -105q6 -5 4 -9.5t-13 -4.5h-27q-20 0 -29 10l-93 80l-96 -80q-10 -10 -28 -10h-25q-23 0 -9 14l120 105q11 11 16.5 13.5t18.5 2.5zM49 193v131q0 205 216 205q97 0 169 -30q24 -11 31 -21t7 -34v-475q0 -216 -211 -216
q-139 0 -198 107q-13 19 7 30l22 11q18 10 29 -7q44 -80 138 -80q146 0 146 152v62q-81 -30 -158 -30q-198 0 -198 195zM386 448q-50 19 -117 19q-152 0 -152 -144v-128q0 -135 138 -135q72 0 150 29v333q0 12 -3 16.5t-16 9.5z" />
    <glyph glyph-name="Gbreve" unicode="&#x11e;" horiz-adv-x="655" 
d="M483 881q-31 -108 -152 -108q-118 0 -151 108q-4 12 9 18l24 9q13 4 18 -7q23 -78 100 -78q79 0 101 78q5 12 16 7l27 -9q13 -6 8 -18zM342 368h244q11 0 15.5 -4.5t4.5 -15.5v-123q0 -111 -72 -175t-202 -64q-132 0 -203.5 66.5t-71.5 185.5v235q0 119 71 185t203 66
q111 0 175 -42t91 -129q7 -20 -12 -26l-31 -11q-19 -4 -26 12q-21 68 -67 98.5t-130 30.5q-98 0 -150 -47.5t-52 -135.5v-236q0 -88 52.5 -136.5t150.5 -48.5q96 0 149.5 46t53.5 126v75h-193q-11 0 -15.5 4.5t-4.5 15.5v28q0 11 4.5 15.5t15.5 4.5z" />
    <glyph glyph-name="gbreve" unicode="&#x11f;" horiz-adv-x="536" 
d="M427 692q-33 -109 -152 -109q-120 0 -151 109q-5 11 8 17l24 9q13 4 18 -7q23 -77 101 -77q77 0 100 77q5 11 16 8l27 -10q14 -6 9 -17zM49 193v131q0 205 216 205q97 0 169 -30q24 -11 31 -21t7 -34v-475q0 -216 -211 -216q-139 0 -198 107q-13 19 7 30l22 11
q18 10 29 -7q44 -80 138 -80q146 0 146 152v62q-81 -30 -158 -30q-198 0 -198 195zM386 448q-50 19 -117 19q-152 0 -152 -144v-128q0 -135 138 -135q72 0 150 29v333q0 12 -3 16.5t-16 9.5z" />
    <glyph glyph-name="Gdotaccent" unicode="&#x120;" horiz-adv-x="655" 
d="M329 872h5q20 0 27 -7t7 -27v-6q0 -19 -7 -26t-27 -7h-5q-20 0 -27 7t-7 26v6q0 20 7.5 27t26.5 7zM342 368h244q11 0 15.5 -4.5t4.5 -15.5v-123q0 -111 -72 -175t-202 -64q-132 0 -203.5 66.5t-71.5 185.5v235q0 119 71 185t203 66q111 0 175 -42t91 -129q7 -20 -12 -26
l-31 -11q-19 -4 -26 12q-21 68 -67 98.5t-130 30.5q-98 0 -150 -47.5t-52 -135.5v-236q0 -88 52.5 -136.5t150.5 -48.5q96 0 149.5 46t53.5 126v75h-193q-11 0 -15.5 4.5t-4.5 15.5v28q0 11 4.5 15.5t15.5 4.5z" />
    <glyph glyph-name="gdotaccent" unicode="&#x121;" horiz-adv-x="536" 
d="M272 683h5q19 0 26.5 -7.5t7.5 -26.5v-5q0 -20 -7.5 -27t-26.5 -7h-5q-20 0 -27 7t-7 27v5q0 19 7 26.5t27 7.5zM49 193v131q0 205 216 205q97 0 169 -30q24 -11 31 -21t7 -34v-475q0 -216 -211 -216q-139 0 -198 107q-13 19 7 30l22 11q18 10 29 -7q44 -80 138 -80
q146 0 146 152v62q-81 -30 -158 -30q-198 0 -198 195zM386 448q-50 19 -117 19q-152 0 -152 -144v-128q0 -135 138 -135q72 0 150 29v333q0 12 -3 16.5t-16 9.5z" />
    <glyph glyph-name="Gcommaaccent" unicode="&#x122;" horiz-adv-x="655" 
d="M342 368h244q11 0 15.5 -4.5t4.5 -15.5v-123q0 -111 -72 -175t-202 -64q-132 0 -203.5 66.5t-71.5 185.5v235q0 119 71 185t203 66q111 0 175 -42t91 -129q7 -20 -12 -26l-31 -11q-19 -4 -26 12q-21 68 -67 98.5t-130 30.5q-98 0 -150 -47.5t-52 -135.5v-236
q0 -88 52.5 -136.5t150.5 -48.5q96 0 149.5 46t53.5 126v75h-193q-11 0 -15.5 4.5t-4.5 15.5v28q0 11 4.5 15.5t15.5 4.5zM385 -92l-47 -140q-5 -17 -21 -17h-22q-15 0 -12 13l33 145q1 19 22 19h30q25 0 17 -20z" />
    <glyph glyph-name="gcommaaccent" unicode="&#x123;" horiz-adv-x="537" 
d="M230 596l48 122q4 11 8.5 14t14.5 3h18q16 0 13 -14l-38 -126q-1 -12 -6 -16.5t-17 -4.5h-25q-25 0 -16 22zM49 193v131q0 205 216 205q97 0 169 -30q24 -11 31 -21t7 -34v-475q0 -216 -211 -216q-139 0 -198 107q-13 19 7 30l22 11q18 10 29 -7q44 -80 138 -80
q146 0 146 152v62q-81 -30 -158 -30q-198 0 -198 195zM386 448q-50 19 -117 19q-152 0 -152 -144v-128q0 -135 138 -135q72 0 150 29v333q0 12 -3 16.5t-16 9.5z" />
    <glyph glyph-name="Hcircumflex" unicode="&#x124;" horiz-adv-x="681" 
d="M338 901h8q12 0 17.5 -2.5t16.5 -13.5l122 -108q7 -5 4.5 -9.5t-13.5 -4.5h-27q-20 0 -30 10l-95 82l-98 -82q-10 -10 -28 -10h-26q-11 0 -13.5 4.5t4.5 9.5l122 108q12 11 17.5 13.5t18.5 2.5zM551 710h33q19 0 19 -20v-670q0 -20 -19 -20h-33q-11 0 -15.5 4.5
t-4.5 15.5v306h-381v-306q0 -11 -4 -15.5t-15 -4.5h-33q-11 0 -15.5 4.5t-4.5 15.5v670q0 11 4.5 15.5t15.5 4.5h33q11 0 15 -4.5t4 -15.5v-296h381v296q0 11 4.5 15.5t15.5 4.5z" />
    <glyph glyph-name="hcircumflex" unicode="&#x125;" horiz-adv-x="551" 
d="M111 922h7q16 0 33 -15l117 -104q14 -15 -8 -15h-27q-17 0 -28 11l-92 79l-94 -79q-11 -11 -27 -11h-25q-23 0 -9 15l118 104q17 15 35 15zM97 740h32q18 0 18 -18v-221q59 28 157 28q198 0 198 -196v-315q0 -10 -3.5 -14t-14.5 -4h-31q-18 0 -18 18v313q0 136 -140 136
q-88 0 -148 -29v-420q0 -18 -18 -18h-32q-18 0 -18 18v704q0 18 18 18z" />
    <glyph glyph-name="Hbar" unicode="&#x126;" horiz-adv-x="690" 
d="M608 592h60q13 0 13 -14v-16q0 -15 -13 -15h-60v-527q0 -11 -4.5 -15.5t-15.5 -4.5h-33q-11 0 -15.5 4.5t-4.5 15.5v306h-380v-306q0 -11 -4.5 -15.5t-15.5 -4.5h-33q-11 0 -15.5 4.5t-4.5 15.5v527h-60q-13 0 -13 15v16q0 14 13 14h60v98q0 11 4.5 15.5t15.5 4.5h33
q11 0 15.5 -4.5t4.5 -15.5v-98h380v98q0 11 4.5 15.5t15.5 4.5h33q11 0 15.5 -4.5t4.5 -15.5v-98zM535 547h-380v-153h380v153z" />
    <glyph glyph-name="hbar" unicode="&#x127;" horiz-adv-x="551" 
d="M134 615v-114q59 28 156 28q199 0 199 -196v-315q0 -18 -18 -18h-31q-18 0 -18 18v313q0 136 -140 136q-88 0 -148 -29v-420q0 -18 -18 -18h-32q-18 0 -18 18v597h-52q-8 0 -10.5 2.5t-2.5 11.5v14q0 14 13 14h52v65q0 18 18 18h32q18 0 18 -18v-65h157q12 0 12 -14v-14
q0 -9 -2 -11.5t-10 -2.5h-157z" />
    <glyph glyph-name="Itilde" unicode="&#x128;" horiz-adv-x="228" 
d="M234 882h20q11 0 11 -12q0 -100 -78 -100q-37 0 -78 34q-44 33 -68 33q-40 0 -40 -55q0 -12 -12 -12h-20q-12 0 -12 12q0 100 78 100q33 0 81 -33.5t67 -33.5q40 0 40 55q0 12 11 12zM78 20v670q0 11 4.5 15.5t15.5 4.5h33q11 0 15 -4.5t4 -15.5v-670q0 -11 -4 -15.5
t-15 -4.5h-33q-11 0 -15.5 4.5t-4.5 15.5z" />
    <glyph glyph-name="itilde" unicode="&#x129;" horiz-adv-x="199" 
d="M187 712h17q10 0 10 -12q0 -54 -14 -76.5t-47 -22.5q-25 0 -56 32t-48 32q-32 0 -32 -51q0 -13 -9 -13h-18q-10 0 -10 13q0 98 63 98q31 0 58 -32q27 -33 47 -33q30 0 30 53q0 12 9 12zM84 514h31q11 0 14.5 -4t3.5 -14v-478q0 -10 -3.5 -14t-14.5 -4h-31q-18 0 -18 18
v478q0 18 18 18z" />
    <glyph glyph-name="Imacron" unicode="&#x12a;" horiz-adv-x="228" 
d="M-4 850h236q10 0 13.5 -3.5t3.5 -13.5v-16q0 -10 -3.5 -13.5t-13.5 -3.5h-236q-10 0 -13.5 3.5t-3.5 13.5v16q0 17 17 17zM78 20v670q0 11 4.5 15.5t15.5 4.5h33q11 0 15 -4.5t4 -15.5v-670q0 -11 -4 -15.5t-15 -4.5h-33q-11 0 -15.5 4.5t-4.5 15.5z" />
    <glyph glyph-name="imacron" unicode="&#x12b;" horiz-adv-x="199" 
d="M26 670h147q10 0 10 -16v-15q0 -17 -10 -17h-147q-11 0 -11 17v15q0 16 11 16zM84 514h31q11 0 14.5 -4t3.5 -14v-478q0 -10 -3.5 -14t-14.5 -4h-31q-18 0 -18 18v478q0 18 18 18z" />
    <glyph glyph-name="Ibreve" unicode="&#x12c;" horiz-adv-x="228" 
d="M270 871q-33 -108 -152 -108q-120 0 -151 108q-4 13 8 18l24 9q14 5 19 -7q21 -78 100 -78q78 0 101 78q5 12 16 7l27 -9q12 -5 8 -18zM82 20v670q0 11 4.5 15.5t15.5 4.5h33q11 0 15 -4.5t4 -15.5v-670q0 -11 -4 -15.5t-15 -4.5h-33q-11 0 -15.5 4.5t-4.5 15.5z" />
    <glyph glyph-name="ibreve" unicode="&#x12d;" horiz-adv-x="199" 
d="M198 717l26 -9q14 -5 9 -17q-25 -105 -130 -105q-103 0 -128 105q-4 12 8 17l23 8q14 4 19 -7q13 -72 78 -72t79 72q5 11 16 8zM88 514h31q11 0 14.5 -4t3.5 -14v-478q0 -10 -3.5 -14t-14.5 -4h-31q-18 0 -18 18v478q0 18 18 18z" />
    <glyph glyph-name="Iogonek" unicode="&#x12e;" horiz-adv-x="228" 
d="M212 -176l8 -21q4 -9 -1 -14q-39 -36 -90 -36q-64 0 -77 52q-22 76 69 196q-20 0 -20 19v670q0 11 4.5 15.5t15.5 4.5h33q11 0 15 -4.5t4 -15.5v-670q0 -13 -4 -17q-38 -52 -53 -97t-5 -73q9 -28 39 -28q31 0 50 22q9 7 12 -3z" />
    <glyph glyph-name="iogonek" unicode="&#x12f;" horiz-adv-x="200" 
d="M108 617h-6q-21 0 -29 8t-8 29v7q0 21 8 29t29 8h6q21 0 29 -8t8 -29v-7q0 -21 -8 -29t-29 -8zM171 -177l8 -18q5 -7 -1 -13q-27 -38 -75 -38q-31 0 -51 15.5t-24 44.5q-4 45 15 99q20 54 43 88q-15 1 -15 17v478q0 18 18 18h32q18 0 18 -18v-478q0 -10 -4 -14
q-20 -34 -36 -82q-16 -47 -13 -84q2 -15 12.5 -24.5t22.5 -9.5q24 0 37 22q8 5 13 -3z" />
    <glyph glyph-name="Idot" unicode="&#x130;" horiz-adv-x="228" 
d="M112 862h5q19 0 26 -7t7 -27v-6q0 -20 -7 -26.5t-26 -6.5h-5q-20 0 -27 7t-7 26v6q0 20 7 27t27 7zM78 20v670q0 11 4.5 15.5t15.5 4.5h33q11 0 15 -4.5t4 -15.5v-670q0 -11 -4 -15.5t-15 -4.5h-33q-11 0 -15.5 4.5t-4.5 15.5z" />
    <glyph glyph-name="dotlessi" unicode="&#x131;" horiz-adv-x="200" 
d="M84 514h32q18 0 18 -18v-478q0 -18 -18 -18h-32q-18 0 -18 18v478q0 18 18 18z" />
    <glyph glyph-name="IJ" unicode="&#x132;" horiz-adv-x="801" 
d="M78 20v670q0 11 4.5 15.5t15.5 4.5h33q11 0 15 -4.5t4 -15.5v-670q0 -11 -4 -15.5t-15 -4.5h-33q-11 0 -15.5 4.5t-4.5 15.5zM675 710h34q19 0 19 -19v-468q0 -113 -63 -175.5t-179 -62.5q-192 0 -235 187q-7 19 12 26l31 11q18 7 26 -13q16 -73 55.5 -108t110.5 -35
q82 0 126 44.5t44 124.5v469q0 11 4 15t15 4z" />
    <glyph glyph-name="ij" unicode="&#x133;" horiz-adv-x="444" 
d="M97 698h6q21 0 29 -8t8 -29v-7q0 -21 -8 -29t-29 -8h-6q-21 0 -29 8t-8 29v7q0 21 8 29t29 8zM341 698h5q21 0 29.5 -8t8.5 -29v-7q0 -21 -8.5 -29t-29.5 -8h-5q-22 0 -30 8t-8 29v7q0 21 8 29t30 8zM84 514h32q18 0 18 -18v-478q0 -18 -18 -18h-32q-18 0 -18 18v478
q0 18 18 18zM328 514h31q11 0 14.5 -4t3.5 -14v-505q0 -111 -50 -166t-158 -55q-11 0 -14.5 4t-3.5 14v26q0 19 18 19q76 0 108.5 38.5t32.5 120.5v504q0 18 18 18z" />
    <glyph glyph-name="Jcircumflex" unicode="&#x134;" horiz-adv-x="570" 
d="M466 901h8q18 0 34 -16l122 -108q14 -14 -9 -14h-27q-21 0 -30 10l-96 82l-97 -82q-10 -10 -29 -10h-26q-23 0 -9 14l123 108q12 11 17.5 13.5t18.5 2.5zM451 710h34q20 0 20 -19v-468q0 -112 -63 -175t-179 -63q-191 0 -236 187q-7 19 12 26l32 11q17 7 25 -13
q16 -72 56 -107.5t111 -35.5q81 0 125 44t44 125v469q0 11 4 15t15 4z" />
    <glyph glyph-name="jcircumflex" unicode="&#x135;" horiz-adv-x="200" 
d="M97 714h8q12 0 17 -2t17 -14l102 -105q13 -15 -9 -15h-26q-20 0 -30 10l-76 82l-78 -82q-10 -10 -29 -10h-25q-20 0 -9 15l103 105q11 11 16.5 13.5t18.5 2.5zM85 514h31q18 0 18 -18v-505q0 -111 -50 -166t-158 -55q-18 0 -18 18v26q0 19 18 19q76 0 108.5 38.5
t32.5 120.5v504q0 10 3.5 14t14.5 4z" />
    <glyph glyph-name="Kcommaaccent" unicode="&#x136;" horiz-adv-x="609" 
d="M462 267l127 -247q11 -20 -11 -20h-32q-19 0 -26.5 3.5t-13.5 14.5l-111 222q-24 49 -55 68t-88 19h-102v-307q0 -11 -4 -15.5t-15 -4.5h-33q-11 0 -15.5 4.5t-4.5 15.5v670q0 11 4.5 15.5t15.5 4.5h33q11 0 15 -4.5t4 -15.5v-297h96h22l224 300q14 17 40 17h36
q11 0 13.5 -6t-3.5 -13l-237 -312q75 -21 121 -112zM364 -92l-47 -140q-5 -17 -21 -17h-22q-8 0 -10.5 2.5t-1.5 10.5l33 145q1 19 22 19h30q25 0 17 -20z" />
    <glyph glyph-name="kcommaaccent" unicode="&#x137;" horiz-adv-x="507" 
d="M393 201l90 -180q11 -21 -11 -21h-30q-15 0 -20.5 3t-10.5 13l-76 156q-28 61 -97 61h-104v-214q0 -11 -4 -15t-15 -4h-29q-11 0 -15 4t-4 15v703q0 11 4 14.5t15 3.5h29q11 0 15 -3.5t4 -14.5v-427h96h9l161 205q7 9 13 11.5t22 2.5h28q27 0 12 -21l-169 -211
q54 -14 87 -81zM310 -74l-40 -137q-5 -17 -23 -17h-18q-16 0 -13 14l29 140q1 12 6 16.5t17 4.5h26q24 0 16 -21z" />
    <glyph glyph-name="kgreenlandic" unicode="&#x138;" horiz-adv-x="474" 
d="M261 290l192 -268q16 -22 -11 -22h-29q-27 0 -38 15l-159 224l-82 -90v-130q0 -11 -4 -15t-15 -4h-30q-11 0 -15 4t-4 15v477q0 18 19 18h30q19 0 19 -18v-253l235 257q13 14 37 14h28q29 0 11 -21z" />
    <glyph glyph-name="Lacute" unicode="&#x139;" horiz-adv-x="521" 
d="M22 797l161 101q24 11 34 -2l15 -18q13 -16 -3 -21l-176 -93q-16 -6 -24 2l-9 11q-11 14 2 20zM109 710h33q11 0 15 -4.5t4 -15.5v-622h339q19 0 19 -20v-28q0 -20 -19 -20h-391q-11 0 -15.5 4.5t-4.5 15.5v670q0 11 4.5 15.5t15.5 4.5z" />
    <glyph glyph-name="lacute" unicode="&#x13a;" horiz-adv-x="207" 
d="M20 810l135 79q17 10 30 -4l17 -20q12 -17 -4 -21l-146 -69q-18 -8 -24 1l-10 13q-9 15 2 21zM146 722v-704q0 -18 -18 -18h-32q-17 0 -17 18v704q0 18 17 18h32q18 0 18 -18z" />
    <glyph glyph-name="Lcommaaccent" unicode="&#x13b;" horiz-adv-x="521" 
d="M98 710h33q11 0 15 -4.5t4 -15.5v-622h339q19 0 19 -20v-28q0 -20 -19 -20h-391q-11 0 -15.5 4.5t-4.5 15.5v670q0 11 4.5 15.5t15.5 4.5zM329 -92l-47 -140q-5 -17 -22 -17h-21q-15 0 -12 13l33 145q1 19 22 19h30q23 0 17 -20z" />
    <glyph glyph-name="lcommaaccent" unicode="&#x13c;" horiz-adv-x="207" 
d="M138 722v-704q0 -10 -3.5 -14t-14.5 -4h-31q-18 0 -18 18v704q0 18 18 18h31q11 0 14.5 -4t3.5 -14zM138 -60l-40 -143q-7 -17 -23 -17h-17q-9 0 -11.5 3t-1.5 12l29 145q1 12 6 16.5t17 4.5h25q24 0 16 -21z" />
    <glyph glyph-name="Lcaron" unicode="&#x13d;" horiz-adv-x="522" 
d="M98 710h33q11 0 15 -4.5t4 -15.5v-622h339q19 0 19 -20v-28q0 -20 -19 -20h-391q-11 0 -15.5 4.5t-4.5 15.5v670q0 11 4.5 15.5t15.5 4.5zM422 691l-51 -188q-5 -17 -21 -17h-16q-15 0 -12 13l34 193q1 11 5.5 14.5t16.5 3.5h28q23 0 16 -19z" />
    <glyph glyph-name="lcaron" unicode="&#x13e;" horiz-adv-x="214" 
d="M137 722v-704q0 -10 -3.5 -14t-14.5 -4h-31q-18 0 -18 18v704q0 18 18 18h31q11 0 14.5 -4t3.5 -14zM314 721l-46 -167q-8 -17 -21 -17h-16q-14 0 -12 14l29 171q1 11 5.5 14.5t16.5 3.5h28q23 0 16 -19z" />
    <glyph glyph-name="Ldot" unicode="&#x13f;" horiz-adv-x="522" 
d="M98 710h33q11 0 15 -4.5t4 -15.5v-622h339q19 0 19 -20v-28q0 -20 -19 -20h-391q-11 0 -15.5 4.5t-4.5 15.5v670q0 11 4.5 15.5t15.5 4.5zM345 406h6q23 0 31.5 -9t8.5 -31v-6q0 -22 -8.5 -31t-31.5 -9h-6q-23 0 -31 8.5t-8 31.5v6q0 23 8.5 31.5t30.5 8.5z" />
    <glyph glyph-name="ldot" unicode="&#x140;" horiz-adv-x="327" 
d="M137 722v-704q0 -10 -3.5 -14t-14.5 -4h-31q-18 0 -18 18v704q0 18 18 18h31q11 0 14.5 -4t3.5 -14zM265 418h6q23 0 31.5 -9t8.5 -31v-7q0 -22 -8.5 -30.5t-31.5 -8.5h-6q-23 0 -31 8t-8 31v7q0 23 8.5 31.5t30.5 8.5z" />
    <glyph glyph-name="Lslash" unicode="&#x141;" horiz-adv-x="550" 
d="M185 68h338q11 0 15.5 -4.5t4.5 -15.5v-28q0 -11 -4.5 -15.5t-15.5 -4.5h-391q-19 0 -19 20v265l-79 -37q-12 -7 -19 6l-11 22q-7 13 5 18l104 49v347q0 20 19 20h34q19 0 19 -20v-314l208 100q15 6 21 -7l11 -21q6 -12 -7 -18l-233 -112v-250z" />
    <glyph glyph-name="lslash" unicode="&#x142;" horiz-adv-x="285" 
d="M270 456l11 -19q7 -12 -5 -18l-96 -56v-345q0 -18 -18 -18h-32q-18 0 -18 18v308l-64 -38q-13 -7 -20 5l-12 20q-6 12 5 18l91 53v338q0 18 18 18h32q18 0 18 -18v-302l69 41q13 7 21 -5z" />
    <glyph glyph-name="Nacute" unicode="&#x143;" horiz-adv-x="691" 
d="M242 797l162 101q24 11 34 -2l15 -18q12 -15 -3 -21l-177 -93q-17 -6 -23 2l-9 11q-12 13 1 20zM562 710h31q11 0 15.5 -4.5t4.5 -15.5v-670q0 -11 -4.5 -15.5t-15.5 -4.5h-32q-15 0 -21 11l-319 458q-21 31 -48 84q-20 40 -32 59h-4q0 -8 6 -71q5 -70 5 -106v-415
q0 -20 -19 -20h-31q-11 0 -15.5 4.5t-4.5 15.5v670q0 11 4.5 15.5t15.5 4.5h32q14 0 21 -10l311 -449q25 -37 53 -87q27 -52 36 -64h3q0 10 -6 76q-6 64 -6 110v405q0 19 20 19z" />
    <glyph glyph-name="nacute" unicode="&#x144;" 
d="M170 620l162 100q22 13 33 -1l15 -18q12 -14 -2 -22l-177 -92q-15 -7 -23 1l-10 12q-10 13 2 20zM102 495q81 34 186 34q199 0 199 -196v-315q0 -18 -18 -18h-31q-18 0 -18 18v313q0 136 -140 136q-73 0 -133 -22q-15 -7 -15 -25v-402q0 -18 -18 -18h-32q-18 0 -18 18
v422q0 23 7.5 34t30.5 21z" />
    <glyph glyph-name="Ncommaaccent" unicode="&#x145;" horiz-adv-x="691" 
d="M562 710h31q11 0 15.5 -4.5t4.5 -15.5v-670q0 -11 -4.5 -15.5t-15.5 -4.5h-32q-15 0 -21 11l-319 458q-21 31 -48 84q-20 40 -32 59h-4q0 -8 6 -71q5 -70 5 -106v-415q0 -20 -19 -20h-31q-11 0 -15.5 4.5t-4.5 15.5v670q0 11 4.5 15.5t15.5 4.5h32q14 0 21 -10l311 -449
q25 -37 53 -87q27 -52 36 -64h3q0 10 -6 76q-6 64 -6 110v405q0 19 20 19zM387 -92l-47 -140q-5 -17 -21 -17h-22q-8 0 -10.5 2.5t-1.5 10.5l33 145q1 19 22 19h30q25 0 17 -20z" />
    <glyph glyph-name="ncommaaccent" unicode="&#x146;" 
d="M102 495q81 34 186 34q199 0 199 -196v-315q0 -18 -18 -18h-31q-18 0 -18 18v313q0 136 -140 136q-73 0 -133 -22q-15 -7 -15 -25v-402q0 -18 -18 -18h-32q-18 0 -18 18v422q0 23 7.5 34t30.5 21zM315 -60l-40 -141q-5 -17 -23 -17h-17q-9 0 -11.5 3t-1.5 12l29 143
q1 12 6 16.5t17 4.5h26q22 0 15 -21z" />
    <glyph glyph-name="Ncaron" unicode="&#x147;" horiz-adv-x="691" 
d="M470 901h27q11 0 13 -5t-4 -10l-122 -107q-17 -17 -34 -17h-8q-13 0 -18.5 2.5t-17.5 14.5l-122 107q-15 15 8 15h26q19 0 29 -10l97 -83l96 83q10 10 30 10zM562 710h31q11 0 15.5 -4.5t4.5 -15.5v-670q0 -11 -4.5 -15.5t-15.5 -4.5h-32q-15 0 -21 11l-319 458
q-21 31 -48 84q-20 40 -32 59h-4q0 -8 6 -71q5 -70 5 -106v-415q0 -20 -19 -20h-31q-11 0 -15.5 4.5t-4.5 15.5v670q0 11 4.5 15.5t15.5 4.5h32q14 0 21 -10l311 -449q25 -37 53 -87q27 -52 36 -64h3q0 10 -6 76q-6 64 -6 110v405q0 19 20 19z" />
    <glyph glyph-name="ncaron" unicode="&#x148;" 
d="M387 703h25q22 0 8 -14l-112 -99q-14 -15 -31 -15h-7q-12 0 -17 2t-16 13l-112 99q-12 14 7 14h25q15 0 26 -9l89 -77l88 77q9 9 27 9zM102 495q81 34 186 34q199 0 199 -196v-315q0 -18 -18 -18h-31q-18 0 -18 18v313q0 136 -140 136q-73 0 -133 -22q-15 -7 -15 -25
v-402q0 -18 -18 -18h-32q-18 0 -18 18v422q0 23 7.5 34t30.5 21z" />
    <glyph glyph-name="napostrophe" unicode="&#x149;" 
d="M186 721l-89 -169q-7 -13 -23 -13h-16q-15 0 -9 14l71 171q4 10 7.5 13t14.5 3h32q22 0 12 -19zM108 495q81 34 186 34q199 0 199 -196v-315q0 -18 -18 -18h-31q-18 0 -18 18v313q0 136 -140 136q-73 0 -133 -22q-15 -7 -15 -25v-402q0 -18 -18 -18h-32q-18 0 -18 18v422
q0 23 7.5 34t30.5 21z" />
    <glyph glyph-name="Eng" unicode="&#x14a;" horiz-adv-x="691" 
d="M562 710h31q11 0 15.5 -4.5t4.5 -15.5v-702q0 -104 -58.5 -161t-167.5 -57q-11 0 -14.5 4t-3.5 14v26q0 11 3.5 15t14.5 4q76 0 115.5 41t39.5 117v16l-321 462q-21 31 -48 84q-20 40 -32 59h-4q0 -6 6 -64q5 -65 5 -100v-428q0 -20 -19 -20h-31q-11 0 -15.5 4.5
t-4.5 15.5v670q0 11 4.5 15.5t15.5 4.5h32q14 0 21 -10l311 -449q25 -37 53 -87q27 -52 36 -64h3q0 10 -6 76q-6 64 -6 110v405q0 19 20 19z" />
    <glyph glyph-name="eng" unicode="&#x14b;" 
d="M102 495q81 34 186 34q199 0 199 -196v-349q0 -103 -57 -158.5t-164 -55.5q-17 0 -17 18v25q0 10 3.5 13.5t13.5 3.5q75 0 114.5 40.5t39.5 115.5v345q0 136 -140 136q-73 0 -133 -22q-15 -7 -15 -25v-402q0 -18 -18 -18h-32q-18 0 -18 18v422q0 23 7.5 34t30.5 21z" />
    <glyph glyph-name="Omacron" unicode="&#x14c;" horiz-adv-x="663" 
d="M214 860h236q10 0 13.5 -3.5t3.5 -13.5v-16q0 -10 -3.5 -13.5t-13.5 -3.5h-236q-10 0 -13.5 3.5t-3.5 13.5v16q0 17 17 17zM57 237v236q0 119 71.5 185t203.5 66q131 0 202.5 -66t71.5 -185v-236q0 -119 -71.5 -185t-202.5 -66q-132 0 -203.5 66t-71.5 185zM534 237v236
q0 88 -52 136t-150 48t-150.5 -48t-52.5 -136v-236q0 -88 52.5 -136t150.5 -48t150 48t52 136z" />
    <glyph glyph-name="omacron" unicode="&#x14d;" horiz-adv-x="539" 
d="M161 664h216q9 0 12.5 -3t3.5 -13v-15q0 -10 -3.5 -13t-12.5 -3h-216q-9 0 -12.5 3t-3.5 13v15q0 16 16 16zM50 169v176q0 86 58.5 135t160.5 49q103 0 162 -49t59 -135v-176q0 -86 -59 -134.5t-162 -48.5q-102 0 -160.5 49t-58.5 134zM422 169v176q0 57 -41 90t-112 33
q-70 0 -111 -33t-41 -90v-176q0 -57 41.5 -89.5t110.5 -32.5q71 0 112 32.5t41 89.5z" />
    <glyph glyph-name="Obreve" unicode="&#x14e;" horiz-adv-x="663" 
d="M484 881q-33 -108 -152 -108q-120 0 -151 108q-4 13 8 18l24 9q14 5 19 -7q21 -78 100 -78q78 0 101 78q5 12 16 7l27 -9q12 -5 8 -18zM57 237v236q0 119 71.5 185t203.5 66q131 0 202.5 -66t71.5 -185v-236q0 -119 -71.5 -185t-202.5 -66q-132 0 -203.5 66t-71.5 185z
M534 237v236q0 88 -52 136t-150 48t-150.5 -48t-52.5 -136v-236q0 -88 52.5 -136t150.5 -48t150 48t52 136z" />
    <glyph glyph-name="obreve" unicode="&#x14f;" horiz-adv-x="539" 
d="M421 692q-33 -109 -152 -109q-118 0 -151 109q-5 12 8 17l24 9q14 5 19 -7q21 -77 100 -77q78 0 101 77q5 11 16 8l27 -10q13 -5 8 -17zM50 169v176q0 86 58.5 135t160.5 49q103 0 162 -49t59 -135v-176q0 -86 -59 -134.5t-162 -48.5q-102 0 -160.5 49t-58.5 134z
M422 169v176q0 57 -41 90t-112 33q-70 0 -111 -33t-41 -90v-176q0 -57 41.5 -89.5t110.5 -32.5q71 0 112 32.5t41 89.5z" />
    <glyph glyph-name="Ohungarumlaut" unicode="&#x150;" horiz-adv-x="663" 
d="M193 795l91 106q12 18 30 12l22 -6q19 -7 6 -20l-109 -107q-13 -12 -22 -7l-12 3q-16 5 -6 19zM363 793l94 108q13 18 30 12l24 -6q20 -8 6 -20l-114 -109q-14 -12 -23 -8l-11 4q-17 5 -6 19zM57 237v236q0 119 71.5 185t203.5 66q131 0 202.5 -66t71.5 -185v-236
q0 -119 -71.5 -185t-202.5 -66q-132 0 -203.5 66t-71.5 185zM534 237v236q0 88 -52 136t-150 48t-150.5 -48t-52.5 -136v-236q0 -88 52.5 -136t150.5 -48t150 48t52 136z" />
    <glyph glyph-name="ohungarumlaut" unicode="&#x151;" horiz-adv-x="539" 
d="M141 594l84 98q10 16 28 11l20 -6q19 -5 6 -19l-101 -98q-10 -10 -20 -7l-11 4q-13 4 -6 17zM297 593l88 98q12 15 28 11l22 -6q20 -8 5 -19l-107 -97q-11 -11 -20 -8l-11 4q-15 4 -5 17zM50 169v176q0 86 58.5 135t160.5 49q103 0 162 -49t59 -135v-176
q0 -86 -59 -134.5t-162 -48.5q-102 0 -160.5 49t-58.5 134zM422 169v176q0 57 -41 90t-112 33q-70 0 -111 -33t-41 -90v-176q0 -57 41.5 -89.5t110.5 -32.5q71 0 112 32.5t41 89.5z" />
    <glyph glyph-name="OE" unicode="&#x152;" horiz-adv-x="845" 
d="M495 68h292q11 0 15.5 -4.5t4.5 -15.5v-28q0 -11 -4.5 -15.5t-15.5 -4.5h-344q-55 -15 -111 -15q-132 0 -203.5 66.5t-71.5 185.5v236q0 119 71.5 185.5t203.5 66.5q58 0 111 -15h331q11 0 15.5 -4.5t4.5 -15.5v-28q0 -11 -4.5 -15.5t-15.5 -4.5h-279v-249h234
q11 0 15.5 -4.5t4.5 -15.5v-28q0 -11 -4.5 -15.5t-15.5 -4.5h-234v-257zM129 473v-236q0 -88 52.5 -136t150.5 -48q55 0 91 13v578q-39 13 -91 13q-98 0 -150.5 -48t-52.5 -136z" />
    <glyph glyph-name="oe" unicode="&#x153;" horiz-adv-x="817" 
d="M415 441q43 88 163 88q99 0 148.5 -54t49.5 -152v-56q0 -28 -30 -28h-299v-59q0 -136 128 -136q50 0 78.5 19t53.5 63q12 16 29 7l21 -12q20 -9 7 -28q-30 -56 -73.5 -81.5t-115.5 -25.5q-121 0 -161 85q-42 -85 -165 -85q-92 0 -144.5 48.5t-52.5 133.5v177
q0 86 52.5 135t144.5 49q59 0 102.5 -23t63.5 -65zM709 291v36q0 144 -131 144t-131 -144v-36h262zM380 168v178q0 57 -35.5 89.5t-95.5 32.5t-95 -32.5t-35 -89.5v-178q0 -57 35 -89t95 -32t95.5 32t35.5 89z" />
    <glyph glyph-name="Racute" unicode="&#x154;" horiz-adv-x="644" 
d="M212 797l162 101q24 11 34 -2l15 -18q12 -15 -3 -21l-176 -93q-18 -6 -24 2l-9 11q-12 13 1 20zM98 710h283q99 0 154.5 -54.5t55.5 -152.5q0 -81 -42.5 -132.5t-118.5 -63.5q40 -18 65 -69l112 -218q14 -20 -10 -20h-33q-32 0 -39 18l-97 193q-24 49 -55 68t-88 19h-135
v-278q0 -11 -4 -15.5t-15 -4.5h-33q-11 0 -15.5 4.5t-4.5 15.5v670q0 11 4.5 15.5t15.5 4.5zM516 503q0 67 -37 103t-105 36h-224v-276h224q67 0 104.5 35.5t37.5 101.5z" />
    <glyph glyph-name="racute" unicode="&#x155;" horiz-adv-x="342" 
d="M99 619l162 101q24 11 34 -2l15 -18q12 -15 -3 -21l-176 -93q-18 -6 -24 2l-9 11q-10 13 1 20zM283 529h31q18 0 18 -18v-26q0 -18 -18 -18h-33q-75 0 -132 -21q-17 -8 -17 -26v-402q0 -18 -18 -18h-32q-18 0 -18 18v424q0 23 8 34.5t30 21.5q79 30 181 31z" />
    <glyph glyph-name="Rcommaaccent" unicode="&#x156;" horiz-adv-x="644" 
d="M98 710h283q99 0 154.5 -54.5t55.5 -152.5q0 -81 -42.5 -132.5t-118.5 -63.5q40 -18 65 -69l112 -218q14 -20 -10 -20h-33q-32 0 -39 18l-97 193q-24 49 -55 68t-88 19h-135v-278q0 -11 -4 -15.5t-15 -4.5h-33q-11 0 -15.5 4.5t-4.5 15.5v670q0 11 4.5 15.5t15.5 4.5z
M516 503q0 67 -37 103t-105 36h-224v-276h224q67 0 104.5 35.5t37.5 101.5zM378 -92l-47 -140q-5 -17 -22 -17h-21q-9 0 -11.5 2.5t-0.5 10.5l33 145q1 19 22 19h30q23 0 17 -20z" />
    <glyph glyph-name="rcommaaccent" unicode="&#x157;" horiz-adv-x="342" 
d="M286 529h31q18 0 18 -18v-26q0 -18 -18 -18h-33q-75 0 -132 -21q-17 -8 -17 -26v-402q0 -18 -18 -18h-32q-18 0 -18 18v424q0 23 8 34.5t30 21.5q79 30 181 31zM135 -62l-39 -143q-4 -18 -23 -18h-18q-16 0 -13 15l28 146q1 20 23 20h26q22 0 16 -20z" />
    <glyph glyph-name="Rcaron" unicode="&#x158;" horiz-adv-x="644" 
d="M440 901h27q11 0 13 -5t-4 -10l-122 -107q-17 -17 -34 -17h-8q-13 0 -18.5 2.5t-17.5 14.5l-122 107q-7 5 -5 10t13 5h26q19 0 29 -10l97 -83l96 83q10 10 30 10zM98 710h283q99 0 154.5 -54.5t55.5 -152.5q0 -81 -42.5 -132.5t-118.5 -63.5q40 -18 65 -69l112 -218
q14 -20 -10 -20h-33q-32 0 -39 18l-97 193q-24 49 -55 68t-88 19h-135v-278q0 -11 -4 -15.5t-15 -4.5h-33q-11 0 -15.5 4.5t-4.5 15.5v670q0 11 4.5 15.5t15.5 4.5zM516 503q0 67 -37 103t-105 36h-224v-276h224q67 0 104.5 35.5t37.5 101.5z" />
    <glyph glyph-name="rcaron" unicode="&#x159;" horiz-adv-x="342" 
d="M319 703h25q9 0 11 -5t-4 -10l-111 -99q-16 -15 -31 -15h-8q-17 0 -32 15l-113 100q-6 5 -4 9.5t11 4.5h25q17 0 26 -10l90 -76l87 76q10 10 28 10zM285 529h31q18 0 18 -18v-26q0 -18 -18 -18h-33q-75 0 -132 -21q-17 -8 -17 -26v-402q0 -18 -18 -18h-32q-18 0 -18 18
v424q0 23 8 34.5t30 21.5q79 30 181 31z" />
    <glyph glyph-name="Sacute" unicode="&#x15a;" horiz-adv-x="626" 
d="M218 807l162 100q22 13 34 -1l15 -18q13 -15 -3 -22l-177 -92q-17 -8 -23 1l-9 12q-10 13 1 20zM58 519q0 95 68.5 150t189.5 55q101 0 162.5 -36.5t100.5 -117.5q9 -17 -11 -26l-31 -14q-17 -6 -26 9q-30 61 -76 88.5t-119 27.5q-89 0 -136.5 -34t-47.5 -98
q3 -46 24.5 -71t65.5 -38q47 -15 117 -22q89 -11 139 -29q36 -13 59 -33q53 -48 53 -134q0 -100 -70.5 -155t-201.5 -55q-106 0 -170.5 41.5t-100.5 130.5q-6 20 12 27l31 11q17 6 26 -12q55 -130 202 -130q199 0 199 140q-3 45 -22.5 70t-60.5 38q-40 13 -112 20
q-33 3 -76 10q-23 4 -69 19q-41 13 -63 33q-56 47 -56 135z" />
    <glyph glyph-name="sacute" unicode="&#x15b;" horiz-adv-x="496" 
d="M153 620l162 100q22 13 34 -1l14 -18q14 -14 -2 -22l-177 -92q-15 -7 -23 1l-10 12q-10 13 2 20zM54 379q0 71 51 110.5t146 39.5q156 0 204 -109q11 -18 -9 -26l-25 -11q-16 -7 -25 9q-18 40 -51 58t-93 18q-131 0 -131 -87q3 -36 16.5 -54t44.5 -26q33 -9 90 -14
q84 -7 137 -34q58 -31 58 -114q0 -73 -52.5 -113t-152.5 -40q-168 0 -216 124q-8 18 11 24l26 9q17 5 24 -11q33 -87 153 -87q141 0 141 91q0 46 -32 64.5t-113 27.5q-69 7 -113 21q-32 11 -48 25q-41 36 -41 105z" />
    <glyph glyph-name="Scircumflex" unicode="&#x15c;" horiz-adv-x="626" 
d="M320 911h7q18 0 35 -17l122 -107q14 -15 -9 -15h-27q-21 0 -30 10l-96 83l-97 -83q-10 -10 -29 -10h-26q-22 0 -9 15l123 107q11 12 17 14.5t19 2.5zM58 519q0 95 68.5 150t189.5 55q101 0 162.5 -36.5t100.5 -117.5q9 -17 -11 -26l-31 -14q-17 -6 -26 9q-30 61 -76 88.5
t-119 27.5q-89 0 -136.5 -34t-47.5 -98q3 -46 24.5 -71t65.5 -38q47 -15 117 -22q89 -11 139 -29q36 -13 59 -33q53 -48 53 -134q0 -100 -70.5 -155t-201.5 -55q-106 0 -170.5 41.5t-100.5 130.5q-6 20 12 27l31 11q17 6 26 -12q55 -130 202 -130q199 0 199 140
q-3 45 -22.5 70t-60.5 38q-40 13 -112 20q-33 3 -76 10q-23 4 -69 19q-41 13 -63 33q-56 47 -56 135z" />
    <glyph glyph-name="scircumflex" unicode="&#x15d;" horiz-adv-x="496" 
d="M254 715h8q17 0 33 -16l120 -105q13 -15 -9 -15h-26q-20 0 -30 10l-93 81l-95 -81q-10 -10 -28 -10h-26q-22 0 -9 15l120 105q12 11 17.5 13.5t17.5 2.5zM54 379q0 71 51 110.5t146 39.5q156 0 204 -109q11 -18 -9 -26l-25 -11q-16 -7 -25 9q-18 40 -51 58t-93 18
q-131 0 -131 -87q3 -36 16.5 -54t44.5 -26q33 -9 90 -14q84 -7 137 -34q58 -31 58 -114q0 -73 -52.5 -113t-152.5 -40q-168 0 -216 124q-8 18 11 24l26 9q17 5 24 -11q33 -87 153 -87q141 0 141 91q0 46 -32 64.5t-113 27.5q-69 7 -113 21q-32 11 -48 25q-41 36 -41 105z
" />
    <glyph glyph-name="Scedilla" unicode="&#x15e;" horiz-adv-x="625" 
d="M340 392q89 -11 139 -29q36 -13 59 -33q52 -48 52 -134q0 -94 -62 -148t-179 -61l-23 -62q21 3 26 3q40 0 63.5 -22.5t21.5 -58.5q-3 -46 -35 -70t-84 -24q-49 0 -80 19q-12 4 -12 19v19q0 13 10 7q34 -23 74 -23q33 0 51 15t18 41q0 42 -60 42q-18 0 -33 -3q-9 -1 -12 3
t1 13l32 81q-101 2 -163 43.5t-96 128.5q-8 20 12 27l31 11q11 4 15.5 1.5t9.5 -13.5q57 -130 203 -130q198 0 198 140q-3 45 -22.5 70t-60.5 38t-111 20q-65 6 -123 21q-33 9 -57 23q-85 50 -85 153q0 95 68.5 150t190.5 55q100 0 161.5 -36.5t100.5 -117.5q11 -18 -10 -26
l-31 -14q-11 -4 -16 -2.5t-10 11.5q-30 61 -76 88.5t-119 27.5q-89 0 -136.5 -34t-47.5 -98q3 -46 24.5 -71t65.5 -38q47 -15 117 -22z" />
    <glyph glyph-name="scedilla" unicode="&#x15f;" horiz-adv-x="496" 
d="M54 379q0 71 51 110.5t146 39.5q156 0 204 -109q11 -18 -9 -26l-25 -11q-16 -7 -25 9q-18 40 -51 58t-93 18q-131 0 -131 -87q3 -36 16.5 -54t44.5 -26q33 -9 90 -14q84 -7 137 -34q58 -31 58 -114q0 -69 -47.5 -108.5t-138.5 -44.5l-24 -63q8 2 25 2q39 0 62 -21.5
t21 -55.5q-2 -45 -33 -67.5t-83 -22.5q-47 0 -79 18q-11 5 -11 18v19q0 12 9 6q34 -22 73 -22q32 0 49.5 14.5t17.5 39.5q0 40 -58 41q-22 0 -33 -4q-9 -1 -11.5 3t1.5 13l33 82q-150 7 -194 124q-8 18 11 24l26 9q17 5 24 -11q33 -87 153 -87q141 0 141 91q0 46 -32 64.5
t-113 27.5q-69 7 -113 21q-32 11 -48 25q-41 36 -41 105z" />
    <glyph glyph-name="Scaron" unicode="&#x160;" horiz-adv-x="626" 
d="M446 910h27q23 0 9 -15l-122 -107q-16 -16 -34 -16h-8q-13 0 -18.5 2.5t-17.5 13.5l-122 107q-15 15 8 15h26q19 0 29 -10l97 -83l96 83q10 10 30 10zM58 519q0 95 68.5 150t189.5 55q101 0 162.5 -36.5t100.5 -117.5q9 -17 -11 -26l-31 -14q-17 -6 -26 9
q-30 61 -76 88.5t-119 27.5q-89 0 -136.5 -34t-47.5 -98q3 -46 24.5 -71t65.5 -38q47 -15 117 -22q89 -11 139 -29q36 -13 59 -33q53 -48 53 -134q0 -100 -70.5 -155t-201.5 -55q-106 0 -170.5 41.5t-100.5 130.5q-6 20 12 27l31 11q17 6 26 -12q55 -130 202 -130
q199 0 199 140q-3 45 -22.5 70t-60.5 38q-40 13 -112 20q-33 3 -76 10q-23 4 -69 19q-41 13 -63 33q-56 47 -56 135z" />
    <glyph glyph-name="scaron" unicode="&#x161;" horiz-adv-x="496" 
d="M369 700h24q11 0 13 -5t-5 -10l-110 -96q-13 -15 -31 -15h-7q-17 0 -32 15l-111 97q-6 5 -4 9.5t11 4.5h25q16 0 25 -10l88 -75l87 75q10 10 27 10zM54 379q0 71 51 110.5t146 39.5q156 0 204 -109q11 -18 -9 -26l-25 -11q-16 -7 -25 9q-18 40 -51 58t-93 18
q-131 0 -131 -87q3 -36 16.5 -54t44.5 -26q33 -9 90 -14q84 -7 137 -34q58 -31 58 -114q0 -73 -52.5 -113t-152.5 -40q-168 0 -216 124q-8 18 11 24l26 9q17 5 24 -11q33 -87 153 -87q141 0 141 91q0 46 -32 64.5t-113 27.5q-69 7 -113 21q-32 11 -48 25q-41 36 -41 105z
" />
    <glyph glyph-name="Tcaron" unicode="&#x164;" horiz-adv-x="543" 
d="M396 901h27q11 0 13 -5t-4 -10l-122 -107q-17 -17 -34 -17h-8q-13 0 -18.5 2.5t-17.5 14.5l-122 107q-6 5 -4 10t13 5h26q18 0 28 -10l97 -83l96 83q10 10 30 10zM33 710h477q11 0 15.5 -4.5t4.5 -15.5v-28q0 -11 -4.5 -15.5t-15.5 -4.5h-202v-622q0 -11 -4.5 -15.5
t-15.5 -4.5h-33q-11 0 -15.5 4.5t-4.5 15.5v622h-202q-11 0 -15.5 4.5t-4.5 15.5v28q0 11 4.5 15.5t15.5 4.5z" />
    <glyph glyph-name="tcaron" unicode="&#x165;" horiz-adv-x="359" 
d="M367 722l-44 -150q-8 -17 -21 -17h-16q-8 0 -10.5 2.5t-1.5 10.5l27 154q1 11 5.5 14.5t16.5 3.5h27q23 0 17 -18zM136 634h31q11 0 14.5 -4t3.5 -14v-102h145q18 0 18 -18v-26q0 -18 -18 -18h-145v-260q0 -87 30 -114q28 -28 113 -28q18 0 18 -19v-27q0 -18 -18 -18
q-118 -2 -163 42q-47 44 -47 162v262h-95q-18 0 -18 18v26q0 18 18 18h95v102q0 18 18 18z" />
    <glyph glyph-name="Tbar" unicode="&#x166;" horiz-adv-x="565" 
d="M44 710h477q11 0 15.5 -4.5t4.5 -15.5v-28q0 -11 -4.5 -15.5t-15.5 -4.5h-202v-286h140q13 0 13 -14v-25q0 -9 -2.5 -11.5t-10.5 -2.5h-140v-283q0 -11 -4.5 -15.5t-15.5 -4.5h-33q-11 0 -15.5 4.5t-4.5 15.5v283h-140q-8 0 -10.5 2.5t-2.5 11.5v25q0 14 13 14h140v286
h-202q-11 0 -15.5 4.5t-4.5 15.5v28q0 11 4.5 15.5t15.5 4.5z" />
    <glyph glyph-name="tbar" unicode="&#x167;" horiz-adv-x="366" 
d="M143 635h31q18 0 18 -18v-102h144q18 0 18 -18v-27q0 -18 -18 -18h-144v-163h116q13 0 13 -14v-21q0 -14 -13 -14h-116v-49q0 -86 30 -113q28 -28 113 -28q11 0 14.5 -4t3.5 -14v-27q0 -17 -18 -19q-119 -2 -164 42q-46 43 -46 163v49h-86q-13 0 -13 14v21q0 14 13 14h86
v163h-95q-18 0 -18 18v27q0 18 18 18h95v102q0 18 18 18z" />
    <glyph glyph-name="Utilde" unicode="&#x168;" horiz-adv-x="682" 
d="M461 882h20q11 0 11 -12q0 -100 -78 -100q-37 0 -78 34q-44 33 -68 33q-40 0 -40 -55q0 -12 -12 -12h-20q-12 0 -12 12q0 100 78 100q33 0 81 -33.5t67 -33.5q40 0 40 55q0 12 11 12zM145 690v-449q0 -90 50 -139t146 -49t146 49t50 139v449q0 11 4.5 15.5t15.5 4.5h33
q11 0 15.5 -4.5t4.5 -15.5v-448q0 -121 -69.5 -189t-199.5 -68t-199.5 68t-69.5 189v448q0 11 4.5 15.5t15.5 4.5h33q11 0 15.5 -4.5t4.5 -15.5z" />
    <glyph glyph-name="utilde" unicode="&#x169;" 
d="M393 706h20q12 0 12 -12q0 -100 -78 -100q-36 0 -79 34q-43 33 -68 33q-40 0 -40 -55q0 -12 -12 -12h-20q-12 0 -12 12q0 100 78 100q33 0 81 -33.5t67 -33.5q40 0 40 55q0 12 11 12zM435 514h32q18 0 18 -18v-422q0 -23 -7.5 -34t-30.5 -21q-79 -33 -187 -33
q-198 0 -198 195v315q0 18 18 18h31q11 0 14.5 -4t3.5 -14v-312q0 -137 140 -137q76 0 130 22q18 7 18 28v399q0 18 18 18z" />
    <glyph glyph-name="Umacron" unicode="&#x16a;" horiz-adv-x="682" 
d="M223 850h236q10 0 13.5 -3.5t3.5 -13.5v-16q0 -10 -3.5 -13.5t-13.5 -3.5h-236q-10 0 -13.5 3.5t-3.5 13.5v16q0 17 17 17zM145 690v-449q0 -90 50 -139t146 -49t146 49t50 139v449q0 11 4.5 15.5t15.5 4.5h33q11 0 15.5 -4.5t4.5 -15.5v-448q0 -121 -69.5 -189
t-199.5 -68t-199.5 68t-69.5 189v448q0 11 4.5 15.5t15.5 4.5h33q11 0 15.5 -4.5t4.5 -15.5z" />
    <glyph glyph-name="umacron" unicode="&#x16b;" 
d="M155 671h236q10 0 13.5 -3.5t3.5 -13.5v-16q0 -10 -3.5 -13.5t-13.5 -3.5h-236q-10 0 -13.5 3.5t-3.5 13.5v16q0 17 17 17zM435 514h32q18 0 18 -18v-422q0 -23 -7.5 -34t-30.5 -21q-79 -33 -187 -33q-198 0 -198 195v315q0 18 18 18h31q11 0 14.5 -4t3.5 -14v-312
q0 -137 140 -137q76 0 130 22q18 7 18 28v399q0 18 18 18z" />
    <glyph glyph-name="Ubreve" unicode="&#x16c;" horiz-adv-x="682" 
d="M493 871q-33 -108 -152 -108t-151 108q-4 13 8 18l24 9q14 5 19 -7q21 -78 100 -78t101 78q5 12 16 7l27 -9q12 -5 8 -18zM145 690v-449q0 -90 50 -139t146 -49t146 49t50 139v449q0 11 4.5 15.5t15.5 4.5h33q11 0 15.5 -4.5t4.5 -15.5v-448q0 -121 -69.5 -189
t-199.5 -68t-199.5 68t-69.5 189v448q0 11 4.5 15.5t15.5 4.5h33q11 0 15.5 -4.5t4.5 -15.5z" />
    <glyph glyph-name="ubreve" unicode="&#x16d;" 
d="M425 692q-33 -109 -152 -109q-118 0 -151 109q-5 12 8 17l24 9q14 5 19 -7q21 -77 100 -77q78 0 101 77q5 11 16 8l27 -10q13 -5 8 -17zM435 514h32q18 0 18 -18v-422q0 -23 -7.5 -34t-30.5 -21q-79 -33 -187 -33q-198 0 -198 195v315q0 18 18 18h31q11 0 14.5 -4
t3.5 -14v-312q0 -137 140 -137q76 0 130 22q18 7 18 28v399q0 18 18 18z" />
    <glyph glyph-name="Uring" unicode="&#x16e;" horiz-adv-x="682" 
d="M270 770q-28 27 -28 71t28 72q28 27 74 27q45 0 72 -27.5t27 -71.5t-27 -71t-72 -27q-46 0 -74 27zM390 795q17 17 17 46t-17 46t-46 17q-30 0 -48 -17t-18 -46t18 -46t48 -17q29 0 46 17zM145 690v-449q0 -90 50 -139t146 -49t146 49t50 139v449q0 11 4.5 15.5t15.5 4.5
h33q11 0 15.5 -4.5t4.5 -15.5v-448q0 -121 -69.5 -189t-199.5 -68t-199.5 68t-69.5 189v448q0 11 4.5 15.5t15.5 4.5h33q11 0 15.5 -4.5t4.5 -15.5z" />
    <glyph glyph-name="uring" unicode="&#x16f;" 
d="M203 576q-28 27 -28 71t28 71q29 27 75 27q45 0 72 -27t27 -71t-27 -71t-72 -27q-46 0 -75 27zM324 601q17 17 17 46t-17 46q-19 17 -46 17q-31 0 -49 -17t-18 -46t18 -46t49 -17q27 0 46 17zM435 514h32q18 0 18 -18v-422q0 -23 -7.5 -34t-30.5 -21q-79 -33 -187 -33
q-198 0 -198 195v315q0 18 18 18h31q11 0 14.5 -4t3.5 -14v-312q0 -137 140 -137q76 0 130 22q18 7 18 28v399q0 18 18 18z" />
    <glyph glyph-name="Uhungarumlaut" unicode="&#x170;" horiz-adv-x="682" 
d="M202 785l91 106q12 18 30 12l22 -6q19 -7 6 -20l-109 -107q-13 -12 -22 -7l-12 3q-16 5 -6 19zM372 783l94 108q14 18 30 12l24 -6q20 -8 6 -20l-114 -109q-14 -12 -23 -8l-11 4q-17 5 -6 19zM145 690v-449q0 -90 50 -139t146 -49t146 49t50 139v449q0 11 4.5 15.5
t15.5 4.5h33q11 0 15.5 -4.5t4.5 -15.5v-448q0 -121 -69.5 -189t-199.5 -68t-199.5 68t-69.5 189v448q0 11 4.5 15.5t15.5 4.5h33q11 0 15.5 -4.5t4.5 -15.5z" />
    <glyph glyph-name="uhungarumlaut" unicode="&#x171;" 
d="M134 601l91 106q12 17 30 12l22 -6q19 -7 6 -21l-109 -106q-14 -11 -22 -8l-12 4q-14 5 -6 19zM303 600l96 106q14 17 31 12l23 -7q23 -6 6 -20l-116 -106q-14 -12 -23 -8l-11 4q-16 5 -6 19zM435 514h32q18 0 18 -18v-422q0 -23 -7.5 -34t-30.5 -21q-79 -33 -187 -33
q-198 0 -198 195v315q0 18 18 18h31q11 0 14.5 -4t3.5 -14v-312q0 -137 140 -137q76 0 130 22q18 7 18 28v399q0 18 18 18z" />
    <glyph glyph-name="Uogonek" unicode="&#x172;" horiz-adv-x="682" 
d="M557 710h33q11 0 15.5 -4.5t4.5 -15.5v-448q0 -139 -89 -205q-67 -59 -100 -117q-36 -61 -26 -87q9 -28 39 -28q29 0 51 22q7 6 12 -3l8 -21q3 -9 -2 -14q-37 -36 -90 -36q-64 0 -77 52q-10 36 15.5 88t77.5 104q-37 -12 -88 -12q-130 0 -199.5 68t-69.5 189v448
q0 11 4.5 15.5t15.5 4.5h33q11 0 15.5 -4.5t4.5 -15.5v-449q0 -90 50 -139t146 -49t146 49t50 139v449q0 11 4.5 15.5t15.5 4.5z" />
    <glyph glyph-name="uogonek" unicode="&#x173;" 
d="M435 514h32q18 0 18 -18v-422q0 -29 -16 -42q-54 -53 -79 -111q-27 -60 -17 -88q9 -27 39 -28t51 22q9 7 12 -3l8 -21q4 -7 -1 -14q-39 -36 -90 -36q-65 0 -77 52q-11 38 12 94q23 57 72 105q-61 -18 -139 -18q-198 0 -198 195v315q0 18 18 18h31q11 0 14.5 -4t3.5 -14
v-312q0 -137 140 -137q76 0 130 22q18 7 18 28v399q0 18 18 18z" />
    <glyph glyph-name="Wcircumflex" unicode="&#x174;" horiz-adv-x="881" 
d="M446 901h7q12 0 17.5 -2.5t16.5 -13.5l123 -108q14 -14 -9 -14h-28q-20 0 -29 10l-96 82l-97 -82q-10 -10 -29 -10h-26q-23 0 -9 14l123 108q11 11 16.5 13.5t19.5 2.5zM813 710h35q19 0 13 -19l-178 -674q-5 -17 -26 -17h-31q-22 0 -26 16l-133 484q-12 47 -20 98h-4
q-4 -39 -20 -97l-135 -484q-5 -17 -25 -17h-32q-21 0 -25 16l-179 675q-4 19 13 19h40q13 0 18.5 -3.5t8.5 -14.5l122 -483q1 -4 11 -60q6 -45 7 -47h4q14 84 21 107l133 472q5 18 27 18h31q23 0 27 -18l131 -473q7 -21 22 -106h4q11 72 18 105l122 485q2 11 7.5 14.5
t18.5 3.5z" />
    <glyph glyph-name="wcircumflex" unicode="&#x175;" horiz-adv-x="731" 
d="M368 714h7q18 0 34 -16l119 -105q14 -14 -9 -14h-26q-20 0 -30 10l-93 80l-95 -80q-10 -10 -28 -10h-26q-11 0 -13 4.5t4 9.5l121 105q11 11 16.5 13.5t18.5 2.5zM675 514h20q13 0 16 -4.5t-1 -16.5l-148 -480q-4 -16 -24 -16h-21q-21 0 -25 16l-103 327q-6 21 -12 51
l-4 16.5l-3 12.5t-1 5h-3q-2 -7 -8 -35q-6 -31 -12 -50l-103 -327q-4 -16 -24 -16h-21q-20 0 -24 16l-147 480q-4 12 -1 16.5t16 4.5h23q16 0 22.5 -3.5t8.5 -14.5l91 -310l13 -58l9 -46h3q8 32 11 45q6 34 14 60l96 298q3 11 8 14.5t21 3.5h15q15 0 20 -3.5t9 -14.5
l95 -295q6 -17 16 -62q2 -11 4.5 -21.5l4 -17t1.5 -7.5h3q1 4 9 44q10 48 14 62l90 308q3 12 8.5 15t23.5 3z" />
    <glyph glyph-name="Ycircumflex" unicode="&#x176;" horiz-adv-x="627" 
d="M316 901h7q12 0 17.5 -2.5t17.5 -13.5l122 -108q14 -14 -9 -14h-27q-21 0 -30 10l-96 82l-97 -82q-10 -10 -29 -10h-26q-23 0 -9 14l123 108q11 11 17 13.5t19 2.5zM566 710h38q10 0 13 -6t-3 -14l-261 -402v-268q0 -11 -4.5 -15.5t-15.5 -4.5h-33q-11 0 -15.5 4.5
t-4.5 15.5v269l-261 401q-6 8 -3 14t13 6h41q18 0 25 -3t13 -15l209 -329l211 329q6 12 13 15t25 3z" />
    <glyph glyph-name="ycircumflex" unicode="&#x177;" horiz-adv-x="551" 
d="M272 714h7q12 0 17.5 -2.5t16.5 -13.5l119 -105q14 -14 -9 -14h-26q-20 0 -29 10l-94 80l-95 -80q-10 -10 -28 -10h-26q-11 0 -12.5 4.5t4.5 9.5l120 105q11 11 16.5 13.5t18.5 2.5zM436 514h32q18 0 18 -18v-527q0 -216 -213 -216q-140 0 -199 107q-12 20 7 30l22 11
q18 10 29 -7q44 -80 140 -80q146 0 146 152v59q-90 -26 -157 -26q-198 0 -198 195v302q0 18 18 18h31q11 0 14.5 -4t3.5 -14v-299q0 -137 140 -137q64 0 148 27v409q0 18 18 18z" />
    <glyph glyph-name="Ydieresis" unicode="&#x178;" horiz-adv-x="627" 
d="M218 864h6q19 0 26 -7t7 -25v-8q0 -19 -7 -25.5t-26 -6.5h-6q-19 0 -26 6.5t-7 25.5v8q0 18 7 25t26 7zM412 864h6q19 0 26 -7t7 -25v-8q0 -19 -7 -25.5t-26 -6.5h-6q-19 0 -26 6.5t-7 25.5v8q0 18 7 25t26 7zM566 710h38q10 0 13 -6t-3 -14l-261 -402v-268
q0 -11 -4.5 -15.5t-15.5 -4.5h-33q-11 0 -15.5 4.5t-4.5 15.5v269l-261 401q-6 8 -3 14t13 6h41q18 0 25 -3t13 -15l209 -329l211 329q6 12 13 15t25 3z" />
    <glyph glyph-name="Zacute" unicode="&#x179;" horiz-adv-x="566" 
d="M183 797l162 101q24 11 34 -2l15 -18q13 -16 -3 -21l-176 -93q-16 -6 -24 2l-9 11q-10 13 1 20zM57 710h449q11 0 15.5 -4.5t4.5 -15.5v-27q0 -12 -7 -22l-396 -573h393q20 0 20 -19v-29q0 -11 -4.5 -15.5t-15.5 -4.5h-464q-19 0 -19 20v27q0 16 7 23l395 572h-378
q-11 0 -15.5 4.5t-4.5 15.5v28q0 11 4.5 15.5t15.5 4.5z" />
    <glyph glyph-name="zacute" unicode="&#x17a;" horiz-adv-x="455" 
d="M124 619l162 101q23 11 33 -2l15 -18q13 -16 -3 -21l-176 -93q-16 -6 -24 2l-9 11q-11 14 2 20zM116 61h291q18 0 18 -18v-25q0 -18 -18 -18h-358q-11 0 -14.5 4t-3.5 14v25q0 13 6 20l297 390h-282q-17 0 -17 18v25q0 18 17 18h350q18 0 18 -18v-25q0 -13 -7 -21z" />
    <glyph glyph-name="Zdotaccent" unicode="&#x17b;" horiz-adv-x="566" 
d="M285 862h5q20 0 27 -7t7 -27v-6q0 -19 -7 -26t-27 -7h-5q-20 0 -27 7t-7 26v6q0 20 7.5 27t26.5 7zM57 710h449q11 0 15.5 -4.5t4.5 -15.5v-27q0 -12 -7 -22l-396 -573h393q20 0 20 -19v-29q0 -11 -4.5 -15.5t-15.5 -4.5h-464q-19 0 -19 20v27q0 16 7 23l395 572h-378
q-11 0 -15.5 4.5t-4.5 15.5v28q0 11 4.5 15.5t15.5 4.5z" />
    <glyph glyph-name="zdotaccent" unicode="&#x17c;" horiz-adv-x="455" 
d="M225 683h5q20 0 27 -7.5t7 -26.5v-5q0 -20 -7 -27t-27 -7h-5q-20 0 -27 7t-7 27v5q0 19 7.5 26.5t26.5 7.5zM116 61h291q18 0 18 -18v-25q0 -18 -18 -18h-358q-11 0 -14.5 4t-3.5 14v25q0 13 6 20l297 390h-282q-17 0 -17 18v25q0 18 17 18h350q18 0 18 -18v-25
q0 -13 -7 -21z" />
    <glyph glyph-name="Zcaron" unicode="&#x17d;" horiz-adv-x="566" 
d="M411 901h27q11 0 13 -5t-4 -10l-122 -107q-12 -12 -17.5 -14.5t-16.5 -2.5h-8q-13 0 -18.5 2.5t-16.5 14.5l-123 107q-6 5 -4 10t13 5h26q18 0 28 -10l98 -83l95 83q10 10 30 10zM57 710h449q11 0 15.5 -4.5t4.5 -15.5v-27q0 -12 -7 -22l-396 -573h393q20 0 20 -19v-29
q0 -11 -4.5 -15.5t-15.5 -4.5h-464q-19 0 -19 20v27q0 16 7 23l395 572h-378q-11 0 -15.5 4.5t-4.5 15.5v28q0 11 4.5 15.5t15.5 4.5z" />
    <glyph glyph-name="zcaron" unicode="&#x17e;" horiz-adv-x="455" 
d="M339 699h25q20 0 8 -14l-110 -97q-15 -15 -31 -15h-7q-17 0 -32 15l-111 97q-12 14 7 14h25q16 0 25 -10l88 -75l86 75q10 10 27 10zM116 61h291q18 0 18 -18v-25q0 -18 -18 -18h-358q-11 0 -14.5 4t-3.5 14v25q0 13 6 20l297 390h-282q-17 0 -17 18v25q0 18 17 18h350
q18 0 18 -18v-25q0 -13 -7 -21z" />
    <glyph glyph-name="longs" unicode="&#x17f;" horiz-adv-x="260" 
d="M106 514v26q0 107 49 153.5t161 46.5q18 0 18 -18v-26q0 -19 -18 -19q-81 0 -112 -31t-31 -111v-517q0 -10 -3.5 -14t-14.5 -4h-31q-18 0 -18 18v434h-78q-18 0 -18 18v26q0 18 18 18h78z" />
    <glyph glyph-name="florin" unicode="&#x192;" horiz-adv-x="445" 
d="M185 389l15 147q10 102 61.5 153t154.5 51q18 0 18 -18v-26q0 -19 -18 -19q-71 0 -106 -35.5t-42 -108.5l-16 -144h137q11 0 14.5 -3.5t3.5 -14.5v-27q0 -18 -18 -18h-143l-37 -340q-20 -206 -216 -206q-11 0 -14.5 4t-3.5 14v26q0 19 18 19q71 0 105.5 36t43.5 109
l36 338h-129q-18 0 -18 18v27q0 11 3.5 14.5t14.5 3.5h136z" />
    <glyph glyph-name="Aringacute" unicode="&#x1fa;" horiz-adv-x="640" 
d="M240 888l147 69q23 9 33 -1l13 -15q11 -11 -3 -15l-167 -66q-16 -4 -22 2l-8 8q-9 11 7 18zM226 753q0 43 29 70t74 27q44 0 72 -27t28 -70q0 -57 -56 -75l263 -659q7 -19 -13 -19h-30q-30 0 -36 18l-76 195h-309l-77 -195q-6 -18 -36 -18h-26q-21 0 -14 19l264 659
q-57 18 -57 75zM390 755q0 26 -17.5 42.5t-43.5 16.5q-28 0 -46 -16.5t-18 -42.5q0 -24 18 -39.5t46 -15.5q26 0 43.5 15.5t17.5 39.5zM459 274l-90 235q-10 27 -24 77q-15 54 -16 56h-5l-14 -54q-15 -52 -25 -78l-92 -236h266z" />
    <glyph glyph-name="aringacute" unicode="&#x1fb;" horiz-adv-x="512" 
d="M156 816l152 74q22 9 32 -1l14 -13q11 -11 -3 -16l-165 -69q-16 -5 -22 1l-9 9q-10 7 1 15zM183 600q-28 27 -28 71t28 72q28 27 74 27q45 0 72 -27.5t27 -71.5t-27 -71t-72 -27t-74 27zM303 625q17 17 17 46t-17 46t-46 17q-30 0 -48 -17t-18 -46t18 -46t48 -17
q29 0 46 17zM54 424q56 105 201 105q106 0 153 -51t47 -147v-262q0 -26 -7.5 -37t-28.5 -20q-61 -26 -166 -26q-125 0 -170 38q-46 37 -46 117q0 85 50 120t170 35q45 0 131 -10v46q0 68 -31 102.5t-104 34.5q-100 0 -140 -73q-11 -16 -25 -8l-24 10q-19 7 -10 26zM388 87
v144q-90 9 -138 9q-78 0 -111 -23t-33 -75q0 -53 30.5 -76.5t111.5 -23.5q77 0 121 16q12 5 15.5 10t3.5 19z" />
    <glyph glyph-name="AEacute" unicode="&#x1fc;" horiz-adv-x="831" 
d="M503 797l162 101q24 11 34 -2l14 -18q12 -15 -2 -21l-177 -93q-17 -6 -23 2l-10 11q-11 14 2 20zM501 68h281q19 0 19 -20v-28q0 -20 -19 -20h-332q-11 0 -15.5 4.5t-4.5 15.5v155h-249l-95 -157q-6 -11 -12.5 -14.5t-23.5 -3.5h-31q-20 0 -13 19l414 674q10 17 26 17
h323q11 0 15.5 -4.5t4.5 -15.5v-28q0 -11 -4.5 -15.5t-15.5 -4.5h-268v-249h223q11 0 15 -4.5t4 -15.5v-28q0 -11 -4 -15.5t-15 -4.5h-223v-257zM430 235v354l-213 -354h213z" />
    <glyph glyph-name="aeacute" unicode="&#x1fd;" horiz-adv-x="788" 
d="M286 625l162 100q23 13 34 -1l15 -18q12 -15 -3 -21l-176 -93q-16 -7 -24 1l-9 12q-10 12 1 20zM55 424q55 105 182 105q115 0 151 -87q44 87 161 87q99 0 148.5 -54t49.5 -152v-56q0 -28 -30 -28h-299v-59q0 -136 128 -136q50 0 78.5 19t53.5 63q12 16 30 7l20 -12
q20 -9 7 -28q-30 -56 -73.5 -81.5t-115.5 -25.5q-100 0 -144 60q-52 -60 -166 -60t-155 37q-43 36 -43 116q0 86 45.5 120.5t156.5 34.5q56 0 110 -9v55q0 66 -25 97.5t-90 31.5q-80 0 -121 -72q-10 -15 -25 -9l-24 10q-19 9 -10 26zM680 291v36q0 144 -131 144t-131 -144
v-36h262zM350 163v66q-64 10 -118 10q-70 0 -98 -22.5t-28 -76.5q0 -53 27 -75.5t97 -22.5q102 0 127 55q-7 27 -7 66z" />
    <glyph glyph-name="Oslashacute" unicode="&#x1fe;" horiz-adv-x="663" 
d="M236 807l161 101q24 11 34 -2l15 -18q13 -16 -3 -21l-176 -93q-16 -6 -24 2l-9 11q-11 14 2 20zM573 751h40q8 0 4 -7l-65 -101q57 -63 57 -170v-236q0 -118 -71.5 -184t-202.5 -67q-104 -1 -174 44l-42 -65q-4 -7 -15 -7h-38q-8 0 -4 7l60 96q-62 65 -62 176v236
q0 119 71.5 185t203.5 66q112 0 180 -50l44 70q6 7 14 7zM168 131l308 483q-50 43 -141 43q-98 0 -150.5 -48t-52.5 -136v-236q0 -65 36 -106zM507 571l-307 -480q50 -38 135 -38q98 0 150 48t52 136v236q0 62 -30 98z" />
    <glyph glyph-name="oslashacute" unicode="&#x1ff;" horiz-adv-x="539" 
d="M165 619l162 101q24 11 34 -2l15 -18q12 -15 -3 -21l-176 -93q-18 -6 -24 2l-9 11q-12 13 1 20zM443 552h29q7 0 3 -7l-42 -67q57 -49 57 -133v-176q0 -86 -59 -134.5t-162 -48.5q-77 0 -130 29l-27 -44q-4 -6 -14 -6h-28q-4 0 -4.5 2.5t1.5 4.5l40 64q-57 50 -57 133
v176q0 86 58.5 135t160.5 49q77 0 131 -30l30 47q5 6 13 6zM147 99l219 346q-41 23 -97 23q-70 0 -111 -33t-41 -90v-176q0 -43 30 -70zM393 415l-219 -345q38 -23 95 -23q71 0 112 32.5t41 89.5v176q0 43 -29 70z" />
    <glyph glyph-name="Scommaaccent" unicode="&#x218;" horiz-adv-x="626" 
d="M58 519q0 95 68.5 150t189.5 55q101 0 162.5 -36.5t100.5 -117.5q9 -17 -11 -26l-31 -14q-17 -6 -26 9q-30 61 -76 88.5t-119 27.5q-89 0 -136.5 -34t-47.5 -98q3 -46 24.5 -71t65.5 -38q47 -15 117 -22q89 -11 139 -29q36 -13 59 -33q53 -48 53 -134q0 -100 -70.5 -155
t-201.5 -55q-106 0 -170.5 41.5t-100.5 130.5q-6 20 12 27l31 11q17 6 26 -12q55 -130 202 -130q199 0 199 140q-3 45 -22.5 70t-60.5 38q-40 13 -112 20q-33 3 -76 10q-23 4 -69 19q-41 13 -63 33q-56 47 -56 135zM372 -97l-47 -140q-5 -17 -21 -17h-22q-8 0 -10.5 2.5
t-1.5 10.5l33 145q1 19 22 19h30q25 0 17 -20z" />
    <glyph glyph-name="scommaaccent" unicode="&#x219;" horiz-adv-x="496" 
d="M54 379q0 71 51 110.5t146 39.5q156 0 204 -109q11 -18 -9 -26l-25 -11q-16 -7 -25 9q-18 40 -51 58t-93 18q-131 0 -131 -87q3 -36 16.5 -54t44.5 -26q33 -9 90 -14q84 -7 137 -34q58 -31 58 -114q0 -73 -52.5 -113t-152.5 -40q-168 0 -216 124q-8 18 11 24l26 9
q17 5 24 -11q33 -87 153 -87q141 0 141 91q0 46 -32 64.5t-113 27.5q-69 7 -113 21q-32 11 -48 25q-41 36 -41 105zM304 -70l-40 -134q-5 -17 -23 -17h-17q-16 0 -13 14l29 137q1 20 23 20h26q23 0 15 -20z" />
    <glyph glyph-name="uni021A" unicode="&#x21a;" horiz-adv-x="543" 
d="M33 710h477q11 0 15.5 -4.5t4.5 -15.5v-28q0 -11 -4.5 -15.5t-15.5 -4.5h-202v-622q0 -11 -4.5 -15.5t-15.5 -4.5h-33q-11 0 -15.5 4.5t-4.5 15.5v622h-202q-11 0 -15.5 4.5t-4.5 15.5v28q0 11 4.5 15.5t15.5 4.5zM312 -92l-47 -140q-5 -17 -21 -17h-21q-9 0 -11.5 2.5
t-1.5 10.5l33 145q1 19 23 19h29q25 0 17 -20z" />
    <glyph glyph-name="uni021B" unicode="&#x21b;" horiz-adv-x="359" 
d="M136 634h31q11 0 14.5 -4t3.5 -14v-102h145q18 0 18 -18v-26q0 -18 -18 -18h-145v-260q0 -87 30 -114q28 -28 113 -28q18 0 18 -19v-27q0 -18 -18 -18q-118 -2 -163 42q-47 44 -47 162v262h-95q-18 0 -18 18v26q0 18 18 18h95v102q0 18 18 18zM260 -92l-47 -140
q-5 -17 -22 -17h-21q-9 0 -11.5 2.5t-0.5 10.5l33 145q1 19 22 19h30q23 0 17 -20z" />
    <glyph glyph-name="dotlessj" unicode="&#x237;" horiz-adv-x="201" 
d="M85 514h31q18 0 18 -18v-505q0 -111 -50 -166t-158 -55q-18 0 -18 18v26q0 19 18 19q76 0 108.5 38.5t32.5 120.5v504q0 10 3.5 14t14.5 4z" />
    <glyph glyph-name="circumflex" unicode="&#x2c6;" horiz-adv-x="378" 
d="M198 724h7q12 0 17.5 -2.5t16.5 -13.5l123 -107q14 -15 -9 -15h-28q-20 0 -29 10l-96 83l-97 -83q-10 -10 -29 -10h-26q-22 0 -9 15l123 107q11 12 16 14t20 2z" />
    <glyph glyph-name="caron" unicode="&#x2c7;" horiz-adv-x="332" 
d="M292 724h28q21 0 8 -16l-122 -107q-11 -11 -16.5 -13.5t-17.5 -2.5h-8q-13 0 -18.5 2.5t-16.5 13.5l-123 108q-7 5 -5 10t13 5h27q17 0 28 -11l98 -82l95 82q11 11 30 11z" />
    <glyph glyph-name="breve" unicode="&#x2d8;" horiz-adv-x="287" 
d="M294 698q-33 -109 -152 -109q-120 0 -151 109q-5 12 8 17l24 9q13 4 19 -7q21 -78 100 -78q78 0 101 78q5 11 16 7l27 -9q13 -5 8 -17z" />
    <glyph glyph-name="dotaccent" unicode="&#x2d9;" horiz-adv-x="216" 
d="M106 689h4q20 0 27 -7.5t7 -26.5v-6q0 -19 -7 -26.5t-27 -7.5h-4q-20 0 -27 7.5t-7 26.5v6q0 19 7 26.5t27 7.5z" />
    <glyph glyph-name="ring" unicode="&#x2da;" horiz-adv-x="240" 
d="M48 576q-28 27 -28 71t28 71q29 27 74 27t72 -27t27 -71t-27 -71t-72 -27q-46 0 -74 27zM168 601q17 17 17 46t-17 46t-46 17q-31 0 -48.5 -17t-17.5 -46t17.5 -46t48.5 -17q29 0 46 17z" />
    <glyph glyph-name="ogonek" unicode="&#x2db;" horiz-adv-x="252" 
d="M154 0h48q-50 -46 -73.5 -92.5t-14.5 -74.5t39 -28q29 0 51 22q8 6 12 -3l8 -21q4 -7 -2 -14q-38 -36 -89 -36q-65 0 -78 52q-12 41 14.5 94t84.5 101z" />
    <glyph glyph-name="tilde" unicode="&#x2dc;" horiz-adv-x="305" 
d="M275 711h20q12 0 12 -12q0 -99 -78 -99q-36 0 -79 34q-44 33 -68 33q-40 0 -40 -55q0 -12 -12 -12h-20q-12 0 -12 12q0 99 78 99q33 0 81 -33.5t67 -33.5q40 0 40 55q0 12 11 12z" />
    <glyph glyph-name="hungarumlaut" unicode="&#x2dd;" horiz-adv-x="395" 
d="M68 606l90 107q12 16 31 12l21 -7q20 -6 6 -20l-109 -106q-12 -12 -22 -8l-12 4q-16 4 -5 18zM236 605l96 107q14 17 31 12l23 -7q23 -6 6 -20l-116 -106q-12 -13 -23 -8l-11 4q-16 5 -6 18z" />
    <glyph glyph-name="uni0326" unicode="&#x326;" horiz-adv-x="0" 
d="M171 -92l-47 -140q-5 -17 -21 -17h-22q-15 0 -12 13l33 145q1 19 22 19h30q25 0 17 -20z" />
    <glyph glyph-name="pi" unicode="&#x3c0;" horiz-adv-x="617" 
d="M172 514h414q18 0 18 -18v-25q0 -19 -18 -19h-57v-306q0 -65 25 -108q9 -20 -9 -27l-26 -11q-17 -8 -26 9q-31 56 -31 140v303h-248v-434q0 -10 -3.5 -14t-14.5 -4h-31q-18 0 -18 18v434q-50 -2 -95 -27q-18 -7 -25 7l-11 25q-8 17 9 24q61 33 147 33z" />
    <glyph glyph-name="uni0401" unicode="&#x401;" horiz-adv-x="573" 
d="M202 855h6q19 0 26 -7t7 -25v-8q0 -18 -7 -25t-26 -7h-6q-19 0 -26 7t-7 25v8q0 18 7 25t26 7zM396 855h6q19 0 26 -7t7 -25v-8q0 -18 -7 -25t-26 -7h-6q-19 0 -26 7t-7 25v8q0 18 7 25t26 7zM98 710h405q19 0 19 -20v-28q0 -20 -19 -20h-353v-248h308q19 0 19 -20v-28
q0 -20 -19 -20h-308v-258h366q19 0 19 -20v-28q0 -20 -19 -20h-418q-11 0 -15.5 4.5t-4.5 15.5v670q0 11 4.5 15.5t15.5 4.5z" />
    <glyph glyph-name="uni0410" unicode="&#x410;" horiz-adv-x="641" 
d="M369 697l268 -678q7 -19 -14 -19h-29q-32 0 -36 18l-75 190h-313l-75 -190q-3 -11 -10 -14.5t-25 -3.5h-27q-20 0 -13 19l268 677q6 17 25 17h30q20 0 26 -16zM463 268l-120 307q-14 42 -14 69h-5q0 -32 -12 -69l-121 -307h272z" />
    <glyph glyph-name="uni0411" unicode="&#x411;" horiz-adv-x="628" 
d="M98 710h426q11 0 15.5 -4.5t4.5 -15.5v-28q0 -11 -4.5 -15.5t-15.5 -4.5h-374v-232h236q97 0 153 -54.5t56 -150.5t-56 -150.5t-153 -54.5h-289q-11 0 -15 4t-4 15v671q0 11 4.5 15.5t15.5 4.5zM482 104q37 36 37 101t-37 102q-38 36 -103 36h-229v-275h229q65 0 103 36z
" />
    <glyph glyph-name="uni0412" unicode="&#x412;" horiz-adv-x="643" 
d="M98 710h282q92 0 142.5 -47t50.5 -135q0 -120 -94 -160v-2q119 -32 119 -175q0 -90 -55.5 -140.5t-151.5 -50.5h-293q-11 0 -15.5 4.5t-4.5 15.5v670q0 11 4.5 15.5t15.5 4.5zM499 519q0 123 -128 123h-221v-248h221q128 0 128 125zM488 101q34 33 34 97t-34 98
q-35 33 -100 33h-238v-261h238q66 0 100 33z" />
    <glyph glyph-name="uni0413" unicode="&#x413;" horiz-adv-x="512" 
d="M98 710h378q11 0 15.5 -4.5t4.5 -15.5v-28q0 -11 -4.5 -15.5t-15.5 -4.5h-326v-622q0 -11 -4 -15.5t-15 -4.5h-33q-11 0 -15.5 4.5t-4.5 15.5v670q0 11 4.5 15.5t15.5 4.5z" />
    <glyph glyph-name="uni0414" unicode="&#x414;" horiz-adv-x="712" 
d="M194 710h395q11 0 15.5 -4.5t4.5 -15.5v-622h63q11 0 15.5 -4.5t4.5 -15.5v-181q0 -11 -4.5 -15.5t-15.5 -4.5h-32q-11 0 -15 4.5t-4 15.5v133h-535v-133q0 -20 -19 -20h-32q-11 0 -15.5 4.5t-4.5 15.5v181q0 11 4.5 15.5t15.5 4.5h35q40 27 69 98q35 88 35 321v203
q0 11 4.5 15.5t15.5 4.5zM536 642h-292v-155q0 -189 -23 -283q-24 -93 -63 -136h378v574z" />
    <glyph glyph-name="uni0415" unicode="&#x415;" horiz-adv-x="573" 
d="M98 710h405q19 0 19 -20v-28q0 -20 -19 -20h-353v-248h308q19 0 19 -20v-28q0 -20 -19 -20h-308v-258h366q19 0 19 -20v-28q0 -20 -19 -20h-418q-11 0 -15.5 4.5t-4.5 15.5v670q0 11 4.5 15.5t15.5 4.5z" />
    <glyph glyph-name="uni0416" unicode="&#x416;" horiz-adv-x="917" 
d="M852 710h37q10 0 12.5 -6t-3.5 -13l-215 -321q60 -24 100 -103l126 -247q14 -20 -10 -20h-33q-32 0 -39 18l-111 222q-24 49 -55 68t-88 19h-65v-307q0 -11 -4.5 -15.5t-15.5 -4.5h-33q-11 0 -15.5 4.5t-4.5 15.5v307h-64q-57 0 -88 -19t-56 -68l-111 -222
q-8 -18 -39 -18h-33q-24 0 -10 20l126 247q40 79 100 103l-215 321q-13 19 10 19h36q19 0 26 -3t14 -14l199 -302q18 2 41 2h64v297q0 11 4.5 15.5t15.5 4.5h33q11 0 15.5 -4.5t4.5 -15.5v-297h65q24 0 40 -2l199 302q7 11 14 14t26 3z" />
    <glyph glyph-name="uni0417" unicode="&#x417;" horiz-adv-x="620" 
d="M555 525q0 -120 -91 -157q113 -39 113 -174q0 -100 -64.5 -154t-189.5 -54q-118 0 -186.5 43t-95.5 131q-7 20 12 26l31 11q18 8 26 -13q21 -68 70.5 -99.5t142.5 -31.5q178 0 178 144q0 62 -34 97.5t-96 35.5h-173q-19 0 -19 19v27q0 20 19 20h165q58 0 88.5 33.5
t30.5 89.5q0 67 -41.5 102.5t-121.5 35.5q-89 0 -135.5 -30t-67.5 -98q-7 -16 -26 -12l-31 11q-19 7 -12 25q27 87 93.5 129t182.5 42q113 0 172.5 -51.5t59.5 -147.5z" />
    <glyph glyph-name="uni0418" unicode="&#x418;" horiz-adv-x="694" 
d="M563 710h33q11 0 15.5 -4.5t4.5 -15.5v-670q0 -11 -4.5 -15.5t-15.5 -4.5h-33q-11 0 -15.5 4.5t-4.5 15.5v393q0 101 13 204h-2q-34 -65 -107 -177l-295 -429q-8 -11 -21 -11h-33q-11 0 -15.5 4.5t-4.5 15.5v670q0 11 4.5 15.5t15.5 4.5h33q11 0 15 -4.5t4 -15.5v-382
q0 -112 -12 -215h3q48 92 113 188l288 419q7 10 21 10z" />
    <glyph glyph-name="uni0419" unicode="&#x419;" horiz-adv-x="694" 
d="M514 875q-36 -108 -164 -108q-127 0 -163 108q-4 13 9 17l26 9q15 5 20 -7q24 -77 108 -77q83 0 109 77q5 11 17 8l29 -10q12 -6 9 -17zM563 710h33q11 0 15.5 -4.5t4.5 -15.5v-670q0 -11 -4.5 -15.5t-15.5 -4.5h-33q-11 0 -15.5 4.5t-4.5 15.5v393q0 101 13 204h-2
q-34 -65 -107 -177l-295 -429q-8 -11 -21 -11h-33q-11 0 -15.5 4.5t-4.5 15.5v670q0 11 4.5 15.5t15.5 4.5h33q11 0 15 -4.5t4 -15.5v-382q0 -112 -12 -215h3q48 92 113 188l288 419q7 10 21 10z" />
    <glyph glyph-name="uni041A" unicode="&#x41a;" horiz-adv-x="609" 
d="M462 267l127 -247q11 -20 -11 -20h-32q-19 0 -26.5 3.5t-13.5 14.5l-111 222q-24 49 -55 68t-88 19h-102v-307q0 -11 -4 -15.5t-15 -4.5h-33q-11 0 -15.5 4.5t-4.5 15.5v670q0 11 4.5 15.5t15.5 4.5h33q11 0 15 -4.5t4 -15.5v-297h96h22l224 300q14 17 40 17h36
q11 0 13.5 -6t-3.5 -13l-237 -312q75 -21 121 -112z" />
    <glyph glyph-name="uni041B" unicode="&#x41b;" horiz-adv-x="656" 
d="M175 710h392q11 0 15.5 -4.5t4.5 -15.5v-670q0 -11 -4.5 -15.5t-15.5 -4.5h-33q-11 0 -15 4.5t-4 15.5v622h-288v-177q0 -210 -32 -320q-14 -47 -39 -80q-25 -32 -45 -46q-17 -12 -55 -30q-18 -9 -26 9l-15 29q-9 17 10 27q28 14 41 24q15 10 35 37q20 29 30 68
q25 100 25 281v226q0 20 19 20z" />
    <glyph glyph-name="uni041C" unicode="&#x41c;" horiz-adv-x="800" 
d="M674 710h29q11 0 15.5 -4.5t4.5 -15.5v-670q0 -11 -4.5 -15.5t-15.5 -4.5h-30q-11 0 -15.5 4.5t-4.5 15.5l1 408q0 92 12 177h-4q-30 -73 -77 -156l-152 -268q-7 -15 -23 -15h-20q-16 0 -24 15l-154 271q-37 61 -73 154h-4q11 -96 11 -179v-407q0 -11 -4.5 -15.5
t-15.5 -4.5h-28q-11 0 -15.5 4.5t-4.5 15.5v670q0 11 4.5 15.5t15.5 4.5h26q19 0 28 -16l248 -439l246 438q6 11 11 14t17 3z" />
    <glyph glyph-name="uni041D" unicode="&#x41d;" horiz-adv-x="681" 
d="M551 710h33q19 0 19 -20v-670q0 -20 -19 -20h-33q-11 0 -15.5 4.5t-4.5 15.5v306h-381v-306q0 -11 -4 -15.5t-15 -4.5h-33q-11 0 -15.5 4.5t-4.5 15.5v670q0 11 4.5 15.5t15.5 4.5h33q11 0 15 -4.5t4 -15.5v-296h381v296q0 11 4.5 15.5t15.5 4.5z" />
    <glyph glyph-name="uni041E" unicode="&#x41e;" horiz-adv-x="663" 
d="M57 237v236q0 119 71.5 185t203.5 66q131 0 202.5 -66t71.5 -185v-236q0 -119 -71.5 -185t-202.5 -66q-132 0 -203.5 66t-71.5 185zM534 237v236q0 88 -52 136t-150 48t-150.5 -48t-52.5 -136v-236q0 -88 52.5 -136t150.5 -48t150 48t52 136z" />
    <glyph glyph-name="uni041F" unicode="&#x41f;" horiz-adv-x="675" 
d="M98 710h480q19 0 19 -20v-670q0 -20 -19 -20h-34q-19 0 -19 20v622h-375v-622q0 -11 -4 -15.5t-15 -4.5h-33q-11 0 -15.5 4.5t-4.5 15.5v670q0 11 4.5 15.5t15.5 4.5z" />
    <glyph glyph-name="uni0420" unicode="&#x420;" horiz-adv-x="622" 
d="M98 710h267q105 0 165.5 -59t60.5 -163t-60.5 -162.5t-165.5 -58.5h-215v-247q0 -11 -4 -15.5t-15 -4.5h-33q-11 0 -15.5 4.5t-4.5 15.5v670q0 11 4.5 15.5t15.5 4.5zM150 334h209q73 0 115 41t42 113t-42 113t-115 41h-209v-308z" />
    <glyph glyph-name="uni0421" unicode="&#x421;" horiz-adv-x="636" 
d="M57 237v236q0 119 71 185t203 66q111 0 175 -42t91 -129q7 -20 -12 -26l-31 -11q-19 -4 -26 12q-21 68 -67 98.5t-130 30.5q-98 0 -149.5 -47.5t-51.5 -135.5v-238q0 -87 52.5 -135t148.5 -48q85 0 131.5 31.5t67.5 100.5q7 18 26 13l31 -12q18 -7 12 -25
q-27 -88 -91.5 -131.5t-176.5 -43.5q-131 0 -202.5 66.5t-71.5 184.5z" />
    <glyph glyph-name="uni0422" unicode="&#x422;" horiz-adv-x="543" 
d="M33 710h477q11 0 15.5 -4.5t4.5 -15.5v-28q0 -11 -4.5 -15.5t-15.5 -4.5h-202v-622q0 -11 -4.5 -15.5t-15.5 -4.5h-33q-11 0 -15.5 4.5t-4.5 15.5v622h-202q-11 0 -15.5 4.5t-4.5 15.5v28q0 11 4.5 15.5t15.5 4.5z" />
    <glyph glyph-name="uni0423" unicode="&#x423;" horiz-adv-x="593" 
d="M547 710h33q20 0 11 -20l-330 -672q-5 -11 -11.5 -14.5t-21.5 -3.5h-38q-22 0 -11 20l94 183l-257 487q-9 20 11 20h34q18 0 25 -3t13 -15l212 -409l201 409q6 12 11.5 15t23.5 3z" />
    <glyph glyph-name="uni0424" unicode="&#x424;" horiz-adv-x="828" 
d="M397 735h33q11 0 15.5 -4.5t4.5 -15.5v-65h63q130 0 200 -66.5t70 -187.5v-77q0 -121 -70 -187.5t-200 -66.5h-63v-65q0 -11 -4.5 -15.5t-15.5 -4.5h-33q-11 0 -15 4.5t-4 15.5v65h-64q-130 0 -200 66.5t-70 187.5v77q0 121 70 187.5t200 66.5h64v65q0 11 4 15.5t15 4.5z
M378 585h-64q-96 0 -146.5 -48t-50.5 -138v-83q0 -90 50.5 -138t146.5 -48h64v455zM710 316v83q0 90 -50.5 138t-146.5 48h-63v-455h63q96 0 146.5 48t50.5 138z" />
    <glyph glyph-name="uni0425" unicode="&#x425;" horiz-adv-x="617" 
d="M356 361l246 -340q6 -8 4 -14.5t-14 -6.5h-40q-18 0 -25 3t-13 15l-206 287l-203 -287q-7 -12 -13.5 -15t-24.5 -3h-38q-11 0 -13 6.5t4 14.5l244 340l-237 330q-5 7 -2.5 13t12.5 6h40q16 0 23 -3t15 -14l196 -275l197 275q7 11 13.5 14t22.5 3h40q10 0 12.5 -6
t-2.5 -13z" />
    <glyph glyph-name="uni0426" unicode="&#x426;" horiz-adv-x="696" 
d="M593 68h62q11 0 15.5 -4.5t4.5 -15.5v-181q0 -11 -4.5 -15.5t-15.5 -4.5h-30q-11 0 -15.5 4.5t-4.5 15.5v133h-507q-11 0 -15.5 4.5t-4.5 15.5v670q0 11 4.5 15.5t15.5 4.5h33q11 0 15 -4.5t4 -15.5v-622h371v622q0 11 4.5 15.5t15.5 4.5h33q19 0 19 -20v-622z" />
    <glyph glyph-name="uni0427" unicode="&#x427;" horiz-adv-x="629" 
d="M498 710h33q11 0 15.5 -4.5t4.5 -15.5v-670q0 -11 -4.5 -15.5t-15.5 -4.5h-33q-11 0 -15 4.5t-4 15.5v267q-88 -20 -186 -20q-132 0 -192.5 60.5t-60.5 184.5v178q0 11 4.5 15.5t15.5 4.5h33q11 0 15.5 -4.5t4.5 -15.5v-178q0 -91 43 -134t140 -43q116 0 183 21v334
q0 11 4 15.5t15 4.5z" />
    <glyph glyph-name="uni0428" unicode="&#x428;" horiz-adv-x="912" 
d="M781 710h33q11 0 15.5 -4.5t4.5 -15.5v-670q0 -11 -4.5 -15.5t-15.5 -4.5h-716q-11 0 -15.5 4.5t-4.5 15.5v670q0 11 4.5 15.5t15.5 4.5h33q11 0 15 -4.5t4 -15.5v-622h269v622q0 11 4.5 15.5t15.5 4.5h33q11 0 15.5 -4.5t4.5 -15.5v-622h269v622q0 11 4.5 15.5t15.5 4.5
z" />
    <glyph glyph-name="uni0429" unicode="&#x429;" horiz-adv-x="937" 
d="M834 68h63q11 0 15 -4.5t4 -15.5v-181q0 -11 -4 -15.5t-15 -4.5h-31q-11 0 -15 4.5t-4 15.5v133h-749q-11 0 -15.5 4.5t-4.5 15.5v670q0 11 4.5 15.5t15.5 4.5h33q11 0 15 -4.5t4 -15.5v-622h269v622q0 11 4.5 15.5t15.5 4.5h33q11 0 15.5 -4.5t4.5 -15.5v-622h269v622
q0 11 4.5 15.5t15.5 4.5h33q11 0 15.5 -4.5t4.5 -15.5v-622z" />
    <glyph glyph-name="uni042A" unicode="&#x42a;" horiz-adv-x="729" 
d="M257 443h215q105 0 165.5 -58.5t60.5 -162.5t-60.5 -163t-165.5 -59h-268q-11 0 -15 4.5t-4 15.5v622h-152q-11 0 -15.5 4.5t-4.5 15.5v28q0 11 4.5 15.5t15.5 4.5h204q11 0 15.5 -4.5t4.5 -15.5v-247zM257 68h208q74 0 115.5 40.5t41.5 113.5t-41.5 113.5t-115.5 40.5
h-208v-308z" />
    <glyph glyph-name="uni042B" unicode="&#x42b;" horiz-adv-x="863" 
d="M365 0h-267q-11 0 -15.5 4.5t-4.5 15.5v670q0 11 4.5 15.5t15.5 4.5h33q11 0 15 -4.5t4 -15.5v-247h215q105 0 165.5 -58.5t60.5 -162.5t-60.5 -163t-165.5 -59zM712 20v670q0 11 4.5 15.5t15.5 4.5h33q11 0 15.5 -4.5t4.5 -15.5v-670q0 -11 -4.5 -15.5t-15.5 -4.5h-33
q-11 0 -15.5 4.5t-4.5 15.5zM359 376h-209v-308h209q73 0 115 41t42 113t-42 113t-115 41z" />
    <glyph glyph-name="uni042C" unicode="&#x42c;" horiz-adv-x="622" 
d="M365 0h-267q-11 0 -15.5 4.5t-4.5 15.5v670q0 11 4.5 15.5t15.5 4.5h33q11 0 15 -4.5t4 -15.5v-247h215q105 0 165.5 -58.5t60.5 -162.5t-60.5 -163t-165.5 -59zM359 376h-209v-308h209q73 0 115 41t42 113t-42 113t-115 41z" />
    <glyph glyph-name="uni042D" unicode="&#x42d;" horiz-adv-x="640" 
d="M49 553q27 87 91 129t175 42q132 0 203.5 -66t71.5 -184v-237q0 -118 -72 -184.5t-203 -66.5q-111 0 -176 43t-92 131q-6 19 13 26l31 11q17 7 25 -13q22 -68 69 -99.5t130 -31.5q96 0 148.5 48t52.5 135v89h-299q-11 0 -15.5 4.5t-4.5 15.5v28q0 11 4.5 15.5t15.5 4.5
h299v82q0 88 -51.5 135t-149.5 47q-84 0 -130 -30.5t-67 -97.5q-6 -17 -26 -12l-31 11q-18 7 -12 25z" />
    <glyph glyph-name="uni042E" unicode="&#x42e;" horiz-adv-x="921" 
d="M324 394v80q0 119 70.5 184.5t200.5 65.5q129 0 199 -66t70 -184v-238q0 -118 -70 -184t-199 -66q-130 0 -200.5 65.5t-70.5 184.5v90h-174v-306q0 -11 -4 -15.5t-15 -4.5h-33q-11 0 -15.5 4.5t-4.5 15.5v670q0 11 4.5 15.5t15.5 4.5h33q11 0 15 -4.5t4 -15.5v-296h174z
M792 236v238q0 88 -51 135.5t-146 47.5q-96 0 -147 -47.5t-51 -135.5v-238q0 -88 51 -135.5t147 -47.5q95 0 146 47.5t51 135.5z" />
    <glyph glyph-name="uni042F" unicode="&#x42f;" horiz-adv-x="642" 
d="M62 503q0 98 55.5 152.5t154.5 54.5h284q11 0 15.5 -4.5t4.5 -15.5v-670q0 -11 -4.5 -15.5t-15.5 -4.5h-33q-11 0 -15.5 4.5t-4.5 15.5v278h-138q-57 0 -88.5 -19.5t-53.5 -67.5l-90 -193q-5 -11 -13 -14.5t-27 -3.5h-32q-21 0 -10 20l105 218q22 51 60 69
q-75 14 -114.5 64.5t-39.5 131.5zM503 642h-224q-68 0 -104.5 -36t-36.5 -103q0 -66 37 -101.5t104 -35.5h224v276z" />
    <glyph glyph-name="uni0430" unicode="&#x430;" horiz-adv-x="512" 
d="M54 424q56 105 201 105q106 0 153 -51t47 -147v-262q0 -26 -7.5 -37t-28.5 -20q-61 -26 -166 -26q-125 0 -170 38q-46 37 -46 117q0 85 50 120t170 35q45 0 131 -10v46q0 68 -31 102.5t-104 34.5q-100 0 -140 -73q-11 -16 -25 -8l-24 10q-19 7 -10 26zM388 87v144
q-90 9 -138 9q-78 0 -111 -23t-33 -75q0 -53 30.5 -76.5t111.5 -23.5q77 0 121 16q12 5 15.5 10t3.5 19z" />
    <glyph glyph-name="uni0431" unicode="&#x431;" horiz-adv-x="553" 
d="M333 732h35q55 0 78 13q18 9 26 -12l8 -23q3 -11 1 -15t-12 -10q-31 -16 -99 -16h-36q-122 0 -165 -48q-44 -50 -44 -175v-21q52 79 171 79q99 0 154 -52t55 -143v-128q0 -93 -57 -144t-165 -51q-107 0 -164 51t-57 144v248q0 163 60 234q59 69 211 69zM437 181v128
q0 64 -39.5 99t-114.5 35q-67 0 -107 -32q-40 -33 -46 -67v-163q0 -64 39.5 -99t113.5 -35q75 0 114.5 35t39.5 99z" />
    <glyph glyph-name="uni0432" unicode="&#x432;" horiz-adv-x="533" 
d="M473 380q0 -80 -61 -111q79 -34 79 -127q0 -66 -39.5 -104t-108.5 -38h-258q-19 0 -19 19v477q0 18 19 18h245q68 0 105.5 -35.5t37.5 -98.5zM134 293h189q37 0 59.5 22t22.5 60q0 82 -86 82h-185v-164zM134 58h197q43 0 66.5 23.5t23.5 66.5q0 42 -24 65.5t-68 23.5
h-195v-179z" />
    <glyph glyph-name="uni0433" unicode="&#x433;" horiz-adv-x="425" 
d="M84 514h308q18 0 18 -18v-26q0 -18 -18 -18h-258v-434q0 -18 -18 -18h-32q-18 0 -18 18v478q0 18 18 18z" />
    <glyph glyph-name="uni0434" unicode="&#x434;" horiz-adv-x="594" 
d="M502 62h55q11 0 14.5 -4t3.5 -14v-165q0 -11 -3.5 -14.5t-14.5 -3.5h-29q-18 0 -18 18v121h-428v-121q0 -18 -19 -18h-29q-18 0 -18 18v165q0 18 18 18h30q34 28 53 86q18 57 18 193v155q0 10 3.5 14t14.5 4h331q18 0 18 -18v-434zM200 452v-115q0 -205 -57 -275h291v390
h-234z" />
    <glyph glyph-name="uni0435" unicode="&#x435;" horiz-adv-x="530" 
d="M47 188v130q0 101 57 156t164 55t164.5 -55.5t57.5 -151.5v-55q0 -28 -30 -28h-346v-58q0 -66 39 -101.5t111 -35.5q110 0 157 83q12 16 29 7l21 -11q19 -10 7 -29q-60 -108 -214 -108q-107 0 -162 53t-55 149zM423 291v35q0 69 -40 107t-115 38q-74 0 -114 -38t-40 -107
v-35h309z" />
    <glyph glyph-name="uni0436" unicode="&#x436;" horiz-adv-x="745" 
d="M360 514h29q11 0 15 -3.5t4 -14.5v-201h69q15 0 19 -1l142 206q9 14 36 14h28q26 0 11 -21l-154 -217q42 -16 72 -75l90 -180q6 -11 4 -16t-15 -5h-30q-15 0 -20.5 3t-9.5 13l-76 156q-15 33 -37.5 47t-60.5 14h-68v-214q0 -11 -4 -15t-15 -4h-29q-11 0 -15 4t-4 15v214
h-68q-38 0 -60.5 -14t-37.5 -47l-76 -156q-4 -10 -9.5 -13t-20.5 -3h-30q-13 0 -15 5t4 16l90 180q30 59 72 75l-154 217q-14 21 11 21h28q27 0 36 -14l142 -206q4 1 19 1h69v201q0 11 4 14.5t15 3.5z" />
    <glyph glyph-name="uni0437" unicode="&#x437;" horiz-adv-x="513" 
d="M48 398q5 15 18 34t37 42.5t66.5 39t95.5 15.5q100 0 151 -40t51 -109q0 -86 -72 -112v-4q82 -25 82 -126q0 -72 -52 -112t-156 -40q-111 0 -170 56q-40 38 -59 81q-7 19 13 25l26 9q19 4 26 -13q42 -99 164 -99q139 0 139 99q0 90 -101 90h-109q-18 0 -18 19v19
q0 19 18 19h104q46 0 71 22t25 61q0 44 -33 69.5t-99 25.5q-80 0 -119 -41q-28 -30 -35 -52q-7 -19 -26 -13l-26 9q-20 6 -12 26z" />
    <glyph glyph-name="uni0438" unicode="&#x438;" horiz-adv-x="562" 
d="M84 514h32q18 0 18 -18v-289q0 -53 -11 -117h2q23 43 52 82l252 333q6 9 17 9h32q18 0 18 -18v-478q0 -18 -18 -18h-32q-18 0 -18 18v283q0 49 12 122h-3q-10 -20 -55 -85l-248 -328q-6 -10 -18 -10h-32q-18 0 -18 18v478q0 18 18 18z" />
    <glyph glyph-name="uni0439" unicode="&#x439;" horiz-adv-x="562" 
d="M436 698q-33 -109 -152 -109q-120 0 -151 109q-5 12 8 17l24 9q14 5 19 -7q21 -78 100 -78q78 0 101 78q5 12 16 7l27 -9q13 -5 8 -17zM84 514h32q18 0 18 -18v-289q0 -53 -11 -117h2q23 43 52 82l252 333q6 9 17 9h32q18 0 18 -18v-478q0 -18 -18 -18h-32q-18 0 -18 18
v283q0 49 12 122h-3q-10 -20 -55 -85l-248 -328q-6 -10 -18 -10h-32q-18 0 -18 18v478q0 18 18 18z" />
    <glyph glyph-name="uni043A" unicode="&#x43a;" horiz-adv-x="517" 
d="M404 201l90 -180q11 -21 -11 -21h-30q-15 0 -20.5 3t-10.5 13l-76 156q-28 61 -97 61h-115v-214q0 -11 -4 -15t-15 -4h-30q-11 0 -15 4t-4 15v477q0 18 19 18h30q19 0 19 -18v-201h106h10l160 205q6 9 12.5 11.5t23.5 2.5h28q27 0 12 -21l-169 -211q54 -14 87 -81z" />
    <glyph glyph-name="uni043B" unicode="&#x43b;" horiz-adv-x="537" 
d="M137 514h323q18 0 18 -18v-478q0 -18 -18 -18h-32q-18 0 -18 18v433h-226v-123q0 -184 -42 -256q-21 -34 -41 -52t-53 -33q-15 -6 -22 9l-15 31q-7 12 7 20q21 10 30.5 17t24.5 26q16 19 25 48q21 69 21 194v164q0 18 18 18z" />
    <glyph glyph-name="uni043C" unicode="&#x43c;" horiz-adv-x="638" 
d="M527 514h25q12 0 16 -4t4 -15v-476q0 -11 -4 -15t-15 -4h-25q-12 0 -15.5 4t-3.5 15v272q0 42 11 127h-3q-15 -40 -49 -99l-117 -207q-8 -14 -23 -14h-16q-16 0 -24 15l-116 202q-25 44 -51 103h-3q11 -90 11 -133v-266q0 -11 -3.5 -15t-14.5 -4h-26q-11 0 -15 4t-4 15
v476q0 11 4.5 15t16.5 4h22q18 0 27 -15l184 -326l182 325q7 16 25 16z" />
    <glyph glyph-name="uni043D" unicode="&#x43d;" horiz-adv-x="557" 
d="M441 514h32q18 0 18 -18v-478q0 -18 -18 -18h-32q-18 0 -18 18v215h-289v-215q0 -18 -18 -18h-32q-18 0 -18 18v478q0 18 18 18h32q18 0 18 -18v-201h289v201q0 18 18 18z" />
    <glyph glyph-name="uni043E" unicode="&#x43e;" horiz-adv-x="539" 
d="M50 169v176q0 86 58.5 135t160.5 49q103 0 162 -49t59 -135v-176q0 -86 -59 -134.5t-162 -48.5q-102 0 -160.5 49t-58.5 134zM422 169v176q0 57 -41 90t-112 33q-70 0 -111 -33t-41 -90v-176q0 -57 41.5 -89.5t110.5 -32.5q71 0 112 32.5t41 89.5z" />
    <glyph glyph-name="uni043F" unicode="&#x43f;" horiz-adv-x="552" 
d="M84 514h384q18 0 18 -18v-478q0 -18 -18 -18h-31q-11 0 -14.5 4t-3.5 14v434h-285v-434q0 -18 -18 -18h-32q-18 0 -18 18v478q0 18 18 18z" />
    <glyph glyph-name="uni0440" unicode="&#x440;" horiz-adv-x="537" 
d="M104 500q75 29 175 29q208 0 208 -200v-144q0 -199 -205 -199q-66 0 -150 34v-222q0 -18 -18 -18h-32q-18 0 -18 18v646q0 24 8 35t32 21zM420 187v140q0 140 -149 140q-69 0 -120 -19q-13 -5 -16 -10t-3 -17v-339q75 -35 145 -35q143 0 143 140z" />
    <glyph glyph-name="uni0441" unicode="&#x441;" horiz-adv-x="515" 
d="M49 183v149q0 94 55.5 145.5t162.5 51.5q169 0 209 -135q6 -19 -12 -26l-26 -9q-18 -6 -25 12q-16 51 -50.5 74.5t-97.5 23.5q-72 0 -110.5 -35.5t-38.5 -99.5v-153q0 -64 39 -100t110 -36q118 0 149 103q7 16 26 12l26 -8q19 -7 12 -26q-47 -140 -215 -140
q-104 0 -159 51.5t-55 145.5z" />
    <glyph glyph-name="uni0442" unicode="&#x442;" horiz-adv-x="449" 
d="M32 514h385q11 0 14.5 -4t3.5 -14v-26q0 -18 -18 -18h-158v-434q0 -18 -18 -18h-31q-18 0 -18 18v434h-160q-18 0 -18 18v26q0 18 18 18z" />
    <glyph glyph-name="uni0443" unicode="&#x443;" horiz-adv-x="551" 
d="M436 514h32q18 0 18 -18v-527q0 -216 -213 -216q-140 0 -199 107q-12 20 7 30l22 11q18 10 29 -7q44 -80 140 -80q146 0 146 152v59q-90 -26 -157 -26q-198 0 -198 195v302q0 18 18 18h31q11 0 14.5 -4t3.5 -14v-299q0 -137 140 -137q64 0 148 27v409q0 18 18 18z" />
    <glyph glyph-name="uni0444" unicode="&#x444;" horiz-adv-x="739" 
d="M403 722v-198q31 4 73 5q96 0 156 -48q59 -48 59 -160v-128q0 -207 -215 -207q-26 0 -73 5v-193q0 -18 -17 -18h-32q-18 0 -18 18v193q-45 -5 -74 -5q-214 0 -214 207v123q0 108 57 160.5t157 52.5q43 -1 74 -5v198q0 18 18 18h32q17 0 17 -18zM116 314v-119
q0 -147 150 -147q44 0 72 4v411q-43 4 -72 4q-28 0 -53 -7t-47.5 -23t-36 -47.5t-13.5 -75.5zM623 195v125q0 147 -151 147q-27 0 -70 -4v-411q28 -4 70 -4q151 0 151 147z" />
    <glyph glyph-name="uni0445" unicode="&#x445;" horiz-adv-x="487" 
d="M430 514h30q26 0 12 -20l-171 -230l182 -244q14 -20 -13 -20h-30q-22 0 -32 15l-150 201l-149 -201q-9 -15 -32 -15h-28q-28 0 -13 20l182 244l-174 230q-14 20 14 20h28q22 0 33 -15l140 -186l140 186q7 10 12 12.5t19 2.5z" />
    <glyph glyph-name="uni0446" unicode="&#x446;" horiz-adv-x="572" 
d="M480 62h55q11 0 14.5 -4t3.5 -14v-165q0 -11 -3.5 -14.5t-14.5 -3.5h-29q-18 0 -18 18v121h-404q-18 0 -18 18v478q0 18 18 18h32q18 0 18 -18v-434h279v434q0 10 3.5 14t14.5 4h31q18 0 18 -18v-434z" />
    <glyph glyph-name="uni0447" unicode="&#x447;" horiz-adv-x="509" 
d="M34 370v126q0 18 18 18h32q18 0 18 -18v-124q0 -64 34 -94t108 -30q48 0 132 21v227q0 18 17 18h32q18 0 18 -18v-478q0 -18 -18 -18h-32q-17 0 -17 18v188q-75 -19 -141 -19q-102 0 -151.5 45t-49.5 138z" />
    <glyph glyph-name="uni0448" unicode="&#x448;" horiz-adv-x="763" 
d="M647 514h31q18 0 18 -18v-478q0 -18 -18 -18h-594q-18 0 -18 18v478q0 18 18 18h32q18 0 18 -18v-434h214v434q0 18 18 18h31q18 0 18 -18v-434h214v434q0 18 18 18z" />
    <glyph glyph-name="uni0449" unicode="&#x449;" horiz-adv-x="788" 
d="M696 62h55q18 0 18 -18v-165q0 -18 -18 -18h-29q-19 0 -19 18v121h-619q-18 0 -18 18v478q0 18 18 18h32q18 0 18 -18v-434h214v434q0 18 18 18h31q18 0 18 -18v-434h214v434q0 18 18 18h31q18 0 18 -18v-434z" />
    <glyph glyph-name="uni044A" unicode="&#x44a;" horiz-adv-x="610" 
d="M228 352h174q84 0 131.5 -46t47.5 -129q0 -84 -47.5 -130.5t-131.5 -46.5h-223q-11 0 -14.5 4t-3.5 14v434h-129q-18 0 -18 18v26q0 18 18 18h178q18 0 18 -18v-144zM228 61h166q55 0 86 30.5t31 85.5t-30.5 84.5t-86.5 29.5h-166v-230z" />
    <glyph glyph-name="uni044B" unicode="&#x44b;" horiz-adv-x="701" 
d="M134 352h173q84 0 132 -46t48 -129q0 -84 -47.5 -130.5t-132.5 -46.5h-223q-18 0 -18 18v478q0 18 18 18h32q18 0 18 -18v-144zM585 514h32q18 0 18 -18v-478q0 -18 -18 -18h-32q-18 0 -18 18v478q0 18 18 18zM134 61h165q56 0 87 30.5t31 85.5q0 54 -31 84t-87 30h-165
v-230z" />
    <glyph glyph-name="uni044C" unicode="&#x44c;" horiz-adv-x="516" 
d="M134 352h173q84 0 132 -46t48 -129q0 -84 -47.5 -130.5t-132.5 -46.5h-223q-18 0 -18 18v478q0 18 18 18h32q18 0 18 -18v-144zM134 61h165q56 0 87 30.5t31 85.5q0 54 -31 84t-87 30h-165v-230z" />
    <glyph glyph-name="uni044D" unicode="&#x44d;" horiz-adv-x="512" 
d="M44 394q40 135 208 135q107 0 162.5 -51.5t55.5 -145.5v-148q0 -95 -54.5 -146.5t-158.5 -51.5q-169 0 -215 141q-8 17 12 25l27 8q18 7 25 -12q32 -102 149 -102q71 0 109 35.5t38 99.5v51h-203q-18 0 -18 18v24q0 18 18 18h203v42q0 65 -37.5 100t-109.5 35
q-62 0 -96.5 -23.5t-50.5 -74.5q-7 -19 -25 -12l-27 9q-16 7 -12 26z" />
    <glyph glyph-name="uni044E" unicode="&#x44e;" horiz-adv-x="746" 
d="M265 292v55q0 85 57 133.5t157 48.5q102 0 159 -48.5t57 -133.5v-180q0 -85 -57 -133t-159 -48q-100 0 -157 48t-57 133v63h-131v-212q0 -18 -18 -18h-32q-18 0 -18 18v478q0 18 18 18h32q18 0 18 -18v-204h131zM627 167v180q0 57 -39.5 89t-108.5 32q-67 0 -106.5 -32
t-39.5 -89v-180q0 -56 39.5 -88t106.5 -32q69 0 108.5 32t39.5 88z" />
    <glyph glyph-name="uni044F" unicode="&#x44f;" horiz-adv-x="526" 
d="M213 514h231q18 0 18 -18v-478q0 -18 -18 -18h-31q-11 0 -14.5 4t-3.5 14v167h-163l-111 -169q-6 -11 -11.5 -13.5t-21.5 -2.5h-29q-29 0 -13 22l117 172q-55 11 -86.5 52t-31.5 103q0 77 45 121t123 44zM395 454h-174q-49 0 -77.5 -28.5t-28.5 -76.5q0 -47 28.5 -75
t77.5 -28h174v208z" />
    <glyph glyph-name="uni0451" unicode="&#x451;" horiz-adv-x="530" 
d="M168 688h6q19 0 26 -7.5t7 -25.5v-8q0 -18 -7 -25t-26 -7h-6q-19 0 -25.5 7t-6.5 25v8q0 18 7 25.5t25 7.5zM363 688h5q19 0 26 -7.5t7 -25.5v-8q0 -18 -7 -25t-26 -7h-5q-19 0 -26.5 7t-7.5 25v8q0 18 7.5 25.5t26.5 7.5zM47 188v130q0 101 57 156t164 55t164.5 -55.5
t57.5 -151.5v-55q0 -28 -30 -28h-346v-58q0 -66 39 -101.5t111 -35.5q110 0 157 83q12 16 29 7l21 -11q19 -10 7 -29q-60 -108 -214 -108q-107 0 -162 53t-55 149zM423 291v35q0 69 -40 107t-115 38q-74 0 -114 -38t-40 -107v-35h309z" />
    <glyph glyph-name="Wgrave" unicode="&#x1e80;" horiz-adv-x="881" 
d="M342 873l15 18q11 14 34 1l164 -97q11 -7 1 -20l-9 -11q-8 -8 -24 -1l-178 89q-16 5 -3 21zM813 710h35q19 0 13 -19l-178 -674q-5 -17 -26 -17h-31q-22 0 -26 16l-133 484q-12 47 -20 98h-4q-4 -39 -20 -97l-135 -484q-5 -17 -25 -17h-32q-21 0 -25 16l-179 675
q-4 19 13 19h40q13 0 18.5 -3.5t8.5 -14.5l122 -483q1 -4 11 -60q6 -45 7 -47h4q14 84 21 107l133 472q5 18 27 18h31q23 0 27 -18l131 -473q7 -21 22 -106h4q11 72 18 105l122 485q2 11 7.5 14.5t18.5 3.5z" />
    <glyph glyph-name="wgrave" unicode="&#x1e81;" horiz-adv-x="731" 
d="M265 700l15 18q10 13 34 2l162 -101q11 -7 1 -20l-9 -11q-8 -8 -24 -2l-176 93q-15 6 -3 21zM675 514h20q13 0 16 -4.5t-1 -16.5l-148 -480q-4 -16 -24 -16h-21q-21 0 -25 16l-103 327q-6 21 -12 51l-4 16.5l-3 12.5t-1 5h-3q-2 -7 -8 -35q-6 -31 -12 -50l-103 -327
q-4 -16 -24 -16h-21q-20 0 -24 16l-147 480q-4 12 -1 16.5t16 4.5h23q16 0 22.5 -3.5t8.5 -14.5l91 -310l13 -58l9 -46h3q8 32 11 45q6 34 14 60l96 298q3 11 8 14.5t21 3.5h15q15 0 20 -3.5t9 -14.5l95 -295q6 -17 16 -62q2 -11 4.5 -21.5l4 -17t1.5 -7.5h3q1 4 9 44
q10 48 14 62l90 308q3 12 8.5 15t23.5 3z" />
    <glyph glyph-name="Wacute" unicode="&#x1e82;" horiz-adv-x="881" 
d="M344 797l162 101q24 11 34 -2l14 -18q13 -15 -2 -21l-177 -93q-17 -6 -23 2l-10 11q-11 14 2 20zM813 710h35q19 0 13 -19l-178 -674q-5 -17 -26 -17h-31q-22 0 -26 16l-133 484q-12 47 -20 98h-4q-4 -39 -20 -97l-135 -484q-5 -17 -25 -17h-32q-21 0 -25 16l-179 675
q-4 19 13 19h40q13 0 18.5 -3.5t8.5 -14.5l122 -483q1 -4 11 -60q6 -45 7 -47h4q14 84 21 107l133 472q5 18 27 18h31q23 0 27 -18l131 -473q7 -21 22 -106h4q11 72 18 105l122 485q2 11 7.5 14.5t18.5 3.5z" />
    <glyph glyph-name="wacute" unicode="&#x1e83;" horiz-adv-x="731" 
d="M266 619l162 101q24 11 34 -2l15 -18q12 -15 -3 -21l-177 -93q-17 -6 -23 2l-9 11q-12 13 1 20zM675 514h20q13 0 16 -4.5t-1 -16.5l-148 -480q-4 -16 -24 -16h-21q-21 0 -25 16l-103 327q-6 21 -12 51l-4 16.5l-3 12.5t-1 5h-3q-2 -7 -8 -35q-6 -31 -12 -50l-103 -327
q-4 -16 -24 -16h-21q-20 0 -24 16l-147 480q-4 12 -1 16.5t16 4.5h23q16 0 22.5 -3.5t8.5 -14.5l91 -310l13 -58l9 -46h3q8 32 11 45q6 34 14 60l96 298q3 11 8 14.5t21 3.5h15q15 0 20 -3.5t9 -14.5l95 -295q6 -17 16 -62q2 -11 4.5 -21.5l4 -17t1.5 -7.5h3q1 4 9 44
q10 48 14 62l90 308q3 12 8.5 15t23.5 3z" />
    <glyph glyph-name="Wdieresis" unicode="&#x1e84;" horiz-adv-x="881" 
d="M347 864h7q19 0 26 -7t7 -25v-8q0 -19 -7 -25.5t-26 -6.5h-7q-18 0 -25 6.5t-7 25.5v8q0 18 7 25t25 7zM542 864h6q18 0 25.5 -7t7.5 -25v-8q0 -18 -7.5 -25t-25.5 -7h-6q-19 0 -26 6.5t-7 25.5v8q0 18 7 25t26 7zM813 710h35q19 0 13 -19l-178 -674q-5 -17 -26 -17h-31
q-22 0 -26 16l-133 484q-12 47 -20 98h-4q-4 -39 -20 -97l-135 -484q-5 -17 -25 -17h-32q-21 0 -25 16l-179 675q-4 19 13 19h40q13 0 18.5 -3.5t8.5 -14.5l122 -483q1 -4 11 -60q6 -45 7 -47h4q14 84 21 107l133 472q5 18 27 18h31q23 0 27 -18l131 -473q7 -21 22 -106h4
q11 72 18 105l122 485q2 11 7.5 14.5t18.5 3.5z" />
    <glyph glyph-name="wdieresis" unicode="&#x1e85;" horiz-adv-x="731" 
d="M270 687h6q19 0 26 -7t7 -25v-8q0 -19 -7 -26t-26 -7h-6q-19 0 -26 7t-7 26v8q0 18 7 25t26 7zM464 687h6q19 0 26 -7t7 -25v-8q0 -19 -7 -26t-26 -7h-6q-19 0 -26 7t-7 26v8q0 18 7 25t26 7zM675 514h20q13 0 16 -4.5t-1 -16.5l-148 -480q-4 -16 -24 -16h-21
q-21 0 -25 16l-103 327q-6 21 -12 51l-4 16.5l-3 12.5t-1 5h-3q-2 -7 -8 -35q-6 -31 -12 -50l-103 -327q-4 -16 -24 -16h-21q-20 0 -24 16l-147 480q-4 12 -1 16.5t16 4.5h23q16 0 22.5 -3.5t8.5 -14.5l91 -310l13 -58l9 -46h3q8 32 11 45q6 34 14 60l96 298q3 11 8 14.5
t21 3.5h15q15 0 20 -3.5t9 -14.5l95 -295q6 -17 16 -62q2 -11 4.5 -21.5l4 -17t1.5 -7.5h3q1 4 9 44q10 48 14 62l90 308q3 12 8.5 15t23.5 3z" />
    <glyph glyph-name="Ygrave" unicode="&#x1ef2;" horiz-adv-x="627" 
d="M212 873l15 18q11 14 34 1l164 -97q11 -7 1 -20l-9 -11q-7 -8 -24 -1l-178 89q-15 6 -3 21zM566 710h38q10 0 13 -6t-3 -14l-261 -402v-268q0 -11 -4.5 -15.5t-15.5 -4.5h-33q-11 0 -15.5 4.5t-4.5 15.5v269l-261 401q-6 8 -3 14t13 6h41q18 0 25 -3t13 -15l209 -329
l211 329q6 12 13 15t25 3z" />
    <glyph glyph-name="ygrave" unicode="&#x1ef3;" horiz-adv-x="551" 
d="M169 700l15 18q10 13 34 2l162 -101q13 -7 1 -20l-9 -11q-6 -8 -24 -2l-176 93q-15 6 -3 21zM436 514h32q18 0 18 -18v-527q0 -216 -213 -216q-140 0 -199 107q-12 20 7 30l22 11q18 10 29 -7q44 -80 140 -80q146 0 146 152v59q-90 -26 -157 -26q-198 0 -198 195v302
q0 18 18 18h31q11 0 14.5 -4t3.5 -14v-299q0 -137 140 -137q64 0 148 27v409q0 18 18 18z" />
    <glyph glyph-name="endash" unicode="&#x2013;" horiz-adv-x="575" 
d="M81 300h413q11 0 15.5 -4.5t4.5 -15.5v-25q0 -11 -4.5 -15.5t-15.5 -4.5h-413q-19 0 -19 20v25q0 20 19 20z" />
    <glyph glyph-name="emdash" unicode="&#x2014;" horiz-adv-x="774" 
d="M81 300h612q11 0 15.5 -4.5t4.5 -15.5v-26q0 -11 -4.5 -15.5t-15.5 -4.5h-612q-11 0 -15.5 4.5t-4.5 15.5v26q0 11 4.5 15.5t15.5 4.5z" />
    <glyph glyph-name="quoteleft" unicode="&#x2018;" horiz-adv-x="198" 
d="M60 530l56 162q8 18 23 18h12q9 0 11.5 -3t1.5 -11l-34 -166q-2 -13 -7.5 -17.5t-17.5 -4.5h-27q-27 0 -18 22z" />
    <glyph glyph-name="quoteright" unicode="&#x2019;" horiz-adv-x="193" 
d="M159 688l-56 -162q-7 -18 -23 -18h-12q-9 0 -11.5 3t-1.5 11l34 166q2 13 7.5 17.5t17.5 4.5h27q27 0 18 -22z" />
    <glyph glyph-name="quotesinglbase" unicode="&#x201a;" horiz-adv-x="171" 
d="M119 92l-12 -200q-3 -18 -20 -18h-15q-18 0 -18 18v200q0 18 18 18h29q19 0 18 -18z" />
    <glyph glyph-name="quotedblleft" unicode="&#x201c;" horiz-adv-x="319" 
d="M60 530l56 162q8 18 23 18h12q9 0 11.5 -3t1.5 -11l-34 -166q-2 -13 -7.5 -17.5t-17.5 -4.5h-27q-27 0 -18 22zM180 530l57 162q8 18 23 18h12q9 0 11.5 -3t1.5 -11l-34 -166q-2 -13 -7.5 -17.5t-18.5 -4.5h-26q-26 0 -19 22z" />
    <glyph glyph-name="quotedblright" unicode="&#x201d;" horiz-adv-x="314" 
d="M159 688l-56 -162q-7 -18 -23 -18h-12q-9 0 -11.5 3t-1.5 11l34 166q2 13 7.5 17.5t17.5 4.5h27q27 0 18 -22zM280 688l-56 -162q-8 -18 -23 -18h-12q-16 0 -13 14l34 166q2 13 7.5 17.5t17.5 4.5h26q28 0 19 -22z" />
    <glyph glyph-name="quotedblbase" unicode="&#x201e;" horiz-adv-x="302" 
d="M131 59l-57 -162q-4 -18 -22 -18h-13q-15 0 -12 14l34 166q1 22 25 22h26q28 0 19 -22zM252 59l-57 -162q-5 -18 -22 -18h-13q-16 0 -12 14l33 166q2 13 7.5 17.5t18.5 4.5h26q28 0 19 -22z" />
    <glyph glyph-name="dagger" unicode="&#x2020;" horiz-adv-x="532" 
d="M301 478h180q11 0 15.5 -4.5t4.5 -15.5v-28q0 -11 -4.5 -15.5t-15.5 -4.5h-180v-490q0 -11 -4.5 -15.5t-15.5 -4.5h-29q-19 0 -19 20v490h-182q-19 0 -19 20v28q0 20 19 20h182v212q0 20 19 20h29q11 0 15.5 -4.5t4.5 -15.5v-212z" />
    <glyph glyph-name="daggerdbl" unicode="&#x2021;" horiz-adv-x="578" 
d="M275 710h29q19 0 19 -20v-212h180q11 0 15.5 -4.5t4.5 -15.5v-28q0 -11 -4.5 -15.5t-15.5 -4.5h-180v-212h181q11 0 15.5 -4t4.5 -15v-28q0 -11 -4.5 -15.5t-15.5 -4.5h-181v-211q0 -20 -19 -20h-29q-11 0 -15.5 4.5t-4.5 15.5v211h-181q-11 0 -15 4.5t-4 15.5v28
q0 11 4 15t15 4h181v212h-181q-11 0 -15.5 4.5t-4.5 15.5v28q0 11 4.5 15.5t15.5 4.5h181v212q0 11 4.5 15.5t15.5 4.5z" />
    <glyph glyph-name="bullet" unicode="&#x2022;" horiz-adv-x="304" 
d="M203 213q-31 -34 -78.5 -15t-43.5 65q0 31 20 51.5t51 20.5t51 -20.5t20 -51.5q0 -30 -20 -50z" />
    <glyph glyph-name="ellipsis" unicode="&#x2026;" horiz-adv-x="607" 
d="M90 80h6q23 0 31 -8.5t8 -31.5v-6q0 -23 -8.5 -31.5t-30.5 -8.5h-6q-23 0 -31.5 8.5t-8.5 31.5v6q0 23 8.5 31.5t31.5 8.5zM300 80h6q23 0 31.5 -8.5t8.5 -31.5v-6q0 -22 -9 -31t-31 -9h-6q-23 0 -31 8.5t-8 31.5v6q0 23 8 31.5t31 8.5zM511 80h6q23 0 31 -8.5t8 -31.5
v-6q0 -23 -8.5 -31.5t-30.5 -8.5h-6q-23 0 -31.5 8.5t-8.5 31.5v6q0 23 8.5 31.5t31.5 8.5z" />
    <glyph glyph-name="perthousand" unicode="&#x2030;" horiz-adv-x="1181" 
d="M36 505v73q0 69 41.5 108t116.5 39q77 0 118 -38.5t41 -108.5v-73q0 -69 -41 -107.5t-118 -38.5q-75 0 -116.5 38.5t-41.5 107.5zM654 710h27q22 0 9 -19l-495 -673q-8 -12 -14.5 -15t-24.5 -3h-23q-11 0 -14 6t3 14l496 673q8 11 14 14t22 3zM296 508v68
q0 45 -26.5 69.5t-75.5 24.5q-48 0 -74.5 -24.5t-26.5 -69.5v-68q0 -45 26.5 -69.5t74.5 -24.5q49 0 75.5 24.5t26.5 69.5zM459 130v74q0 69 41.5 108t116.5 39q77 0 118 -38.5t41 -108.5v-74q0 -69 -41 -107t-118 -38q-75 0 -116.5 38t-41.5 107zM831 130v74q0 69 41.5 108
t116.5 39q77 0 118 -38.5t41 -108.5v-74q0 -69 -41 -107t-118 -38q-75 0 -116.5 38t-41.5 107zM718 134v67q0 45 -26 70t-75 25t-75 -25t-26 -70v-67q0 -45 26 -70t75 -25t75 25t26 70zM1090 134v67q0 45 -26 70t-75 25t-75 -25t-26 -70v-67q0 -45 26 -70t75 -25t75 25
t26 70z" />
    <glyph glyph-name="guilsinglleft" unicode="&#x2039;" horiz-adv-x="336" 
d="M125 264l167 -167q11 -11 0 -23l-21 -21q-12 -11 -24 0l-198 198q-11 11 0 23l201 201q12 14 23 0l20 -20q11 -12 0 -23z" />
    <glyph glyph-name="guilsinglright" unicode="&#x203a;" horiz-adv-x="336" 
d="M231 264l-168 168q-11 11 0 23l20 20q12 14 23 0l201 -201q11 -12 0 -23l-198 -198q-12 -11 -24 0l-21 21q-11 12 0 23z" />
    <glyph glyph-name="fraction" unicode="&#x2044;" horiz-adv-x="159" 
d="M-201 20l495 673q7 11 13.5 14t22.5 3h26q10 0 13 -5.5t-3 -13.5l-494 -673q-9 -12 -15.5 -15t-24.5 -3h-24q-10 0 -13 6t4 14z" />
    <glyph glyph-name="zerosuperior" unicode="&#x2070;" horiz-adv-x="374" 
d="M41 542v141q0 63 39 99t108 36q68 0 107 -36.5t39 -98.5v-141q0 -63 -38.5 -99.5t-107.5 -36.5q-70 0 -108.5 36t-38.5 100zM276 542v141q0 37 -23 59t-65 22t-66 -22t-24 -59v-141q0 -38 23.5 -59.5t66.5 -21.5q42 0 65 21.5t23 59.5z" />
    <glyph glyph-name="foursuperior" unicode="&#x2074;" horiz-adv-x="362" 
d="M279 565h41q11 0 14 -3t3 -13v-16q0 -11 -3 -14t-14 -3h-41v-85q0 -10 -3 -13.5t-13 -3.5h-20q-10 0 -13 3.5t-3 13.5v85h-190q-10 0 -13.5 3.5t-3.5 14.5v14q0 12 6 20l188 231q9 11 25 11h23q11 0 14 -3t3 -15v-227zM227 565v174l-142 -174h142z" />
    <glyph glyph-name="fivesuperior" unicode="&#x2075;" horiz-adv-x="352" 
d="M89 810h209q8 0 11 -3t3 -11v-21q0 -9 -2.5 -11.5t-11.5 -2.5h-179l-11 -101h77q70 0 106 -32.5t36 -90.5t-37 -94.5t-103 -36.5q-117 0 -149 105q-7 19 9 25l17 5q11 4 15.5 2t8.5 -12q23 -74 97 -74q41 0 64 21.5t23 57.5q0 76 -89 76h-113q-18 0 -17 18l16 163
q1 17 20 17z" />
    <glyph glyph-name="sixsuperior" unicode="&#x2076;" horiz-adv-x="374" 
d="M97 669v-38q59 22 108 22q135 0 135 -122q0 -62 -39.5 -93.5t-112.5 -31.5q-148 0 -148 150v111q0 73 38.5 112t113.5 39q102 0 136 -73q8 -11 -7 -19l-23 -11q-14 -6 -21 4q-26 47 -85 47q-95 0 -95 -97zM97 577v-22q0 -96 91 -96q94 0 94 72q0 69 -85 69
q-52 0 -100 -23z" />
    <glyph glyph-name="sevensuperior" unicode="&#x2077;" horiz-adv-x="315" 
d="M37 810h247q9 0 12 -3t3 -11v-14q0 -12 -4 -20l-145 -336q-5 -12 -24 -12h-23q-11 0 -13.5 4.5t2.5 15.5l141 323h-196q-15 0 -15 15v23q0 9 3 12t12 3z" />
    <glyph glyph-name="eightsuperior" unicode="&#x2078;" horiz-adv-x="377" 
d="M46 708q0 52 38 81t105 29q66 0 103.5 -27t37.5 -75q0 -67 -67 -97q80 -24 80 -95q0 -58 -39.5 -88t-114.5 -30t-114.5 27.5t-39.5 78.5q0 71 79 101q-68 27 -68 95zM273 710q0 28 -22 45t-63 17q-40 0 -62.5 -17t-22.5 -48q0 -30 23 -45.5t79 -24.5q68 20 68 73z
M283 522q0 32 -24 46.5t-87 23.5q-1 0 -9.5 -3t-13.5 -5t-14 -6.5t-15 -10t-12.5 -12.5t-9.5 -16.5t-3 -20.5q0 -65 95 -65q93 0 93 69z" />
    <glyph glyph-name="ninesuperior" unicode="&#x2079;" horiz-adv-x="374" 
d="M277 556v38q-62 -22 -108 -22q-135 0 -135 121q0 125 152 125q148 0 148 -150v-110q0 -73 -39 -112.5t-114 -39.5q-50 0 -84.5 20t-50.5 54q-8 11 7 19l23 11q14 6 21 -4q26 -47 84 -47q96 0 96 97zM277 647v23q0 96 -91 96q-95 0 -95 -72q0 -69 86 -69q49 0 100 22z" />
    <glyph glyph-name="zeroinferior" unicode="&#x2080;" horiz-adv-x="374" 
d="M41 9v140q0 63 39 99.5t108 36.5q68 0 107 -36.5t39 -99.5v-140q0 -63 -38.5 -99.5t-107.5 -36.5q-70 0 -108.5 36t-38.5 100zM276 9v140q0 38 -23 59.5t-65 21.5q-43 0 -66.5 -21.5t-23.5 -59.5v-140q0 -39 23.5 -60.5t66.5 -21.5q42 0 65 22t23 60z" />
    <glyph glyph-name="oneinferior" unicode="&#x2081;" horiz-adv-x="281" 
d="M201 277h11q11 0 15.5 -4.5t4.5 -15.5v-356q0 -11 -4.5 -15.5t-15.5 -4.5h-18q-11 0 -15.5 4.5t-4.5 15.5v304l-110 -61q-17 -10 -28 7l-8 14q-8 17 9 27l140 79q7 6 24 6z" />
    <glyph glyph-name="twoinferior" unicode="&#x2082;" horiz-adv-x="355" 
d="M44 178q10 25 25 48q12 19 26 30q37 29 92 29q64 0 100 -33.5t36 -87.5q0 -51 -26.5 -76.5t-90.5 -47.5l-59 -20q-50 -17 -50 -62v-24h204q18 0 18 -18v-18q0 -17 -18 -17h-240q-19 0 -19 19v39q0 93 80 122l58 23q2 0 13 5t13 5l4 2q4 1 8 3q3 1 21 11q25 16 25 52
q0 32 -20.5 50.5t-57.5 18.5q-20 0 -36 -6.5t-24.5 -16.5t-14 -19t-8.5 -18.5t-4 -10.5q-5 -11 -9.5 -13.5t-15.5 0.5l-17 6q-20 6 -13 25z" />
    <glyph glyph-name="threeinferior" unicode="&#x2083;" horiz-adv-x="363" 
d="M42 178q17 55 53.5 81t98.5 26q60 0 94 -30t34 -82q0 -61 -48 -87q60 -28 60 -101q0 -53 -36 -82.5t-105 -29.5q-119 0 -152 104q-6 20 9 25l18 6q19 7 25 -12q12 -39 34 -55t66 -16q41 0 62.5 17.5t21.5 48.5q0 28 -16.5 46.5t-43.5 18.5h-60q-11 0 -14.5 3.5t-3.5 14.5
v15q0 13 3 16t16 3h55q26 0 40.5 16t14.5 43q0 31 -19.5 49t-53.5 18q-77 0 -99 -72q-7 -22 -29 -14l-13 5q-18 8 -12 25z" />
    <glyph glyph-name="fourinferior" unicode="&#x2084;" horiz-adv-x="363" 
d="M282 32h39q11 0 14 -3t3 -13v-17q0 -10 -3 -13t-14 -3h-39v-85q0 -10 -3.5 -13.5t-13.5 -3.5h-22q-10 0 -13 3.5t-3 13.5v85h-190q-10 0 -13.5 3.5t-3.5 14.5v13q0 14 6 21l188 231q9 11 25 11h25q11 0 14.5 -3.5t3.5 -14.5v-227zM227 32v173l-142 -173h142z" />
    <glyph glyph-name="fiveinferior" unicode="&#x2085;" horiz-adv-x="352" 
d="M88 277h209q8 0 11 -3t3 -11v-22q0 -8 -2.5 -11t-11.5 -3h-179l-11 -101h77q70 0 106 -32t36 -90q0 -59 -36.5 -95t-103.5 -36q-117 0 -149 104q-6 19 9 25l17 6q11 4 15.5 2t8.5 -12q23 -74 97 -74q42 0 64.5 21.5t22.5 57.5q0 75 -89 75h-113q-19 0 -17 18l16 164
q1 17 20 17z" />
    <glyph glyph-name="sixinferior" unicode="&#x2086;" horiz-adv-x="374" 
d="M97 135v-37q59 22 108 22q135 0 135 -122q0 -62 -39.5 -93.5t-112.5 -31.5q-148 0 -148 150v110q0 73 39 112.5t113 39.5q102 0 136 -73q7 -12 -7 -19l-23 -12q-13 -6 -21 5q-24 46 -85 46q-95 0 -95 -97zM97 44v-22q0 -96 91 -96q94 0 94 72q0 69 -85 69q-52 0 -100 -23
z" />
    <glyph glyph-name="seveninferior" unicode="&#x2087;" horiz-adv-x="314" 
d="M37 277h246q10 0 13 -3t3 -12v-14q0 -12 -4 -20l-146 -335q-4 -8 -7.5 -10t-16.5 -2h-23q-11 0 -13.5 4t3.5 16l141 323h-196q-15 0 -15 15v23q0 9 3 12t12 3z" />
    <glyph glyph-name="eightinferior" unicode="&#x2088;" horiz-adv-x="377" 
d="M46 174q0 53 38 82t105 29q66 0 103.5 -27.5t37.5 -75.5q0 -68 -67 -96q80 -24 80 -95q0 -118 -154 -118q-75 0 -114.5 27t-39.5 78q0 72 79 102q-68 26 -68 94zM273 176q0 30 -22 46.5t-63 16.5q-40 0 -62.5 -17t-22.5 -48q0 -30 23 -45.5t79 -24.5q68 20 68 72z
M283 -11q0 31 -24 45.5t-87 24.5l-9 -3q-27 -10 -43 -21q-25 -25 -25 -50q0 -65 95 -65q93 0 93 69z" />
    <glyph glyph-name="nineinferior" unicode="&#x2089;" horiz-adv-x="374" 
d="M277 23v38q-54 -22 -108 -22q-135 0 -135 121q0 62 39.5 93.5t112.5 31.5q148 0 148 -150v-110q0 -73 -39 -112.5t-114 -39.5q-101 0 -135 73q-7 12 7 19l23 12q13 6 21 -5q24 -46 84 -46q96 0 96 97zM277 114v22q0 96 -91 96q-95 0 -95 -72q0 -69 86 -69q52 0 100 23z
" />
    <glyph glyph-name="Euro" unicode="&#x20ac;" horiz-adv-x="727" 
d="M151 452v32q0 112 73 176.5t202 64.5q182 0 245 -118q14 -23 -8 -34l-23 -11q-20 -11 -34 9q-41 86 -180 86q-96 0 -148.5 -45t-52.5 -126v-34h310q18 0 13 -17l-6 -20q-5 -17 -24 -17h-295v-96h267q11 0 14 -3.5t0 -13.5l-6 -20q-5 -17 -24 -17h-249v-26
q2 -81 54.5 -125t146.5 -44q142 0 184 93q7 11 13.5 13t18.5 -4l24 -12q23 -11 9 -34q-64 -124 -249 -124q-129 0 -200 61.5t-74 175.5v26h-103q-19 0 -14 18l6 19q5 17 24 17h87v96h-64q-18 0 -14 18l6 19q5 17 24 17h47z" />
    <glyph glyph-name="uni20BD" unicode="&#x20bd;" horiz-adv-x="649" 
d="M175 287v-98h344q19 0 19 -18v-17q0 -18 -19 -18h-344v-116q0 -11 -4.5 -15.5t-15.5 -4.5h-33q-11 0 -15.5 4.5t-4.5 15.5v116h-47q-19 0 -19 18v17q0 18 19 18h47v501q0 11 4.5 15.5t15.5 4.5h272q103 0 162 -56.5t59 -155.5t-59 -155t-162 -56h-219zM175 642v-288h212
q71 0 112 38.5t41 105.5t-41 105.5t-112 38.5h-212z" />
    <glyph glyph-name="uni2113" unicode="&#x2113;" horiz-adv-x="424" 
d="M132 278v277q0 89 37.5 133t101.5 44q62 0 96.5 -39t34.5 -112q0 -163 -210 -332v-81q0 -59 21 -86t70 -27q36 0 69 23l4 3q11 8 18 -1l20 -24q9 -13 -1 -20q-53 -42 -114 -42q-147 0 -147 155v53l-58 -42q-13 -10 -22 5l-16 25q-9 15 4 22zM341 582q0 94 -71 94
q-78 0 -78 -122v-222q149 131 149 250z" />
    <glyph glyph-name="uni2116" unicode="&#x2116;" horiz-adv-x="1040" 
d="M987 578v-74q0 -68 -41.5 -106.5t-117.5 -38.5q-75 0 -116.5 38t-41.5 107v74q0 69 41.5 108t116.5 39t117 -39t42 -108zM552 710h31q11 0 15.5 -4.5t4.5 -15.5v-670q0 -11 -4.5 -15.5t-15.5 -4.5h-32q-15 0 -21 11l-319 458q-21 31 -48 84q-20 40 -32 59h-4q0 -8 6 -71
q5 -70 5 -106v-415q0 -20 -19 -20h-31q-11 0 -15.5 4.5t-4.5 15.5v670q0 11 4.5 15.5t15.5 4.5h32q14 0 21 -10l311 -449q25 -37 53 -87q27 -52 36 -64h3q0 10 -6 76q-6 64 -6 110v405q0 19 20 19zM727 575v-67q0 -45 26 -70t75 -25t75 25t26 70v67q0 45 -26 70t-75 25
t-75 -25t-26 -70zM688 299h280q11 0 15.5 -4.5t4.5 -15.5v-21q0 -11 -4.5 -15.5t-15.5 -4.5h-280q-11 0 -15 4.5t-4 15.5v21q0 11 4 15.5t15 4.5z" />
    <glyph glyph-name="uni2117" unicode="&#x2117;" horiz-adv-x="808" 
d="M45 351q0 150 105 255q104 104 255 104q150 0 254 -104q104 -106 104 -255q0 -151 -104 -255t-254 -104t-255 105t-105 254zM94 351q0 -131 90 -221q88 -90 221 -90q130 0 220 90q89 91 89 221q0 131 -89 222q-89 89 -220 89q-132 0 -221 -89q-90 -90 -90 -222zM296 541
h137q63 0 100.5 -36.5t37.5 -99.5t-37.5 -99t-100.5 -36h-105v-102q0 -8 -3 -11t-11 -3h-19q-8 0 -11 3t-3 11v358q0 9 3 12t12 3zM328 314h102q43 0 68.5 24.5t25.5 66.5t-25.5 66.5t-68.5 24.5h-102v-182z" />
    <glyph glyph-name="trademark" unicode="&#x2122;" horiz-adv-x="626" 
d="M55 695h204q8 0 10.5 -2.5t2.5 -11.5v-12q0 -8 -2.5 -10.5t-10.5 -2.5h-80v-200q0 -8 -3.5 -10.5t-12.5 -2.5h-11q-15 0 -15 13v200h-82q-9 0 -10.5 2t-1.5 11v12q0 9 1.5 11.5t10.5 2.5zM532 695h9q8 0 11 -2.5t3 -10.5v-226q0 -8 -2.5 -10.5t-10.5 -2.5h-13
q-9 0 -11.5 2.5t-2.5 10.5v113q0 2 2 52l-20 -32l-52 -78q-6 -9 -16 -9h-6q-9 0 -15 7l-52 77q-4 7 -11.5 17.5t-9.5 13.5q2 -46 2 -48v-113q0 -8 -2 -10.5t-11 -2.5h-13q-9 0 -11.5 2.5t-2.5 10.5v225q0 9 3 11.5t12 2.5h7q11 0 17 -9l90 -138l90 137q7 10 16 10z" />
    <glyph glyph-name="Omega" unicode="&#x2126;" horiz-adv-x="755" 
d="M56 378q0 152 90 249q88 97 230 97t233 -96q91 -97 91 -248q0 -100 -42.5 -179.5t-119.5 -130.5h150q20 0 20 -19v-31q0 -11 -4.5 -15.5t-15.5 -4.5h-245q-15 0 -15 16v25q0 11 12 19q88 45 138.5 125.5t50.5 181.5q0 128 -67 208q-68 81 -186 81q-115 0 -182 -81
q-68 -82 -68 -207q0 -101 48 -181t139 -128q13 -4 13 -19v-24q0 -16 -15 -16h-245q-11 0 -15.5 4.5t-4.5 15.5v31q0 19 20 19h150q-160 108 -160 308z" />
    <glyph glyph-name="estimated" unicode="&#x212e;" horiz-adv-x="820" 
d="M785 355v-18q0 -17 -18 -17h-543v-203q85 -67 191 -67q83 0 156.5 44t115.5 123q8 14 28 14h31q18 0 11 -17q-40 -102 -134 -165q-92 -64 -208 -64q-153 0 -261 109q-109 108 -109 261t109 262q108 108 261 108t262 -108q108 -110 108 -262zM606 384v211q-83 68 -191 68
t-191 -67v-212h382z" />
    <glyph glyph-name="uni2153" unicode="&#x2153;" horiz-adv-x="858" 
d="M214 715h11q11 0 15.5 -4.5t4.5 -15.5v-356q0 -11 -4.5 -15.5t-15.5 -4.5h-18q-11 0 -15.5 4.5t-4.5 15.5v304l-110 -61q-18 -10 -28 6l-8 15q-8 17 8 27l141 79q8 6 24 6zM661 710h26q10 0 13 -5.5t-3 -13.5l-495 -673q-8 -12 -14.5 -15t-24.5 -3h-24q-11 0 -13.5 6
t3.5 14l495 673q8 11 14.5 14t22.5 3zM537 297q17 55 53.5 81t98.5 26q60 0 94 -30.5t34 -81.5q0 -62 -48 -87q59 -29 59 -101q0 -53 -36 -82.5t-104 -29.5q-118 0 -153 104q-5 21 10 25l18 6q18 7 25 -12q12 -39 34 -55t66 -16q40 0 61.5 17.5t21.5 48.5q0 29 -16 47
t-44 18h-60q-11 0 -14 3.5t-3 14.5v15q0 13 3 16t15 3h56q26 0 40.5 16t14.5 43q0 31 -19.5 49t-53.5 18q-77 0 -99 -72q-7 -22 -30 -14l-12 5q-18 8 -12 25z" />
    <glyph glyph-name="uni2154" unicode="&#x2154;" horiz-adv-x="880" 
d="M53 618q39 107 143 107q64 0 100 -33.5t36 -87.5q0 -50 -27 -76.5t-90 -47.5l-59 -20q-50 -17 -50 -62v-24h204q18 0 18 -18v-18q0 -17 -18 -17h-240q-20 0 -20 19v39q0 93 80 122l59 23q2 0 13 5t13 5q1 0 5 1.5t7 3.5q3 1 21 11q25 16 25 52q0 32 -20.5 50.5
t-57.5 18.5q-62 0 -85 -64l-2 -6q-5 -12 -9.5 -14.5t-15.5 0.5l-18 6q-19 7 -12 25zM704 710h26q10 0 13 -5.5t-3 -13.5l-495 -673q-8 -12 -15 -15t-24 -3h-24q-11 0 -13.5 6t3.5 14l495 673q8 11 14.5 14t22.5 3zM558 297q32 107 151 107q60 0 94.5 -30.5t34.5 -81.5
q0 -62 -48 -87q59 -29 59 -101q0 -53 -36 -82.5t-104 -29.5q-118 0 -153 104q-6 21 10 25l18 6q18 7 25 -12q11 -39 33.5 -55t66.5 -16q40 0 61.5 17.5t21.5 48.5q0 29 -16 47t-44 18h-60q-11 0 -14.5 3.5t-3.5 14.5v15q0 13 3.5 16t15.5 3h55q26 0 40.5 16t14.5 43
q0 31 -19 49t-54 18q-76 0 -99 -72q-5 -12 -10.5 -15t-18.5 1l-13 5q-17 8 -11 25z" />
    <glyph glyph-name="oneeighth" unicode="&#x215b;" horiz-adv-x="857" 
d="M216 717h11q20 0 20 -19v-357q0 -11 -4.5 -15.5t-15.5 -4.5h-18q-11 0 -15.5 4.5t-4.5 15.5v304l-110 -61q-18 -11 -27 7l-8 14q-10 16 8 27l140 79q10 6 24 6zM657 710h27q22 0 10 -19l-495 -673q-9 -12 -15.5 -15t-24.5 -3h-23q-11 0 -13.5 6t3.5 14l495 673
q8 11 14 14t22 3zM533 293q0 53 38 82t105 29q66 0 103.5 -27.5t37.5 -75.5q0 -68 -67 -96q80 -24 80 -95q0 -118 -154 -118q-75 0 -115 27t-40 78q0 70 80 102q-68 26 -68 94zM760 295q0 30 -22 46.5t-63 16.5q-40 0 -62.5 -17t-22.5 -48q0 -30 23 -45.5t79 -24.5
q68 20 68 72zM770 108q0 31 -24 45.5t-87 24.5l-9 -3q-27 -10 -43 -21q-25 -25 -25 -50q0 -65 95 -65q93 0 93 69z" />
    <glyph glyph-name="threeeighths" unicode="&#x215c;" horiz-adv-x="885" 
d="M49 619q17 55 53.5 81t98.5 26q60 0 94 -30.5t34 -82.5q0 -61 -48 -86q59 -29 59 -101q0 -53 -36 -82.5t-104 -29.5q-120 0 -152 104q-8 20 9 25l18 6q18 4 25 -13q12 -38 34.5 -54.5t65.5 -16.5q41 0 62.5 18t21.5 49q0 28 -17 46.5t-44 18.5h-60q-11 0 -14 3t-3 14v16
q0 12 3 15t16 3h55q26 0 40.5 16t14.5 44q0 30 -19.5 48t-53.5 18q-41 0 -64.5 -17t-34.5 -54q-8 -23 -30 -14l-12 4q-20 8 -12 26zM693 710h26q10 0 13 -6t-3 -14l-495 -672q-8 -12 -14.5 -15t-24.5 -3h-24q-24 0 -10 20l495 672q8 11 15 14.5t22 3.5zM560 293q0 53 38 82
t105 29q66 0 103.5 -27.5t37.5 -75.5q0 -68 -67 -96q80 -24 80 -95q0 -118 -154 -118q-75 0 -115 27t-40 78q0 70 80 102q-68 26 -68 94zM787 295q0 30 -22 46.5t-63 16.5q-40 0 -62.5 -17t-22.5 -48q0 -30 23 -45.5t79 -24.5q68 20 68 72zM797 108q0 31 -24 45.5t-87 24.5
l-9 -3q-27 -10 -43 -21q-25 -25 -25 -50q0 -65 95 -65q93 0 93 69z" />
    <glyph glyph-name="fiveeighths" unicode="&#x215d;" horiz-adv-x="876" 
d="M93 717h209q14 0 14 -14v-22q0 -8 -3 -11t-11 -3h-180l-10 -101h76q70 0 106 -32.5t36 -90.5t-37 -94t-102 -36q-117 0 -150 104q-6 19 9 25l17 6q18 6 25 -10q21 -74 96 -74q42 0 64.5 21t22.5 58q0 75 -88 75h-114q-19 0 -16 18l16 164q2 17 20 17zM676 710h26
q10 0 13 -5.5t-3 -13.5l-494 -673q-9 -12 -15.5 -15t-24.5 -3h-23q-11 0 -13.5 6t3.5 14l495 673q8 11 14 14t22 3zM550 293q0 53 37.5 82t104.5 29q68 0 105 -27.5t37 -75.5q0 -68 -67 -96q80 -26 80 -95q0 -118 -155 -118q-75 0 -114.5 27.5t-39.5 77.5q0 72 79 102
q-67 25 -67 94zM777 295q0 30 -22 46.5t-63 16.5q-40 0 -62.5 -17t-22.5 -48q0 -30 23 -45.5t79 -24.5q68 21 68 72zM786 108q0 31 -23.5 45.5t-86.5 24.5l-8 -2q-15 -6 -21.5 -9t-20.5 -12t-21 -22t-7 -29q0 -65 95 -65q93 0 93 69z" />
    <glyph glyph-name="seveneighths" unicode="&#x215e;" horiz-adv-x="842" 
d="M47 717h246q10 0 13 -3t3 -12v-13q0 -12 -4 -20l-146 -336q-4 -8 -7.5 -10t-16.5 -2h-23q-21 0 -10 20l141 323h-196q-15 0 -15 15v23q0 9 3 12t12 3zM613 710h27q22 0 10 -19l-495 -673q-9 -12 -15.5 -15t-23.5 -3h-24q-11 0 -13.5 6t3.5 14l495 673q8 11 14 14t22 3z
M509 293q0 53 38 82t105 29q66 0 103.5 -27.5t37.5 -75.5q0 -69 -67 -96q80 -24 80 -95q0 -118 -154 -118q-75 0 -114.5 27t-39.5 78q0 72 79 102q-68 26 -68 94zM736 295q0 30 -22 46.5t-63 16.5q-40 0 -62.5 -17t-22.5 -48q0 -30 23 -45.5t79 -24.5q68 20 68 72zM746 108
q0 31 -24 45.5t-87 24.5l-9 -3q-27 -10 -43 -21q-25 -25 -25 -50q0 -65 95 -65q93 0 93 69z" />
    <glyph glyph-name="arrowleft" unicode="&#x2190;" horiz-adv-x="745" 
d="M146 362h555q16 0 16 -17v-23q0 -16 -16 -16h-554l185 -186q11 -11 0 -22l-18 -18q-11 -11 -22 1l-238 238q-16 15 0 31l238 238q12 12 22 0l18 -18q11 -11 0 -22z" />
    <glyph glyph-name="arrowup" unicode="&#x2191;" horiz-adv-x="745" 
d="M398 660l238 -237q10 -13 0 -23l-17 -17q-12 -12 -22 0l-186 184v-554q0 -16 -16 -16h-25q-16 0 -16 16v554l-186 -185q-11 -11 -22 0l-18 18q-9 10 1 23l238 237q16 16 31 0z" />
    <glyph glyph-name="arrowright" unicode="&#x2192;" horiz-adv-x="745" 
d="M469 588l238 -238q15 -16 0 -31l-238 -238q-11 -12 -22 -1l-18 18q-11 11 0 22l185 186h-554q-16 0 -16 16v23q0 17 16 17h555l-186 186q-11 11 0 22l18 18q10 12 22 0z" />
    <glyph glyph-name="arrowdown" unicode="&#x2193;" horiz-adv-x="745" 
d="M370 666h25q16 0 16 -16v-554l186 184q10 12 22 0l17 -17q12 -10 0 -22l-238 -238q-16 -15 -31 0l-238 238q-11 11 -1 22l18 18q11 11 22 0l186 -185v554q0 16 16 16z" />
    <glyph glyph-name="uni2196" unicode="&#x2196;" horiz-adv-x="745" 
d="M259 576h336q22 0 22 -23v-336q0 -16 -15 -16h-26q-14 0 -14 17v261l-392 -392q-12 -11 -23 0l-18 17q-12 11 0 23l392 392h-262q-16 0 -16 16v25q0 16 16 16z" />
    <glyph glyph-name="uni2197" unicode="&#x2197;" horiz-adv-x="745" 
d="M162 576h336q16 0 16 -16v-25q0 -16 -16 -16h-262l392 -392q12 -12 0 -23l-18 -17q-12 -11 -23 0l-392 392v-261q0 -17 -14 -17h-26q-15 0 -15 16v336q0 23 22 23z" />
    <glyph glyph-name="uni2198" unicode="&#x2198;" horiz-adv-x="745" 
d="M130 550l17 17q13 10 23 0l392 -392v261q0 17 15 17h25q16 0 16 -16v-337q0 -22 -22 -22h-336q-16 0 -16 16v25q0 16 15 16h263l-392 392q-12 12 0 23z" />
    <glyph glyph-name="uni2199" unicode="&#x2199;" horiz-adv-x="745" 
d="M195 175l392 392q10 10 23 0l17 -17q12 -11 0 -23l-392 -392h263q15 0 15 -16v-25q0 -16 -16 -16h-336q-22 0 -22 22v337q0 16 16 16h25q15 0 15 -17v-261z" />
    <glyph glyph-name="partialdiff" unicode="&#x2202;" horiz-adv-x="551" 
d="M127 697l-1 26q0 19 18 19q188 0 267 -82t79 -261v-220q0 -93 -56.5 -143.5t-163.5 -50.5q-108 0 -165 50.5t-57 143.5v131q0 91 55 143t154 52q129 0 169 -79q-3 132 -68.5 193t-211.5 61q-11 0 -15 3.5t-4 13.5zM423 180v131q0 64 -39.5 98.5t-113.5 34.5
q-75 0 -114.5 -35t-39.5 -99v-130q0 -64 39.5 -99t114.5 -35q74 0 113.5 35t39.5 99z" />
    <glyph glyph-name="increment" unicode="&#x2206;" horiz-adv-x="619" 
d="M293 710h34q21 0 25 -16l229 -613q10 -23 10 -37v-24q0 -20 -19 -20h-524q-11 0 -15.5 4.5t-4.5 15.5v24q0 11 10 37l229 613q6 16 26 16zM514 61l-146 403q-16 46 -32 104q-19 63 -24 77h-5l-23 -77q-19 -65 -33 -104l-145 -403h408z" />
    <glyph glyph-name="product" unicode="&#x220f;" horiz-adv-x="669" 
d="M51 710h567q19 0 19 -20v-28q0 -20 -19 -20h-63v-722q0 -20 -19 -20h-34q-19 0 -19 20v722h-295v-722q0 -11 -4.5 -15.5t-15.5 -4.5h-33q-11 0 -15.5 4.5t-4.5 15.5v722h-64q-11 0 -15.5 4.5t-4.5 15.5v28q0 11 4.5 15.5t15.5 4.5z" />
    <glyph glyph-name="summation" unicode="&#x2211;" horiz-adv-x="574" 
d="M127 642l190 -310q8 -13 8.5 -21.5t-8.5 -23.5l-193 -319h386q11 0 15.5 -4.5t4.5 -15.5v-28q0 -11 -4.5 -15.5t-15.5 -4.5h-455q-11 0 -15.5 4.5t-4.5 15.5v27q0 11 7 21l207 341l-204 332q-6 7 -6 22v27q0 20 19 20h448q19 0 19 -20v-28q0 -20 -19 -20h-379z" />
    <glyph glyph-name="minus" unicode="&#x2212;" horiz-adv-x="598" 
d="M82 358h433q11 0 15.5 -4.5t4.5 -15.5v-26q0 -19 -20 -19h-433q-19 0 -19 19v26q0 20 19 20z" />
    <glyph glyph-name="uni2215" unicode="&#x2215;" horiz-adv-x="581" 
d="M20 21l495 672q8 11 14.5 14t22.5 3h26q10 0 13 -6t-3 -14l-494 -672q-9 -12 -15.5 -15t-24.5 -3h-24q-24 0 -10 21z" />
    <glyph glyph-name="uni2219" unicode="&#x2219;" horiz-adv-x="207" 
d="M101 273h5q23 0 31.5 -8.5t8.5 -31.5v-6q0 -23 -9 -31.5t-31 -8.5h-5q-23 0 -31.5 8.5t-8.5 31.5v6q0 23 8.5 31.5t31.5 8.5z" />
    <glyph glyph-name="radical" unicode="&#x221a;" horiz-adv-x="686" 
d="M638 750h27q10 0 13 -4t0 -15l-253 -821q-4 -16 -24 -16h-30q-19 0 -24 15l-163 466h-138q-11 0 -15 4t-4 15v26q0 20 19 20h160q18 0 25 -3.5t11 -14.5l109 -320q11 -32 21 -79q11 -52 13 -58h4q1 7 12 57q10 53 19 80l185 631q3 11 9 14t24 3z" />
    <glyph glyph-name="infinity" unicode="&#x221e;" horiz-adv-x="716" 
d="M359 333q57 108 154 108q67 0 109 -44t42 -113q0 -66 -44 -110q-46 -44 -108 -44q-100 0 -154 104q-55 -104 -156 -104q-63 0 -107 44t-44 109q0 69 43.5 113.5t111.5 44.5q94 0 153 -108zM324 285l-13 21q-3 5 -11 17t-12 17q-12 16 -35 28.5t-47 12.5q-43 0 -69.5 -27
t-26.5 -69q0 -40 26.5 -67.5t66.5 -27.5q52 0 95 54q23 31 26 41zM606 285q0 42 -26.5 69t-68.5 27q-44 0 -71 -29q-26 -29 -38 -52l-9 -15q13 -28 37 -54q34 -41 84 -41q39 0 65.5 27.5t26.5 67.5z" />
    <glyph glyph-name="integral" unicode="&#x222b;" horiz-adv-x="369" 
d="M150 -31v583q0 97 45 142.5t146 45.5q19 0 19 -18v-26q0 -19 -19 -19q-70 0 -96.5 -29t-26.5 -97v-583q0 -97 -45 -142.5t-146 -45.5q-19 0 -19 18v26q0 19 19 19q70 0 96.5 29t26.5 97z" />
    <glyph glyph-name="approxequal" unicode="&#x2248;" horiz-adv-x="563" 
d="M83 426q53 49 117 49q37 1 95 -20q57 -21 87 -21q44 2 80 35q14 11 26 -1l20 -20q16 -14 0 -27q-50 -47 -115 -50q-41 -1 -96 21q-55 21 -87 21q-44 -2 -80 -35q-16 -11 -26 1l-21 19q-13 15 0 28zM85 243q52 49 115 49q38 1 96 -20q56 -21 86 -21q44 0 81 34q9 8 14 7.5
t12 -8.5l21 -19q15 -15 0 -28q-52 -47 -115 -49q-40 -1 -97 20q-55 21 -86 21q-43 0 -81 -34q-13 -12 -26 1l-20 19q-16 14 0 28z" />
    <glyph glyph-name="notequal" unicode="&#x2260;" horiz-adv-x="608" 
d="M357 393l-67 -132h230q11 0 15.5 -4.5t4.5 -15.5v-26q0 -11 -4.5 -15.5t-15.5 -4.5h-264l-61 -120q-5 -6 -15 -6h-25q-7 0 -3 7l60 119h-124q-11 0 -15.5 4.5t-4.5 15.5v26q0 11 4.5 15.5t15.5 4.5h158l67 132h-225q-11 0 -15.5 4.5t-4.5 15.5v26q0 19 20 19h259l61 119
q3 6 12 6h28q6 0 3 -7l-60 -118h129q20 0 20 -19v-26q0 -11 -4.5 -15.5t-15.5 -4.5h-163z" />
    <glyph glyph-name="lessequal" unicode="&#x2264;" horiz-adv-x="562" 
d="M480 609v-24q0 -15 -3.5 -21t-14.5 -11l-301 -130v-3l300 -129q12 -5 15.5 -11t3.5 -22v-27q0 -13 -4.5 -16.5t-16.5 1.5l-370 170q-16 9 -16 25v19q0 18 16 25l370 169q12 5 16.5 2t4.5 -17zM93 142h367q11 0 15.5 -4t4.5 -16v-24q0 -12 -4.5 -16t-15.5 -4h-367
q-11 0 -15.5 4.5t-4.5 15.5v24q0 11 4.5 15.5t15.5 4.5z" />
    <glyph glyph-name="greaterequal" unicode="&#x2265;" horiz-adv-x="562" 
d="M82 585v24q0 14 4.5 17t16.5 -2l370 -169q16 -7 16 -25v-19q0 -16 -16 -25l-370 -170q-12 -5 -16.5 -1.5t-4.5 16.5v27q0 16 3.5 22t15.5 11l300 129v3l-300 130q-12 5 -15.5 10.5t-3.5 21.5zM102 142h367q11 0 15.5 -4.5t4.5 -15.5v-24q0 -11 -4.5 -15.5t-15.5 -4.5
h-367q-11 0 -15.5 4t-4.5 16v24q0 12 4.5 16t15.5 4z" />
    <glyph glyph-name="lozenge" unicode="&#x25ca;" horiz-adv-x="527" 
d="M263 710h20q15 0 25 -16l192 -324q9 -16 0 -30l-193 -324q-9 -16 -25 -16h-19q-15 0 -25 16l-193 324q-9 14 0 30l193 324q9 16 25 16zM275 629h-3l-158 -274l158 -273h3l158 273z" />
    <glyph glyph-name="NULL" horiz-adv-x="262" 
 />
    <glyph glyph-name="zero.denom" horiz-adv-x="374" 
d="M41 128v140q0 63 39 99.5t108 36.5q68 0 107 -36.5t39 -99.5v-140q0 -63 -38.5 -99.5t-107.5 -36.5q-70 0 -108.5 36t-38.5 100zM276 128v140q0 38 -23 59.5t-65 21.5q-43 0 -66.5 -21.5t-23.5 -59.5v-140q0 -39 23.5 -60.5t66.5 -21.5q42 0 65 22t23 60z" />
    <glyph glyph-name="one.denom" horiz-adv-x="281" 
d="M201 396h11q11 0 15.5 -4.5t4.5 -15.5v-356q0 -11 -4.5 -15.5t-15.5 -4.5h-18q-11 0 -15.5 4.5t-4.5 15.5v304l-110 -61q-17 -10 -28 7l-8 14q-8 16 9 27l140 79q7 6 24 6z" />
    <glyph glyph-name="two.denom" horiz-adv-x="355" 
d="M45 297q39 107 143 107q64 0 100 -33.5t36 -87.5q0 -51 -26.5 -76.5t-90.5 -47.5l-59 -20q-50 -17 -50 -62v-24h204q18 0 18 -18v-18q0 -17 -18 -17h-240q-20 0 -20 19v39q0 93 80 122l59 23q2 1 13 5t13 5q1 0 5 1.5t7 3.5q3 1 21 11q25 16 25 52q0 32 -20.5 50.5
t-57.5 18.5q-22 0 -38.5 -7t-26.5 -20.5t-13 -20t-8 -18.5l-1 -5q-9 -19 -25 -13l-18 6q-19 6 -12 25z" />
    <glyph glyph-name="three.denom" horiz-adv-x="363" 
d="M42 297q17 55 53.5 81t98.5 26q60 0 94 -30t34 -82q0 -62 -48 -87q60 -28 60 -101q0 -53 -36 -82.5t-105 -29.5q-119 0 -152 104q-6 20 9 25l18 6q19 7 25 -12q12 -39 34 -55t66 -16q41 0 62.5 17.5t21.5 48.5q0 28 -16.5 46.5t-43.5 18.5h-60q-11 0 -14.5 3.5t-3.5 14.5
v15q0 13 3 16t16 3h55q26 0 40.5 16t14.5 43q0 31 -19.5 49t-53.5 18q-77 0 -99 -72q-7 -22 -29 -14l-13 5q-18 8 -12 25z" />
    <glyph glyph-name="four.denom" horiz-adv-x="363" 
d="M282 151h40q10 0 13.5 -3t3.5 -13v-17q0 -10 -3.5 -13t-13.5 -3h-40v-85q0 -10 -3.5 -13.5t-13.5 -3.5h-22q-10 0 -13 3.5t-3 13.5v85h-190q-10 0 -13.5 3.5t-3.5 14.5v13q0 13 6 21l188 231q9 11 25 11h25q11 0 14.5 -3.5t3.5 -14.5v-227zM227 151v173l-142 -173h142z
" />
    <glyph glyph-name="five.denom" horiz-adv-x="352" 
d="M88 396h209q8 0 11 -3t3 -11v-22q0 -8 -2.5 -11t-11.5 -3h-179l-11 -101h77q70 0 106 -32t36 -90q0 -59 -36.5 -95t-103.5 -36q-117 0 -149 104q-6 19 9 25l17 6q11 4 15.5 2t8.5 -12q23 -74 97 -74q42 0 64.5 21.5t22.5 57.5q0 75 -89 75h-113q-19 0 -17 18l16 164
q1 17 20 17z" />
    <glyph glyph-name="six.denom" horiz-adv-x="373" 
d="M97 254v-37q59 22 108 22q135 0 135 -122q0 -62 -39.5 -93.5t-112.5 -31.5q-148 0 -148 150v110q0 73 39 112.5t113 39.5q102 0 136 -73q7 -12 -7 -19l-23 -12q-13 -6 -21 5q-24 46 -85 46q-95 0 -95 -97zM97 163v-22q0 -96 91 -96q94 0 94 72q0 69 -85 69
q-52 0 -100 -23z" />
    <glyph glyph-name="seven.denom" horiz-adv-x="313" 
d="M36 396h247q9 0 12 -3t3 -12v-14q0 -12 -4 -20l-145 -335q-4 -8 -8 -10t-17 -2h-22q-11 0 -13.5 4t2.5 16l141 323h-196q-15 0 -15 15v23q0 9 3 12t12 3z" />
    <glyph glyph-name="eight.denom" horiz-adv-x="377" 
d="M46 293q0 53 38 82t105 29q66 0 103.5 -27.5t37.5 -75.5q0 -68 -67 -96q80 -24 80 -95q0 -118 -154 -118q-75 0 -114.5 27t-39.5 78q0 72 79 102q-68 26 -68 94zM273 295q0 30 -22 46.5t-63 16.5q-40 0 -62.5 -17t-22.5 -48q0 -30 23 -45.5t79 -24.5q68 20 68 72z
M283 108q0 31 -24 45.5t-87 24.5l-9 -3q-27 -10 -43 -21q-25 -25 -25 -50q0 -65 95 -65q93 0 93 69z" />
    <glyph glyph-name="nine.denom" horiz-adv-x="374" 
d="M277 142v38q-54 -22 -108 -22q-135 0 -135 121q0 62 39.5 93.5t112.5 31.5q148 0 148 -150v-110q0 -73 -39 -112.5t-114 -39.5q-101 0 -135 73q-7 12 7 19l23 12q13 6 21 -5q24 -46 84 -46q96 0 96 97zM277 233v22q0 96 -91 96q-95 0 -95 -72q0 -69 86 -69q52 0 100 23z
" />
    <glyph glyph-name="zero.num" horiz-adv-x="374" 
d="M41 449v141q0 63 39 99t108 36q68 0 107 -36.5t39 -98.5v-141q0 -63 -38.5 -99.5t-107.5 -36.5q-70 0 -108.5 36t-38.5 100zM276 449v141q0 37 -23 58.5t-65 21.5t-66 -21.5t-24 -58.5v-141q0 -38 23.5 -59.5t66.5 -21.5q42 0 65 21.5t23 59.5z" />
    <glyph glyph-name="one.num" horiz-adv-x="281" 
d="M201 717h11q20 0 20 -19v-357q0 -11 -4.5 -15.5t-15.5 -4.5h-18q-11 0 -15.5 4.5t-4.5 15.5v304l-110 -61q-17 -10 -28 7l-8 14q-8 17 9 27l140 79q7 6 24 6z" />
    <glyph glyph-name="two.num" horiz-adv-x="355" 
d="M43 618q10 25 25 48q12 19 26 30q37 29 92 29q64 0 100 -33.5t36 -87.5q0 -50 -27 -76.5t-90 -47.5l-59 -20q-50 -17 -50 -62v-24h204q18 0 18 -18v-18q0 -17 -18 -17h-240q-19 0 -19 19v39q0 93 80 122l58 23q2 0 13 5t13 5q1 0 5 1.5t7 3.5q3 1 21 11q25 16 25 52
q0 32 -20.5 50.5t-57.5 18.5t-57 -19t-26 -42l-4 -9q-5 -12 -9.5 -14.5t-15.5 0.5l-17 6q-19 7 -13 25z" />
    <glyph glyph-name="three.num" horiz-adv-x="364" 
d="M43 619q31 106 152 106q60 0 94 -30.5t34 -81.5q0 -61 -48 -87q59 -27 59 -101q0 -53 -36 -82.5t-104 -29.5q-118 0 -153 104q-6 22 10 26l18 6q18 4 25 -13q12 -39 34 -55t66 -16q40 0 61.5 18t21.5 49q0 28 -16.5 46t-43.5 18h-60q-11 0 -14 3.5t-3 14.5v15q0 13 3 16
t15 3h55q27 0 41.5 16t14.5 43q0 31 -19.5 49t-54.5 18q-41 0 -64 -17.5t-34 -54.5q-5 -12 -11 -15t-19 1l-12 5q-18 8 -12 26z" />
    <glyph glyph-name="four.num" horiz-adv-x="364" 
d="M282 472h41q10 0 13.5 -3t3.5 -13v-16q0 -10 -3 -13.5t-14 -3.5h-41v-85q0 -10 -3.5 -13.5t-13.5 -3.5h-22q-10 0 -13 3.5t-3 13.5v85h-190q-10 0 -13.5 3.5t-3.5 14.5v14q0 13 6 20l188 231q9 11 25 11h25q11 0 14.5 -3t3.5 -15v-227zM227 472v174l-142 -174h142z" />
    <glyph glyph-name="five.num" horiz-adv-x="352" 
d="M89 717h209q8 0 11 -3t3 -11v-21q0 -9 -2.5 -12t-11.5 -3h-179l-11 -100h77q70 0 106 -32.5t36 -90.5q0 -59 -36.5 -95t-103.5 -36q-117 0 -149 105q-8 18 9 24l17 6q11 4 15.5 2t8.5 -12q23 -74 97 -74q41 0 64 21.5t23 57.5q0 75 -89 75h-113q-18 0 -17 18l16 164
q1 17 20 17z" />
    <glyph glyph-name="six.num" horiz-adv-x="374" 
d="M97 576v-38q59 22 108 22q135 0 135 -122q0 -62 -39.5 -93.5t-112.5 -31.5q-148 0 -148 150v110q0 73 39 112.5t113 39.5q102 0 136 -73q7 -12 -7 -19l-23 -11q-13 -7 -21 4q-26 47 -85 47q-95 0 -95 -97zM97 484v-22q0 -96 91 -96q94 0 94 72q0 69 -85 69
q-52 0 -100 -23z" />
    <glyph glyph-name="seven.num" horiz-adv-x="313" 
d="M37 717h246q10 0 13 -3t3 -12v-13q0 -12 -4 -20l-146 -336q-4 -8 -7.5 -10t-16.5 -2h-23q-11 0 -13.5 4.5t2.5 15.5l141 323h-195q-15 0 -15 15v23q0 9 3 12t12 3z" />
    <glyph glyph-name="eight.num" horiz-adv-x="377" 
d="M46 614q0 53 38 82t105 29q66 0 103.5 -27t37.5 -75q0 -69 -67 -97q80 -24 80 -95q0 -118 -154 -118q-75 0 -114.5 27t-39.5 78q0 72 79 102q-68 27 -68 94zM273 616q0 30 -22 46.5t-63 16.5q-40 0 -62.5 -17t-22.5 -48q0 -30 23 -45.5t79 -24.5q68 20 68 72zM283 429
q0 31 -24 46t-87 24q-1 0 -9.5 -3t-13.5 -5t-14 -6.5t-15 -10t-12.5 -12.5t-9.5 -16.5t-3 -20.5q0 -65 95 -65q93 0 93 69z" />
    <glyph glyph-name="nine.num" horiz-adv-x="374" 
d="M277 463v38q-54 -22 -108 -22q-135 0 -135 121q0 62 39.5 93.5t112.5 31.5q148 0 148 -150v-110q0 -73 -39 -112.5t-114 -39.5q-100 0 -135 74q-7 12 7 18l23 12q14 6 21 -4q23 -47 84 -47q96 0 96 97zM277 554v22q0 97 -91 97q-95 0 -95 -72q0 -70 86 -70q43 0 100 23z
" />
    <glyph glyph-name="CR" horiz-adv-x="322" 
 />
    <glyph glyph-name="acute.case" horiz-adv-x="257" 
d="M40 797l161 101q24 11 34 -2l15 -18q13 -16 -3 -21l-176 -93q-16 -6 -24 2l-9 11q-11 14 2 20z" />
    <glyph glyph-name="breve.case" horiz-adv-x="287" 
d="M294 871q-33 -108 -152 -108q-120 0 -151 108q-4 13 8 18l24 9q13 4 19 -7q21 -78 100 -78q78 0 101 78q5 11 16 7l27 -9q12 -5 8 -18z" />
    <glyph glyph-name="caron.case" horiz-adv-x="332" 
d="M292 901h28q11 0 13 -5t-5 -10l-122 -107q-12 -12 -17.5 -14.5t-16.5 -2.5h-8q-13 0 -18.5 2.5t-16.5 14.5l-123 107q-6 5 -4 10t13 5h26q18 0 28 -10l98 -83l95 83q10 10 30 10z" />
    <glyph glyph-name="cedilla.case" horiz-adv-x="251" 
d="M153 0l-26 -74q11 3 25 3q40 0 63.5 -22t21.5 -58q-3 -47 -34.5 -71t-84.5 -24q-49 0 -80 19q-12 7 -12 20v19q0 13 10 7q34 -23 74 -23q33 0 51 15t18 41q0 42 -60 42q-21 0 -33 -4q-9 -1 -12 3t1 14l36 93h42z" />
    <glyph glyph-name="circumflex.case" horiz-adv-x="378" 
d="M199 901h7q12 0 17.5 -2.5t16.5 -13.5l123 -108q14 -14 -9 -14h-28q-20 0 -29 10l-96 82l-97 -82q-10 -10 -29 -10h-26q-23 0 -9 14l123 108q11 11 16.5 13.5t19.5 2.5z" />
    <glyph glyph-name="dieresis.case" horiz-adv-x="439" 
d="M116 864h6q19 0 26 -7t7 -25v-8q0 -19 -7 -25.5t-26 -6.5h-6q-19 0 -25.5 6.5t-6.5 25.5v8q0 18 6.5 25t25.5 7zM310 864h6q19 0 26 -7t7 -25v-8q0 -19 -7 -25.5t-26 -6.5h-6q-19 0 -26 6.5t-7 25.5v8q0 18 7 25t26 7z" />
    <glyph glyph-name="dotaccent.case" horiz-adv-x="216" 
d="M106 862h4q20 0 27 -7t7 -27v-6q0 -19 -7 -26t-27 -7h-4q-20 0 -27 7t-7 26v6q0 20 7 27t27 7z" />
    <glyph glyph-name="grave.case" horiz-adv-x="257" 
d="M36 873l14 18q12 14 34 1l164 -97q13 -6 2 -20l-9 -11q-8 -8 -24 -1l-179 89q-14 6 -2 21z" />
    <glyph glyph-name="hungarumlaut.case" horiz-adv-x="395" 
d="M66 785l90 106q12 18 31 12l21 -6q19 -7 6 -20l-109 -107q-13 -12 -22 -7l-12 3q-14 5 -5 19zM235 783l94 108q13 18 31 12l23 -6q19 -7 6 -20l-114 -109q-14 -11 -22 -8l-12 4q-17 5 -6 19z" />
    <glyph glyph-name="macron.case" horiz-adv-x="352" 
d="M57 850h236q10 0 13.5 -3.5t3.5 -13.5v-16q0 -10 -3.5 -13.5t-13.5 -3.5h-236q-10 0 -13.5 3.5t-3.5 13.5v16q0 17 17 17z" />
    <glyph glyph-name="ogonek.case" horiz-adv-x="252" 
d="M154 0h48q-50 -46 -73.5 -92.5t-14.5 -74.5t39 -28q29 0 51 22q8 6 12 -3l8 -21q4 -7 -2 -14q-38 -36 -89 -36q-65 0 -78 52q-12 41 14.5 94t84.5 101z" />
    <glyph glyph-name="ring.case" horiz-adv-x="240" 
d="M48 779q-28 27 -28 71t28 72q29 27 74 27t72 -27.5t27 -71.5t-27 -71t-72 -27q-46 0 -74 27zM168 804q17 17 17 46t-17 46t-46 17q-31 0 -48.5 -17t-17.5 -46t17.5 -46t48.5 -17q29 0 46 17z" />
    <glyph glyph-name="tilde.case" horiz-adv-x="305" 
d="M275 882h20q12 0 12 -12q0 -100 -78 -100q-36 0 -79 34q-44 33 -68 33q-40 0 -40 -55q0 -12 -12 -12h-20q-12 0 -12 12q0 100 78 100q33 0 81 -33.5t67 -33.5q40 0 40 55q0 12 11 12z" />
    <glyph glyph-name="uni0326.alt" horiz-adv-x="0" 
d="M82 603l53 140q5 17 21 17h21q16 0 13 -13l-39 -145q-2 -11 -6.5 -15t-15.5 -4h-30q-25 0 -17 20z" />
    <glyph glyph-name="_375" horiz-adv-x="664" 
d="M311 710h35q19 0 25 -16l229 -613q10 -26 10 -37v-24q0 -11 -4.5 -15.5t-15.5 -4.5h-523q-11 0 -15.5 4.5t-4.5 15.5v24q0 11 10 37l229 613q6 16 25 16zM533 61l-167 460q-11 28 -22 75q-3 13 -6 24t-5 17.5t-2 7.5h-5q0 -1 -2 -7.5t-5 -18t-6 -24.5q-8 -33 -22 -75
l-167 -459h409z" />
    <glyph glyph-name="_376" horiz-adv-x="744" 
d="M52 378q0 147 91 239q91 93 229 93q137 0 229 -93q91 -92 91 -239q0 -100 -43 -180t-120 -130h156q11 0 15.5 -4.5t4.5 -15.5v-28q0 -11 -4.5 -15.5t-15.5 -4.5h-243q-11 0 -15.5 4.5t-4.5 15.5v22q0 11 11 16q89 45 139 126t50 187q0 115 -66 196q-68 80 -184 80
q-117 0 -183 -80q-67 -80 -67 -196q0 -103 48.5 -184.5t140.5 -128.5q11 -5 11 -16v-22q0 -11 -4.5 -15.5t-15.5 -4.5h-243q-11 0 -15.5 4.5t-4.5 15.5v28q0 11 4.5 15.5t15.5 4.5h157q-79 49 -121.5 129.5t-42.5 180.5z" />
    </font>
</defs>
</svg>
